SplineFontDB: 3.0
FontName: LibreArteFont
FullName: LibreArteFont
FamilyName: Normal
Weight: Medium
Copyright: Created by Pablo Lizardo with FontForge 2.0 (http://fontforge.sf.net)
UComments: "Created with love by Pablo Lizardo+AAoA-more info at www.pablolizardo.com+AAoA-and www.sokistudio.com" 
Version: 0.200
ItalicAngle: 0
UnderlinePosition: -100
UnderlineWidth: 50
Ascent: 800
Descent: 200
LayerCount: 2
Layer: 0 0 "Back"  1
Layer: 1 0 "Fore"  0
XUID: [1021 415 800445716 14826746]
FSType: 0
OS2Version: 0
OS2_WeightWidthSlopeOnly: 0
OS2_UseTypoMetrics: 1
CreationTime: 1409148046
ModificationTime: 1409184079
PfmFamily: 17
TTFWeight: 500
TTFWidth: 5
LineGap: 90
VLineGap: 90
OS2TypoAscent: 0
OS2TypoAOffset: 1
OS2TypoDescent: 0
OS2TypoDOffset: 1
OS2TypoLinegap: 90
OS2WinAscent: 0
OS2WinAOffset: 1
OS2WinDescent: 0
OS2WinDOffset: 1
HheadAscent: 0
HheadAOffset: 1
HheadDescent: 0
HheadDOffset: 1
OS2Vendor: 'PfEd'
MarkAttachClasses: 1
DEI: 91125
LangName: 1033 
Encoding: ISO8859-1
Compacted: 1
UnicodeInterp: none
NameList: Adobe Glyph List
DisplaySize: -48
AntiAlias: 0
FitToEm: 0
WinInfo: 0 10 10
BeginPrivate: 0
EndPrivate
Grid
-1000 -78.261 m 0
 2000 -78.261 l 0
  Named: "2" 
-1000 729 m 0
 2000 729 l 0
  Named: "1" 
EndSplineSet
TeXData: 1 0 0 346030 173015 115343 723305 1048576 115343 783286 444596 497025 792723 393216 433062 380633 303038 157286 324010 404750 52429 2506097 1059062 262144
BeginChars: 125 65

StartChar: B
Encoding: 66 66 0
Width: 1000
VWidth: 0
HStem: -117.874 103.611<386.166 491.882> 81.0439 82.876<590.296 699.253> 248.301 8.95312<412.377 432.812 672.582 720.366> 392.045 29.7168<607.161 640.5> 419.997 1.76465<557.676 560.077>
VStem: 627.512 26.2432<409.734 419.401>
LayerCount: 2
Fore
SplineSet
448.791 -112.729 m 4xf4
 438.645 -109.115 433.51 -108.796 430.166 -111.571 c 4
 423.86 -116.805 397.129 -113.338 385.615 -105.794 c 4
 378.7 -101.264 372.282 -89.4043 361.452 -61.1484 c 6
 346.704 -22.6729 l 5
 336.883 -36.2305 l 6
 331.481 -43.6875 320.039 -53.1875 311.456 -57.3428 c 4
 276.244 -74.3887 241.414 -62.6865 199.074 -19.584 c 4
 98.2041 83.1035 52.8994 254.136 89.4248 394.363 c 4
 97.5518 425.563 121.432 478.47 139.026 504.256 c 4
 187.504 575.302 274.794 631.939 359.479 647.296 c 4
 394.881 653.716 448.644 652.123 475.197 643.868 c 4
 528.08 627.429 571.642 586.27 593.763 531.843 c 4
 601.673 512.38 603.511 510.439 619.326 504.866 c 4
 642.781 496.6 642.579 496.544 650.535 513.406 c 4
 667.758 549.904 726.679 595.041 776.041 609.549 c 4
 794.736 615.043 847.254 617.438 851.694 612.997 c 4
 852.907 611.784 847.708 603.416 840.141 594.401 c 4
 818.79 568.967 808.99 545.544 799.278 496.735 c 4
 794.36 472.021 786.543 444.332 781.906 435.206 c 4
 761.897 395.825 722.657 371.545 673.587 368.182 c 6
 645.282 366.242 l 5
 639.892 379.144 l 6
 636.927 386.239 633.758 392.045 632.849 392.045 c 4
 631.94 392.045 624.865 389.512 617.127 386.415 c 4
 606.336 382.098 602.109 377.914 598.991 368.468 c 4
 596.755 361.692 595.483 355.64 596.164 355.019 c 4
 596.846 354.396 624.501 350.392 657.62 346.119 c 4
 777.857 330.608 867.859 310.897 909.533 290.948 c 4
 937.204 277.702 944.351 269.586 949.816 245.198 c 4
 958.885 204.731 936.848 167.678 900.839 162.849 c 4
 887.616 161.074 886.091 159.869 886.091 151.188 c 4
 886.091 138.439 874.729 124.478 856.533 114.866 c 4
 844.879 108.71 835.721 107.071 812.554 106.995 c 4
 788.296 106.915 782.969 105.88 781.396 100.937 c 4
 780.353 97.6582 772.645 91.6572 764.269 87.6025 c 4
 740.905 76.292 701.977 77.4385 680.238 90.0771 c 4
 671.603 95.0986 670.439 94.9229 663 87.4834 c 4
 655.671 80.1543 652.534 79.6309 624.441 81.0439 c 4
 605.111 82.0166 589.625 84.8096 582.349 88.6328 c 4
 576.017 91.9609 570.836 94.0078 570.836 93.1836 c 4
 570.836 92.3584 577.456 80.7861 585.547 67.4688 c 4
 606.353 33.2227 620.421 2.28809 620.424 -9.22168 c 4
 620.429 -24.5566 611.086 -43.21 601.129 -47.7471 c 4
 596.157 -50.0117 592.09 -54.583 592.09 -57.9033 c 4
 592.09 -75.8945 559.765 -96.5645 531.421 -96.6992 c 4
 520.562 -96.751 513.388 -98.7559 510.167 -102.639 c 4
 503.71 -110.426 484.894 -118.067 472.654 -117.874 c 4
 467.234 -117.789 456.496 -115.474 448.791 -112.729 c 4xf4
475.72 -2.0166 m 4
 535.72 27.5215 569.642 95.3037 546.624 139.664 c 4
 538.443 155.43 539.646 157.99 551.146 149.293 c 4
 567.958 136.576 614.801 147.756 619.467 165.598 c 4
 620.967 171.335 622.231 171.799 626.564 168.203 c 4
 629.465 165.796 640.029 163.869 650.042 163.92 c 4
 679.027 164.067 705.18 181.202 705.361 200.163 c 4
 705.431 207.447 706.664 208.146 715.892 206.119 c 4
 735.087 201.902 771.291 224.207 764.11 235.825 c 4
 763.08 237.492 738.698 243.128 709.929 248.348 c 4
 628.762 263.074 628.495 263.189 675.331 263.3 c 4
 720.366 263.406 819.47 270.891 830.896 275.049 c 4
 845.462 280.349 654.184 314.07 585.879 318.244 c 4
 572.071 319.089 569.26 317.67 552.229 301.265 c 4
 542.007 291.419 527.702 279.998 520.441 275.884 c 4
 501.103 264.927 464.263 254.377 437.038 252.001 c 4
 423.933 250.856 409.622 249.191 405.239 248.301 c 4
 388.993 244.998 397.923 252.729 415.582 257.254 c 4
 451.138 266.367 495.814 291.983 522.242 318.412 c 4
 539.196 335.366 546.133 344.755 544.755 348.884 c 4
 543.659 352.167 538.759 366.011 533.866 379.647 c 4
 518.453 422.61 523.61 464.593 548.271 496.9 c 6
 560.942 513.501 l 5
 552.613 531.285 l 6
 548.032 541.065 535.485 557.972 524.732 568.853 c 4
 487.983 606.04 441.954 620.07 382.623 612.171 c 4
 311.11 602.649 260.593 577.693 209.504 526.648 c 4
 170.485 487.663 148.101 451.417 131.846 400.9 c 4
 113.868 345.031 109.74 292.717 119.093 239.31 c 4
 130.513 174.103 154.027 126.105 196.416 81.4814 c 4
 256.749 17.9658 335.496 -16.2207 416.956 -14.2627 c 4
 448.98 -13.4932 454.922 -12.2549 475.72 -2.0166 c 4
391.242 416.697 m 4
 360.393 435.507 362.377 480.585 394.729 495.938 c 4
 410.196 503.277 419.599 503.394 433.927 496.423 c 4
 456.512 485.435 465.974 460.327 456.275 437.117 c 4
 445.915 412.32 414.564 402.477 391.242 416.697 c 4
435.348 465.11 m 4
 445.161 471.3 445.462 477.562 436.341 485.815 c 4
 426.726 494.518 403.458 494.72 394.023 486.183 c 4
 385.018 478.031 384.717 472.779 392.842 465.575 c 4
 404.509 455.229 419.42 455.066 435.348 465.11 c 4
580.679 395.101 m 4
 591.825 400.678 606.923 407.177 614.229 409.544 c 4
 621.96 412.049 627.512 416.126 627.512 419.3 c 4
 627.512 423.35 625.463 424.094 619.541 422.192 c 4
 604.594 417.394 564.664 415.972 557.916 419.997 c 4
 552.697 423.111 554.349 423.473 565.989 421.762 c 4xec
 576.53 420.213 589.767 422.302 613.304 429.227 c 4
 643.813 438.204 647.738 438.581 672.436 434.907 c 4
 686.984 432.743 702.093 429.258 706.01 427.162 c 4
 722.605 418.28 714.964 428.32 692.507 444.901 c 4
 663.573 466.266 626.795 482.388 595.451 487.448 c 4
 573.787 490.946 572.293 490.728 566.511 483.212 c 4
 551.357 463.514 544.935 420.607 553.472 396.116 c 4
 555.61 389.98 558.047 384.961 558.887 384.961 c 4
 559.726 384.961 569.532 389.523 580.679 395.101 c 4
707.078 399.384 m 4
 717.866 403.421 726.692 407.864 726.692 409.259 c 4
 726.692 410.653 717.199 414.338 705.598 417.446 c 4
 684.926 422.985 684.391 422.947 678.933 415.542 c 6
 673.363 407.985 l 5
 675.332 415.516 l 6
 676.828 421.237 675.362 423.566 669.231 425.209 c 4
 652.713 429.634 651.244 428.452 653.755 412.751 c 4
 655.049 404.657 656.94 396.687 657.958 395.04 c 4
 661.304 389.627 687.098 391.908 707.078 399.384 c 4
760.271 446.063 m 4
 764.885 456.292 773.037 485.128 778.387 510.144 c 4
 785.409 542.989 791.223 560.793 799.307 574.219 c 6
 810.502 592.811 l 5
 796.001 590.102 l 6
 753.185 582.103 709.894 554.539 682.433 517.793 c 4
 673.697 506.104 666.533 494.799 666.513 492.67 c 4
 666.455 486.642 691.943 474.351 693.775 479.523 c 4
 698.518 492.912 724.711 527.436 742.296 543.474 c 4
 768.238 567.135 774.452 567.448 753.996 544.063 c 4
 739.647 527.66 711.703 482.96 707.68 469.974 c 4
 706.651 466.652 714.222 457.778 727.875 446.302 c 4
 739.889 436.205 750.203 427.837 750.799 427.705 c 4
 751.394 427.574 755.656 435.836 760.271 446.063 c 4
EndSplineSet
Validated: 33
EndChar

StartChar: G
Encoding: 71 71 1
Width: 1000
VWidth: 0
HStem: 42.1348 53.624<378.221 429.998 507.755 567.253> 116.498 19.5049<377.398 567.267> 324.667 34.1074<561.129 597.366> 352.224 26.6914<502.475 527.499> 526.64 88.5078<612.208 670.218>
VStem: 209.576 44.4688<345.585 405.146> 224.438 19.0459<120.333 195.588> 258.219 6.0293<478.457 486.302> 332.09 21.3584<74.9938 110.923> 373.454 69.2549<50.3992 95.4232> 606.341 47.3545<176.164 287.517> 646.512 3.99805<392.5 394.62> 673.769 28.5605<403.102 478.138> 682.802 3.60547<483.685 487.219>
LayerCount: 2
Fore
SplineSet
442.194 -31.3906 m 4xcde8
 426.23 -28.7031 406.03 -21.2881 394.782 -13.9863 c 4
 389.079 -10.2832 378.689 -6.03613 371.694 -4.54688 c 4
 343 1.5625 313.596 22.9941 298.217 49.0088 c 4
 291.431 60.4912 288.814 62.918 277.399 68.3174 c 4
 269.526 72.0391 259.515 79.3398 252.188 86.6992 c 4
 232.12 106.854 224.405 127.926 224.438 162.501 c 4xcbe8
 224.458 186.599 229.52 204.696 240.836 221.144 c 4
 251.597 236.782 253.393 237.444 256.256 226.816 c 4
 259.72 213.952 267.076 200.145 277.476 186.989 c 4
 284.264 178.401 286.814 176.424 288.112 178.745 c 4
 289.052 180.424 290.828 200.458 292.057 223.266 c 4
 295.278 283.014 292.749 289.493 258.95 308.117 c 4
 223.727 327.527 209.677 343.838 209.576 365.43 c 4
 209.506 380.421 214.731 390.997 227.67 402.05 c 4
 241.028 413.464 243.416 419.849 243.435 444.2 c 4
 243.444 458.816 242.694 462.157 237.485 470.698 c 4
 219.126 500.798 220.377 526.216 240.888 539.788 c 4
 246.873 543.75 265.156 549.366 272.065 549.366 c 4
 273.55 549.366 274.89 568.976 273.846 575.411 c 4
 271.521 589.726 252.041 603.627 227.018 608.828 c 4
 220.896 610.101 215.889 611.897 215.889 612.821 c 4
 215.889 615.957 236.441 633.743 245.268 638.246 c 4
 276.719 654.291 317.306 651.351 348.377 630.778 c 4
 359.966 623.104 374.307 610.074 385.062 597.448 c 4
 394.57 586.285 398.757 587.596 400.834 602.386 c 4
 403.084 618.397 413.29 638.263 424.642 648.728 c 4
 429.862 653.539 434.989 657.477 436.035 657.477 c 4
 438.093 657.477 440.588 647.392 440.588 639.089 c 4
 440.588 636.262 442.163 630.901 444.089 627.178 c 4
 447.95 619.711 447.005 618.805 453.58 636.264 c 4
 458.783 650.084 475.552 665.263 494.249 673.074 c 6
 501.787 676.224 l 5
 500.584 661.847 l 6
 499.542 649.427 502.727 625.68 505.436 625.68 c 4
 505.892 625.68 510.629 629.01 515.961 633.079 c 4
 525.152 640.097 547.647 648.635 550.205 646.078 c 4
 550.858 645.423 549.335 640.096 546.816 634.24 c 4
 541.206 621.199 537.699 603.638 539.372 596.971 c 4
 540.17 593.789 542.687 591.558 546.395 590.743 c 4
 551.515 589.618 554.445 591.738 572.162 609.375 c 4
 596.271 633.375 615.059 643.827 640.734 647.526 c 4
 670.852 651.864 702.526 641.921 721.431 622.191 c 6
 731.196 612 l 5
 716.429 608.37 l 6
 681.522 599.788 667.312 584.054 671.457 558.564 c 4
 672.73 550.727 673.109 550.43 686.221 547.001 c 4
 708.092 541.282 718.204 531.219 719.911 513.472 c 4
 721.192 500.122 717.559 486.642 709.146 473.548 c 4
 701.9 462.272 699.774 447.755 702.329 427.001 c 4
 703.736 415.574 704.659 413.981 716.162 403.099 c 4
 731.401 388.686 735.242 381.221 735.242 366.023 c 4
 735.242 343.655 721.867 328 685.6 307.911 c 4
 670.105 299.329 663.5 294.312 659.273 287.911 c 4
 653.638 279.38 653.63 279.304 653.695 237.894 c 4
 653.732 215.081 654.52 191.789 655.446 186.132 c 6
 657.135 175.846 l 5
 662.374 180.77 l 6
 671.254 189.112 682.351 207.557 687.281 222.176 c 6
 691.983 236.116 l 5
 698.761 228.396 l 6
 724.5 199.081 728.848 143.639 708.36 105.996 c 4
 700.636 91.8018 682.808 75.5605 666.66 68.0039 c 4
 655.198 62.6406 652.553 60.333 649.163 52.7383 c 4
 643.648 40.3867 615.942 12.7812 602.02 5.76758 c 4
 595.787 2.62598 583.84 -1.69336 575.468 -3.83496 c 4
 567.099 -5.97559 555.504 -10.6738 549.704 -14.2754 c 4
 523.316 -30.6611 479.394 -37.6533 442.194 -31.3906 c 4xcde8
520.093 21.5371 m 4
 555.114 30.4932 578.577 47.2627 586.819 69.2285 c 4
 594.426 89.4971 594.711 97.8623 588.066 105.758 c 4
 579.024 116.504 571.024 117.207 465.723 116.498 c 4
 375.357 115.889 371.405 115.695 364.274 111.519 c 4
 353.414 105.155 350.442 97.6826 353.448 84.2822 c 4
 359.375 57.8564 369.781 45.3154 397.223 31.5205 c 4
 428.732 15.6807 480.689 11.458 520.093 21.5371 c 4
396.291 42.1348 m 4
 387.875 46.2812 378.335 60.3633 373.454 75.8447 c 4
 369.465 88.502 370.486 92.8496 378.138 95.7588 c 4
 385.576 98.5869 427.731 98.4121 436.031 95.5195 c 4
 441.967 93.4502 442.709 92.2822 442.709 85 c 4
 442.709 75.749 435.986 56.5723 430.47 50.0859 c 4
 420.413 38.2588 409.373 35.6904 396.291 42.1348 c 4
526.215 40.5654 m 4
 514.847 45.1582 500.797 72.3242 502.438 86.5312 c 4
 503.49 95.626 510.327 97.7832 538.099 97.7832 c 4
 573.403 97.7832 578.169 94.123 570.991 72.5117 c 4
 562.521 47.0156 543.621 33.5303 526.215 40.5654 c 4
612.109 39.8818 m 4
 618.623 45.8926 623.475 51.291 622.893 51.8779 c 4
 622.308 52.4648 617.509 52.4541 612.225 51.8545 c 4
 602.801 50.7842 602.473 50.4854 595.08 36.2314 c 6
 587.541 21.6982 l 5
 593.904 25.3252 l 6
 597.403 27.3213 605.596 33.8711 612.109 39.8818 c 4
348.918 37.8584 m 4
 342.471 50.1523 341.706 50.8223 332.729 52.0527 c 4
 327.545 52.7627 322.812 52.8496 322.207 52.2461 c 4
 320.455 50.4941 334.786 36.3828 345.044 29.7617 c 4
 350.206 26.4277 354.712 23.9834 355.059 24.3281 c 4
 355.403 24.6729 352.641 30.7617 348.918 37.8584 c 4
332.09 83.8818 m 4
 329.389 96.5371 332.629 107.529 343.185 121.531 c 6
 351.697 132.823 l 5
 342.616 134.535 l 6
 303.321 141.943 284.587 149.775 269.09 165.271 c 4
 263.352 171.01 256.297 180.352 253.409 186.031 c 6
 248.161 196.358 l 5
 245.815 187.909 l 6
 244.525 183.262 243.476 172.305 243.483 163.561 c 4
 243.51 129.881 254.874 107.318 280.543 89.9756 c 4
 291.173 82.792 314.039 75.5664 328.511 74.8174 c 4
 334.009 74.5322 334.057 74.6533 332.09 83.8818 c 4
634.635 77.7734 m 4
 654.932 82.9854 668.25 90.5996 680.829 104.188 c 4
 696.725 121.356 700.265 132.171 700.265 163.561 c 4
 700.265 176.969 699.497 189.823 698.558 192.126 c 4
 697.088 195.735 695.977 194.71 690.511 184.707 c 4
 687.024 178.323 680.639 169.461 676.319 165.013 c 4
 664.384 152.719 638.41 140.916 614.412 136.88 c 4
 603.336 135.018 594.118 133.343 593.925 133.158 c 4
 593.732 132.974 597.729 127.33 602.807 120.616 c 4
 613.09 107.019 616.172 95.0195 612.655 82.2783 c 4
 610.573 74.7393 610.67 74.5293 616.258 74.5293 c 4
 619.416 74.5293 627.688 75.9883 634.635 77.7734 c 4
567.777 136.647 m 4
 567.777 137.001 564.406 147.255 560.288 159.435 c 4
 548.925 193.046 534.114 255.673 536.879 258.438 c 4
 537.394 258.952 540.371 254.33 543.494 248.166 c 4
 548.377 238.53 596.991 163.793 601.8 158.526 c 4
 603.886 156.244 623.387 158.926 621.922 161.293 c 4
 621.346 162.229 618.498 172.422 615.596 183.945 c 4
 609.097 209.755 605.478 246.123 606.341 276.971 c 6
 606.992 300.288 l 5
 611.213 287.569 l 5
 615.432 274.852 l 5
 616.709 286.525 l 6
 619.617 313.147 627.898 326.73 645.976 334.536 c 4
 666.855 343.551 684.11 352.667 687.606 356.53 c 4
 690.742 359.994 690.521 361.144 684.707 371.62 c 4
 677.097 385.338 673.769 400.294 673.769 420.777 c 4xcde8
 673.769 438.703 679.406 481.767 682.802 489.778 c 4
 685.121 495.248 685.162 495.215 686.407 486.832 c 6
 687.664 478.353 l 5
 693.436 489.411 l 6
 706.691 514.815 698.068 527.149 667.408 526.64 c 4
 631.545 526.043 591.85 508.845 544.895 473.557 c 4
 536.391 467.165 528.838 462.529 528.113 463.255 c 4
 527.388 463.979 530.166 469.581 534.286 475.702 c 4
 538.406 481.823 548.299 499.364 556.269 514.681 c 4
 569.912 540.9 570.643 543.009 568.739 550.715 c 4
 566.871 558.273 565.743 559.251 553.998 563.48 c 4
 508.512 579.859 441.468 580.019 392.894 563.861 c 4
 385.896 561.535 379.299 558.784 378.23 557.749 c 4
 377.162 556.714 376.321 551.781 376.359 546.787 c 4
 376.417 539.828 379.559 531.765 389.807 512.27 c 4
 397.163 498.278 406.863 481.347 411.364 474.643 c 4
 415.866 467.939 418.562 462.454 417.361 462.454 c 4
 416.157 462.454 407.417 468.205 397.937 475.235 c 4
 339.655 518.448 282.252 537.271 253.545 522.579 c 4
 243.407 517.391 243.153 502.696 252.928 486.832 c 6
 258.152 478.353 l 5
 258.219 486.302 l 6
 258.312 497.74 261.454 496.083 264.248 483.122 c 4
 275 433.213 272.541 387.873 257.934 366.735 c 4
 255.794 363.641 254.045 360.528 254.045 359.819 c 4xcdc4
 254.045 357.324 276.482 344.217 292.202 337.529 c 4
 300.946 333.81 310.376 328.678 313.157 326.126 c 4
 320.585 319.312 326.312 304.935 327.974 288.94 c 6
 329.434 274.852 l 5
 333.968 287.569 l 5
 338.502 300.288 l 5
 338.652 270.611 l 6
 338.833 234.884 336.41 212.216 329.271 182.858 c 4
 326.325 170.737 324.331 160.402 324.84 159.892 c 4
 325.351 159.382 329.596 158.451 334.273 157.823 c 6
 342.78 156.684 l 5
 368.499 195.421 l 6
 382.644 216.728 397.167 239.977 400.772 247.086 c 4
 404.376 254.195 407.695 258.935 408.151 257.616 c 4
 410.191 251.688 394.376 186.365 382.315 150.904 c 6
 377.246 136.003 l 5
 472.511 136.003 l 6
 524.908 136.003 567.777 136.292 567.777 136.647 c 4
378.208 304.98 m 6
 385.98 323.881 385.933 323.968 366.924 325.103 c 4
 333.416 327.104 313.7 346.312 305.682 384.766 c 4
 302.306 400.963 300.7 404.726 300.647 396.563 c 4
 300.583 386.32 297.223 385.338 293.56 394.492 c 4
 289.206 405.374 289.122 416.292 293.33 424.429 c 4
 296.855 431.248 297.477 430.537 283.722 435.415 c 4
 281.589 436.172 283.147 437.672 288.461 439.975 c 4
 308.612 448.708 335.159 449.582 356.854 442.225 c 4
 374.853 436.123 387.828 425.893 401.117 407.333 c 4
 415.479 387.271 426.866 378.711 438.777 379.023 c 4
 446.14 379.217 446.947 378.713 446.947 373.931 c 4
 446.947 367.375 434.649 355.238 426.105 353.362 c 4
 420.855 352.209 419.569 350.384 416.642 339.937 c 4
 410.604 318.408 394.423 299.365 377.729 294.142 c 6
 373.165 292.714 l 5
 378.208 304.98 l 6
381.686 360.793 m 4
 386.017 361.996 390.139 363.919 390.849 365.065 c 4
 392.909 368.401 366.666 393.145 348.451 405.035 c 4
 335.986 413.172 331.309 415.254 330.024 413.229 c 4
 327.56 409.348 327.865 392.87 330.582 383.083 c 4
 335.828 364.188 358.422 354.332 381.686 360.793 c 4
561.418 296.99 m 4
 544.402 306.01 527.5 330.047 527.5 345.221 c 4
 527.5 350.225 526.532 352.224 524.11 352.224 c 4
 513.168 352.224 497.851 366.256 497.832 376.302 c 4
 497.825 379.443 498.894 379.973 503.104 378.915 c 4xd9d0
 509.322 377.354 522.106 382.224 529.297 388.892 c 4
 532.067 391.46 537.949 398.807 542.368 405.22 c 4
 559.296 429.776 577.99 441.746 606.248 446.12 c 4
 622.988 448.711 645.716 445.933 657.463 439.857 c 4
 664.638 436.147 664.46 435.891 651.964 431.932 c 4
 648.468 430.823 648.429 430.256 651.436 424.44 c 4
 655.813 415.974 655.397 401.562 650.51 392.5 c 6
 646.512 385.081 l 5
 644.918 394.62 l 5
 643.322 404.159 l 5
 640.498 388.897 l 6
 634.935 358.851 623.711 341.303 603.642 331.274 c 4
 592.662 325.787 587.929 324.667 575.749 324.667 c 6
 561.08 324.667 l 5xe9d0
 562.523 317.777 l 6
 563.317 313.987 565.725 306.833 567.872 301.879 c 4
 572.257 291.763 571.853 291.457 561.418 296.99 c 4
597.651 363.446 m 4
 610.278 370.018 616.533 382.206 616.533 400.244 c 4
 616.533 407.506 615.663 413.985 614.602 414.641 c 4
 609.058 418.067 550.66 370.343 553.929 365.056 c 4
 555.867 361.919 567.339 358.995 578.573 358.774 c 4xe9c0
 584.901 358.65 591.577 360.285 597.651 363.446 c 4
457.331 420.041 m 4
 450.055 423.887 426.791 447.243 428.518 448.969 c 4
 428.969 449.421 433.062 448.206 437.612 446.268 c 4
 454.57 439.048 493.66 440.316 513.521 448.729 c 4
 517.49 450.412 517.49 450.326 513.521 443.565 c 4
 511.299 439.785 505.666 433.567 501.002 429.748 c 4
 483.236 415.197 471.45 412.578 457.331 420.041 c 4
613.01 595.322 m 4
 627.968 608.991 643.175 615.056 662.719 615.147 c 4
 671.713 615.19 678.428 616.335 680.971 618.261 c 4
 684.858 621.203 684.822 621.37 679.91 623.191 c 4
 663.461 629.293 638.911 627.518 620.846 618.922 c 4
 611.929 614.678 580.494 585.598 580.494 581.591 c 4
 580.494 580.612 583.594 578.346 587.381 576.552 c 4
 594.077 573.382 594.357 573.442 597.629 578.817 c 4
 599.479 581.856 606.4 589.284 613.01 595.322 c 4
358.875 577.265 m 4
 361.845 578.617 364.274 580.633 364.274 581.743 c 4
 364.274 585.87 333.193 614.472 323.859 618.934 c 4
 308.881 626.093 292.477 628.42 276.901 625.597 c 4
 260.589 622.638 259.14 621.799 263.987 618.124 c 4
 266.331 616.347 273.376 615.188 282.11 615.147 c 4
 290.901 615.106 300.506 613.52 307.08 611.021 c 4
 320.46 605.937 337.178 593.324 344.454 582.825 c 4
 350.604 573.949 351.144 573.741 358.875 577.265 c 4
EndSplineSet
Validated: 33
EndChar

StartChar: i
Encoding: 105 105 2
Width: 1000
VWidth: 0
HStem: -6.42383 51.0723<739.477 792.389> 67.3369 47.9189<772.867 873.753>
LayerCount: 2
Fore
SplineSet
489.092 -93.6533 m 4
 478.855 -91.2432 468.35 -86.0186 461.926 -80.1436 c 4
 457.897 -76.4609 457.022 -73.3574 457.022 -62.7578 c 4
 457.022 -37.0547 446.728 -29.9561 402.081 -24.874 c 4
 370.566 -21.2861 357.045 -16.793 351.279 -7.99512 c 4
 344.89 1.75781 348.394 10.1895 367.559 31.1709 c 4
 390.766 56.5752 392.125 64.5215 375.446 77.2422 c 4
 364.515 85.5801 340.422 95.1094 279.433 115.215 c 4
 208.153 138.713 184.646 150.378 184.646 162.249 c 4
 184.646 167.381 199.391 177.974 219.83 187.526 c 4
 251.997 202.559 261.623 208.063 266.002 213.93 c 4
 275.904 227.192 264.778 233.896 201.558 252.756 c 4
 112.201 279.414 87.9365 288.785 81.0459 299.301 c 4
 76.4219 306.356 79.6924 324.683 89.0459 344.129 c 4
 95.2773 357.085 110.732 373.156 270.447 532.756 c 4
 454.191 716.367 453.083 715.362 479.575 722.416 c 4
 500.5 727.987 525.644 724.982 546.974 714.36 c 4
 557.028 709.354 899.229 369.648 910.047 353.934 c 4
 918.793 341.229 923.24 328.386 925.707 308.717 c 4
 930.513 270.395 920.695 255.367 877.038 234.22 c 4
 843.541 217.993 795.174 202.149 743.919 190.616 c 4
 720.652 185.38 698.306 179.425 694.262 177.382 c 4
 673.934 167.115 669.405 154.104 682.005 142.157 c 4
 685.899 138.464 697.422 130.302 707.608 124.02 c 4
 729.342 110.617 743.469 99.5518 748.34 92.1172 c 4
 751.702 86.9883 751.556 86.5 744.429 79.1113 c 4
 733.482 67.7627 708.481 49.2314 692.355 40.5127 c 4
 684.565 36.3018 664.464 27.2227 647.686 20.3369 c 4
 615.028 6.93457 604.933 1.43652 596.757 -7.40039 c 4
 588.577 -16.2422 591.53 -21.7295 610.022 -32.0527 c 4
 622.856 -39.2168 626.029 -42.0322 626.592 -46.7559 c 4
 627.568 -54.9473 618.337 -62.918 593.733 -75.125 c 4
 558.594 -92.5605 516.274 -100.054 489.092 -93.6533 c 4
504.573 170.484 m 4
 505.545 178.962 501.519 182.882 491.836 182.882 c 4
 478.399 182.882 436.524 190.79 400.045 200.219 c 4
 381.291 205.064 364.867 209.029 363.547 209.029 c 4
 359.72 209.029 360.732 205.498 366.535 198.602 c 4
 373.055 190.853 400.356 182.303 455.082 170.871 c 4
 497.883 161.932 503.588 161.887 504.573 170.484 c 4
520.214 487.992 m 4
 537.592 499.565 553.917 510.153 556.494 511.522 c 4
 560.47 513.635 564.722 512.353 584.602 503.046 c 4
 597.484 497.015 608.825 492.881 609.803 493.858 c 4
 610.78 494.836 613.263 509.203 615.32 525.784 c 4
 617.788 545.68 620.026 556.304 621.901 557.023 c 4
 623.464 557.623 643.355 549.111 666.105 538.11 c 4
 688.855 527.107 708.423 518.694 709.588 519.415 c 4
 713.206 521.651 707.995 532.457 699.348 540.647 c 4
 688.848 550.592 534.103 665.138 518.366 674.613 c 4
 504.831 682.764 495.382 683.791 484.696 678.275 c 4
 476.837 674.218 409.318 626.805 386.586 609.382 c 4
 365.311 593.074 331.17 554.229 313.473 526.194 c 4
 306.893 515.769 306.671 514.614 306.671 490.785 c 6
 306.671 466.153 l 5
 314.908 466.153 l 6
 330.626 466.153 409.996 475.092 412.464 477.141 c 4
 413.829 478.273 422.67 497.355 432.112 519.544 c 4
 441.555 541.733 450.286 559.559 451.518 559.154 c 4
 452.747 558.751 459.637 538.396 466.828 513.921 c 4
 474.019 489.446 480.705 468.18 481.687 466.662 c 4
 483.796 463.402 480.787 461.735 520.214 487.992 c 4
757.727 -6.42383 m 4
 738.479 1.25098 732.343 26.1641 746.269 40.0889 c 4
 750.958 44.7793 753.455 45.6953 758.692 44.6484 c 4
 777.807 40.8252 796.948 23.8848 796.948 10.793 c 4
 796.948 -2.73633 773.877 -12.8633 757.727 -6.42383 c 4
270.717 0.948242 m 4
 248.884 8.69043 248.672 27.2295 270.188 47.0625 c 4
 288.027 63.5068 303.825 64.5547 330.601 51.0713 c 4
 347.907 42.3555 349.615 38.3564 339.9 29.2979 c 4
 329.132 19.2578 304.301 3.71875 294.137 0.660156 c 4
 282.135 -2.95215 281.699 -2.94727 270.717 0.948242 c 4
809.604 67.3369 m 4
 774.016 74.8418 767.544 78.0068 769.726 86.8438 c 4
 773.294 101.298 791.346 110.182 827.454 115.256 c 4
 864.38 120.444 892.754 107.334 889.959 86.375 c 4
 888.587 76.0889 885.376 72.1338 874.303 67.0967 c 4
 862.833 61.8789 834.994 61.9824 809.604 67.3369 c 4
EndSplineSet
Validated: 33
EndChar

StartChar: C
Encoding: 67 67 3
Width: 1000
VWidth: 0
Flags: H
LayerCount: 2
Fore
SplineSet
302.598 374.359 m 5
 190.075 569.255 l 5
 262.131 659.468 373.025 717.266 497.447 717.266 c 4
 641.379 717.266 767.22 639.909 835.755 524.507 c 5
 514.944 524.507 l 6
 509.166 525 503.343 525.268 497.475 525.268 c 4
 403.87 525.268 325.019 461.033 302.624 374.332 c 5
 302.598 374.359 l 5
638.202 467.693 m 5
 863.571 467.693 l 5
 881.042 423.216 890.627 374.777 890.627 324.086 c 4
 890.627 108.424 716.991 -66.6416 501.913 -69.0488 c 5
 662.722 209.475 l 5
 685.357 242.01 698.646 281.529 698.646 324.086 c 4
 698.646 380.285 675.474 431.155 638.222 467.693 c 5
 638.202 467.693 l 5
354.618 324.086 m 4
 354.618 402.848 418.686 466.932 497.465 466.932 c 4
 576.244 466.932 640.312 402.865 640.312 324.086 c 4
 640.312 245.324 576.225 181.239 497.465 181.239 c 4
 418.703 181.239 354.618 245.323 354.618 324.086 c 4
551.332 130.222 m 5
 438.755 -64.749 l 5
 249.432 -36.4111 104.228 126.857 104.228 324.058 c 4
 104.228 394.116 122.562 459.854 154.679 516.845 c 5
 315.2 238.814 l 5
 347.345 170.372 416.94 122.876 497.416 122.876 c 4
 516.066 122.876 534.159 125.429 551.304 130.223 c 5
 551.332 130.222 l 5
EndSplineSet
Validated: 1
EndChar

StartChar: H
Encoding: 72 72 4
Width: 1000
VWidth: 0
Flags: H
LayerCount: 2
Fore
SplineSet
152.679 711.109 m 5
 152.679 711.109 l 5
 152.698 711.109 l 5
 846.088 711.1 l 5
 782.885 3.47168 l 5
 498.957 -75.2607 l 5
 215.762 3.35059 l 5
 152.679 711.109 l 5
708.732 479.631 m 5
 708.714 479.601 l 5
 716.478 566.396 l 5
 281.671 566.396 l 5
 305.085 303.924 l 5
 605.926 303.924 l 5
 595.896 191.373 l 5
 499.201 165.274 l 5
 498.979 165.228 l 5
 402.328 191.28 l 5
 396.135 260.577 l 5
 308.967 260.577 l 5
 321.135 124.269 l 5
 498.978 74.9209 l 5
 677.014 124.269 l 5
 700.846 390.745 l 5
 384.486 390.745 l 5
 376.571 479.631 l 5
 708.732 479.631 l 5
EndSplineSet
Validated: 5
EndChar

StartChar: J
Encoding: 74 74 5
Width: 1000
VWidth: 0
Flags: H
LayerCount: 2
Fore
SplineSet
373.288 -30.291 m 4
 306.7 -11.1406 251.624 5.12305 250.897 5.85059 c 4
 250.172 6.57715 247.943 23.1289 245.946 42.6338 c 4
 239.408 106.505 195 602.819 195 612.021 c 6
 195 620.999 l 5
 499.863 620.999 l 5
 804.726 620.999 l 5
 802.855 608.313 l 6
 801.828 601.338 789.188 463.202 774.77 301.347 c 4
 760.35 139.49 748.262 6.63281 747.907 6.10645 c 4
 747.013 4.77734 499.04 -65.7266 496.452 -65.3867 c 4
 495.3 -65.2363 439.876 -49.4434 373.288 -30.291 c 4
447.001 61.5107 m 4
 476.768 64.7568 501.541 67.6992 502.054 68.0488 c 4
 502.856 68.5977 505.356 82.6455 514.815 139.762 c 6
 516.625 150.688 l 5
 588.264 151.601 l 5
 659.904 152.513 l 5
 674.104 319.95 l 6
 681.914 412.04 688.966 494.617 689.774 503.455 c 6
 691.243 519.521 l 5
 493.859 519.521 l 6
 385.299 519.521 296.459 518.38 296.438 516.985 c 4
 296.345 510.764 323.802 178.048 325.469 165.198 c 6
 327.334 150.822 l 5
 398.632 150.822 l 5
 469.93 150.822 l 5
 467.857 133.323 l 6
 466.718 123.698 464.603 114.768 463.158 113.478 c 4
 461.713 112.188 443.787 109.274 423.322 107.004 c 4
 367.438 100.806 370.235 102.096 372.622 83.6133 c 4
 376.466 53.8447 377.297 51.9131 385.416 53.8379 c 4
 389.521 54.8105 417.234 58.2637 447.001 61.5107 c 4
381.025 221.01 m 4
 381.018 222.405 377.98 269.212 374.275 325.024 c 4
 370.571 380.836 367.533 432.97 367.525 440.877 c 6
 367.511 455.253 l 5
 493.132 455.253 l 5
 618.754 455.253 l 5
 616.712 430.729 l 6
 615.589 417.241 612.812 364.728 610.542 314.031 c 6
 606.414 221.855 l 5
 567.685 221.855 l 5
 528.954 221.855 l 5
 531.297 237.924 l 6
 532.586 246.76 534.528 261.981 535.612 271.749 c 6
 537.585 289.508 l 5
 512.285 289.508 l 5
 486.984 289.508 l 5
 482.98 256.921 l 6
 480.777 238.998 478.16 223.016 477.164 221.404 c 4
 474.953 217.827 381.047 217.442 381.025 221.01 c 4
411.484 734.314 m 5
 411.484 796.892 l 5
 428.396 796.892 l 5
 445.31 796.892 l 5
 445.31 754.609 l 5
 445.31 712.328 l 5
 458.84 712.328 l 6
 467.205 712.328 472.516 713.941 472.752 716.556 c 4
 472.962 718.881 472.822 737.908 472.441 758.839 c 6
 471.75 796.892 l 5
 488.973 796.892 l 5
 506.195 796.892 l 5
 506.195 734.314 l 5
 506.195 671.736 l 5
 458.84 671.736 l 5
 411.484 671.736 l 5
 411.484 734.314 l 5
226.87 679.662 m 4
 225.862 682.288 225.51 691.853 226.086 700.918 c 4
 227.051 716.09 227.876 717.487 236.455 718.474 c 4
 242.534 719.173 246.484 717.702 247.811 714.246 c 4
 249.009 711.124 253.866 708.945 259.63 708.945 c 6
 269.416 708.945 l 5
 269.416 746.153 l 6
 269.416 768.704 268.083 783.361 266.033 783.361 c 4
 264.173 783.361 262.651 787.243 262.651 791.986 c 4
 262.651 800.35 263.243 800.581 282.101 799.598 c 6
 301.551 798.583 l 5
 301.551 737.696 l 5
 301.551 676.811 l 5
 265.126 675.85 l 6
 236.236 675.088 228.322 675.877 226.87 679.662 c 4
313.39 736.006 m 5
 313.39 796.892 l 5
 355.672 796.892 l 5
 397.953 796.892 l 5
 397.953 736.006 l 5
 397.953 675.119 l 5
 355.672 675.119 l 5
 313.39 675.119 l 5
 313.39 736.006 l 5
350.598 715.71 m 6
 346.624 721.291 342.715 725.857 341.911 725.857 c 4
 341.107 725.857 340.449 721.291 340.449 715.71 c 4
 340.449 707.069 341.739 705.562 349.137 705.562 c 6
 357.823 705.562 l 5
 350.598 715.71 l 6
370.893 747.845 m 6
 370.893 769.832 l 5
 355.672 769.832 l 5
 340.449 769.832 l 5
 340.449 749.161 l 5
 340.449 728.491 l 5
 346.912 736.472 l 5
 353.375 744.452 l 5
 360.688 735.155 l 6
 364.711 730.042 368.652 725.857 369.447 725.857 c 4
 370.243 725.857 370.893 735.752 370.893 747.845 c 6
516.343 736.006 m 5
 516.343 796.892 l 5
 562.008 796.892 l 5
 607.673 796.892 l 5
 607.673 779.979 l 5
 607.673 763.066 l 5
 580.611 763.066 l 6
 559.175 763.066 553.552 762.043 553.552 758.141 c 4
 553.552 754.373 559.314 752.981 578.075 752.22 c 6
 602.599 751.227 l 5
 603.639 736.851 l 5
 604.679 722.476 l 5
 579.115 722.476 l 6
 555.807 722.476 553.552 721.879 553.552 715.71 c 4
 553.552 709.508 555.807 708.945 580.611 708.945 c 6
 607.673 708.945 l 5
 607.673 692.032 l 5
 607.673 675.119 l 5
 562.008 675.119 l 5
 516.343 675.119 l 5
 516.343 736.006 l 5
614.438 736.006 m 5
 614.438 796.892 l 5
 655.028 796.892 l 5
 695.619 796.892 l 5
 695.619 782.181 l 6
 695.619 774.09 696.604 755.824 697.807 741.59 c 6
 699.994 715.71 l 5
 691.042 715.71 l 6
 686.118 715.71 682.089 714.926 682.089 713.968 c 4
 682.089 713.01 686.801 703.877 692.56 693.672 c 6
 703.029 675.119 l 5
 683.111 675.119 l 5
 663.193 675.119 l 5
 654.242 692.878 l 5
 645.292 710.637 l 5
 645.087 692.878 l 5
 644.88 675.119 l 5
 629.659 675.119 l 5
 614.438 675.119 l 5
 614.438 736.006 l 5
665.176 757.992 m 4
 665.176 769.267 664.612 769.832 653.337 769.832 c 4
 642.062 769.832 641.498 769.267 641.498 757.992 c 4
 641.498 746.717 642.062 746.153 653.337 746.153 c 4
 664.612 746.153 665.176 746.717 665.176 757.992 c 4
736.21 696.532 m 6
 736.21 713.973 733.387 725.061 720.988 756.301 c 4
 712.617 777.396 705.767 795.243 705.767 795.96 c 4
 705.767 796.676 712.986 796.798 721.812 796.23 c 6
 737.855 795.2 l 5
 744.399 776.946 l 5
 750.943 758.692 l 5
 757.763 777.792 l 5
 764.582 796.892 l 5
 780.558 796.892 l 5
 796.534 796.892 l 5
 781.594 759.722 l 6
 768.883 728.1 766.653 719.013 766.653 698.836 c 6
 766.653 675.119 l 5
 751.432 675.119 l 5
 736.21 675.119 l 5
 736.21 696.532 l 6
EndSplineSet
Validated: 33
EndChar

StartChar: j
Encoding: 106 106 6
Width: 1000
VWidth: 0
VStem: 119.005 65.7061<548.918 581.21> 581.806 20.6143<729.76 773.274>
LayerCount: 2
Fore
SplineSet
496.302 -49.583 m 4
 397.064 -34.165 281.145 29.7412 208.766 108.936 c 4
 85.9717 243.292 49.1816 431.648 119.005 568.49 c 4
 141.092 611.774 194.002 679.497 184.711 652.59 c 4
 174.786 623.848 161.592 551.656 161.483 525.501 c 4
 161.071 426.792 211.066 305.127 284.74 225.553 c 4
 390.032 111.827 508.851 57.9199 655.479 57.3486 c 4
 761.481 56.9365 847.178 85.9326 911.879 144.104 c 4
 929.538 159.982 943.986 170.418 943.986 167.295 c 4
 943.986 164.172 933.193 145.59 920 126 c 4
 869.715 51.3291 790.211 -7.74707 703.061 -35.1982 c 4
 662.509 -47.9717 540.548 -56.458 496.302 -49.583 c 4
614.815 231.681 m 4
 528.268 248.817 415.054 339.722 374.806 424.393 c 4
 345.662 485.706 335.289 550.957 346.25 604.024 c 4
 355.474 648.681 377.074 696.216 399.991 722.293 c 4
 412 735.959 413.68 736.521 409.715 725.546 c 4
 407.079 718.25 403.501 686.62 401.765 655.255 c 4
 395.264 537.862 448.82 436.615 554.971 365.617 c 4
 623.163 320.008 665.723 307.695 754.965 307.76 c 4
 843.378 307.824 885.354 321.905 937.862 369.114 c 6
 972.173 399.963 l 5
 957.476 371.153 l 6
 902.943 264.262 754.8 203.963 614.815 231.681 c 4
725.119 476.402 m 4
 600.18 514.544 529.675 651.101 581.806 753.977 c 4
 591.443 772.994 600.022 788.554 600.874 788.554 c 4
 601.725 788.554 602.42 763.931 602.42 733.837 c 4
 602.42 689.47 605.347 673.474 617.891 649.274 c 4
 641.061 604.578 688.257 559.911 734.335 539.072 c 4
 788.579 514.541 859.835 512.691 903.831 534.675 c 4
 920.047 542.777 934.34 548.382 935.593 547.129 c 4
 936.847 545.875 922.932 531.417 904.671 515 c 4
 883.464 495.933 860.747 482.45 841.784 477.675 c 4
 808.619 469.324 750.386 468.688 725.119 476.402 c 4
EndSplineSet
Validated: 33
EndChar

StartChar: h
Encoding: 104 104 7
Width: 1000
VWidth: 0
Flags: W
HStem: 231.235 39.1543<332.179 407.801> 346.637 78.3086<398.201 676.803> 501.192 127.767<307.485 689.32> 682.538 39.1543<694.87 750.51> 699.023 61.8555<556.636 584.86> 721.692 39.1543<288.903 323.937> 760.847 39.1533<379.576 414.608 453.763 488.796>
VStem: 249.749 39.1543<682.538 721.692 760.847 800> 323.937 39.1533<682.538 721.692 760.847 800> 414.608 39.1543<682.538 760.847> 505.281 39.0352<682.538 737.147> 596.984 40.1846<682.538 738.932> 655.716 94.7939<682.538 721.692> 655.716 39.1543<721.692 800>
LayerCount: 2
Fore
SplineSet
655.716 741.269 m 5xf3f4
 655.716 800 l 5
 675.293 800 l 5
 694.87 800 l 5
 694.87 760.847 l 5
 694.87 721.692 l 5xf3f4
 722.689 721.692 l 5
 750.51 721.692 l 5
 750.51 702.115 l 5
 750.51 682.538 l 5
 703.113 682.538 l 5
 655.716 682.538 l 5xf3f8
 655.716 741.269 l 5xf3f4
505.281 741.269 m 5
 505.281 800 l 5
 525.794 800 l 5
 546.307 800 l 5xf3f0
 557.99 780.423 l 6
 564.415 769.656 570.254 760.86 570.964 760.879 c 4xe9f0
 571.675 760.897 577.356 769.692 583.59 780.423 c 6
 594.924 799.934 l 5
 616.047 799.967 l 5
 637.169 800 l 5
 637.169 741.269 l 5
 637.169 682.538 l 5
 617.65 682.538 l 5
 598.132 682.538 l 5xf3f0
 597.558 710.734 l 5
 596.984 738.932 l 5
 583.833 718.978 l 6
 576.599 708.003 570.46 699.023 570.19 699.023 c 4xe9f0
 569.921 699.023 564.247 707.601 557.583 718.086 c 6
 545.466 737.147 l 5
 544.891 709.844 l 5
 544.316 682.538 l 5
 524.799 682.538 l 5
 505.281 682.538 l 5
 505.281 741.269 l 5
414.608 721.692 m 5xe5f0
 414.608 760.847 l 5
 397.093 760.847 l 5
 379.576 760.847 l 5
 379.576 780.423 l 5
 379.576 800 l 5
 434.186 800 l 5
 488.796 800 l 5
 488.796 780.423 l 5
 488.796 760.847 l 5
 471.279 760.847 l 5
 453.763 760.847 l 5xe3f0
 453.763 721.692 l 5xe5f0
 453.763 682.538 l 5
 434.186 682.538 l 5
 414.608 682.538 l 5xf1f0
 414.608 721.692 l 5xe5f0
249.749 741.269 m 5
 249.749 800 l 5
 269.326 800 l 5
 288.903 800 l 5xf3f0
 288.903 780.423 l 5
 288.903 760.847 l 5
 306.42 760.847 l 5
 323.937 760.847 l 5xe5f0
 323.937 780.423 l 5
 323.937 800 l 5
 343.514 800 l 5
 363.09 800 l 5
 363.09 741.269 l 5
 363.09 682.538 l 5
 343.514 682.538 l 5
 323.937 682.538 l 5xf3f0
 323.937 702.115 l 5
 323.937 721.692 l 5
 306.42 721.692 l 5
 288.903 721.692 l 5xe5f0
 288.903 702.115 l 5
 288.903 682.538 l 5
 269.326 682.538 l 5
 249.749 682.538 l 5xf1f0
 249.749 741.269 l 5
578.918 89.3535 m 4
 620.59 100.859 655.095 110.619 655.596 111.044 c 4
 656.097 111.468 661.221 164.65 666.983 229.227 c 6
 677.461 346.637 l 5
 537.831 346.637 l 5
 398.201 346.637 l 5
 397.238 351.273 l 6
 396.708 353.823 395.279 368.43 394.062 383.73 c 4
 392.846 399.031 391.365 414.564 390.771 418.248 c 6
 389.693 424.945 l 5
 537.13 424.945 l 6
 618.22 424.945 684.577 425.641 684.591 426.491 c 4
 684.604 427.341 685.991 442.874 687.674 461.008 c 4
 689.355 479.143 690.735 495.603 690.74 497.587 c 4
 690.748 500.995 680.252 501.192 499.1 501.192 c 4
 354.387 501.192 307.45 500.604 307.45 498.786 c 4
 307.45 493.689 326.152 283.426 327.17 277.087 c 6
 328.244 270.39 l 5
 461.208 270.39 l 6
 586.849 270.39 594.116 270.19 593.166 266.782 c 4
 592.612 264.799 590.532 243.029 588.543 218.406 c 4
 586.554 193.782 584.389 172.767 583.733 171.706 c 4
 583.077 170.645 563.623 164.649 540.501 158.381 c 6
 498.461 146.986 l 5
 455.725 158.493 l 5
 412.988 170 l 5
 410.395 200.618 l 5
 407.801 231.235 l 5
 369.99 231.235 l 5
 332.179 231.235 l 5
 332.243 223.508 l 6
 332.335 212.392 341.649 111.827 342.663 111.006 c 4
 344.841 109.24 492.562 68.834 497.519 68.6475 c 4
 500.616 68.5322 537.246 77.8506 578.918 89.3535 c 4
372.363 -30.6211 m 4
 288.117 -7.0918 248.556 4.83496 248.207 6.80859 c 4
 247.925 8.40137 235.657 145.56 220.945 311.604 c 4
 206.233 477.648 193.702 616.98 193.099 621.23 c 6
 192 628.959 l 5
 499.256 628.959 l 5
 806.513 628.959 l 5
 805.336 621.23 l 6
 804.688 616.98 792.014 476.722 777.17 309.543 c 4
 762.325 142.365 749.559 5.04297 748.8 4.38281 c 4
 747.327 3.10059 498.778 -65.7783 497.039 -65.3867 c 4
 496.472 -65.2598 440.368 -49.6143 372.363 -30.6211 c 4
EndSplineSet
Validated: 33
EndChar

StartChar: g
Encoding: 103 103 8
Width: 1000
VWidth: 0
Flags: W
HStem: 26.2588 48.2842<902.521 990.956>
LayerCount: 2
Fore
SplineSet
468.806 6.35254 m 4
 386.565 14.0146 298.289 40.1045 229.706 77.0156 c 4
 206.617 89.4424 182.47 101.7 176.045 104.255 c 4
 161.453 110.059 130.845 142.046 120.521 162.282 c 4
 92.0322 218.125 100.474 280.331 139.656 303.293 c 4
 167.094 319.372 195.798 313.745 229.139 285.749 c 4
 237.861 278.426 247.415 272.433 250.368 272.433 c 4
 260.343 272.433 269.007 279.486 271.55 289.676 c 4
 278.315 316.782 299.884 335.236 329.419 339.188 c 4
 337.079 340.214 344.238 341.943 345.327 343.032 c 4
 346.416 344.121 341.312 354.881 333.983 366.944 c 4
 314.99 398.212 297.948 436.666 284.853 477.811 c 4
 266.944 534.076 268.166 534.438 314.003 486.438 c 4
 399.342 397.073 478.936 354.562 569.191 350.142 c 4
 698.302 343.817 795.022 401.742 868.463 529.373 c 4
 877.575 545.208 886.654 557.97 888.64 557.732 c 4
 893.903 557.103 898.345 488.466 896 444 c 4
 892.262 373.106 882.903 353.008 828.968 300.037 c 6
 792.67 264.39 l 5
 787.174 234.459 l 6
 783.549 214.713 774.717 189.194 761.219 159.464 c 4
 749.966 134.679 740.76 112.208 740.76 109.527 c 4
 740.76 104.085 744.948 102.955 785.626 97.4287 c 4
 825.562 92.002 834.856 92.5195 852.716 101.165 c 4
 872.05 110.524 873.948 109.993 947.842 74.543 c 4
 996.167 51.3584 1000.7 48.3936 994.599 43.9336 c 4
 980.534 33.6504 947.08 26.4863 912.062 26.2588 c 4
 878.089 26.0391 876.515 26.4014 855.48 39.3213 c 6
 833.844 52.6104 l 5
 762.661 53.8994 l 5
 691.479 55.1895 l 5
 666.562 41.0547 l 6
 636.957 24.2607 611.555 15.915 566.21 8.09082 c 4
 530.061 1.85254 519.189 1.6582 468.806 6.35254 c 4
526.455 199.482 m 4
 545.291 214.299 547.069 250.639 529.726 266.334 c 4
 511.736 282.614 481.646 274.911 471.873 251.523 c 4
 456.027 213.599 495.978 175.508 526.455 199.482 c 4
367.467 226.911 m 4
 376.589 233.301 383.339 253.718 380.374 265.956 c 4
 379.269 270.522 375.02 277.954 370.931 282.472 c 4
 361.66 292.716 339.45 293.725 330.911 284.29 c 4
 309.363 260.479 321.338 221.327 350.169 221.327 c 4
 355.299 221.327 363.082 223.84 367.467 226.911 c 4
EndSplineSet
Validated: 33
EndChar

StartChar: c
Encoding: 99 99 9
Width: 1000
VWidth: 0
Flags: W
HStem: 174.85 98.6748<507.841 590.576> 350.877 79.2646<413.767 606.416> 506.389 121.075<312.118 693.994> 681.552 32.9717<367.759 421.338 441.945 493.812 569.711 621.07> 766.042 32.9717<367.759 421.338 499.957 549.104 627.038 676.87>
VStem: 326.544 94.7939<681.552 714.523 766.042 799.014> 326.544 41.2148<714.523 766.042> 441.945 109.189<681.552 709.372 770.355 799.014> 569.711 109.22<681.552 710.561 771.194 799.014>
LayerCount: 2
Fore
SplineSet
569.711 697.977 m 5xf980
 569.711 714.4 l 5
 595.391 714.978 l 5
 621.07 715.555 l 5
 595.447 743.374 l 5
 569.825 771.194 l 5
 569.769 785.104 l 5
 569.711 799.014 l 5
 623.291 799.014 l 5
 676.87 799.014 l 5
 676.87 782.528 l 5
 676.87 766.042 l 5
 651.954 766.042 l 5
 627.038 766.042 l 5
 652.984 738.302 l 5
 678.931 710.561 l 5
 678.931 696.056 l 5
 678.931 681.552 l 5
 624.321 681.552 l 5
 569.711 681.552 l 5
 569.711 697.977 l 5xf980
441.945 698.037 m 5
 441.945 714.523 l 5
 467.878 714.523 l 5
 493.812 714.523 l 5
 467.878 742.439 l 5
 441.945 770.355 l 5
 441.945 784.685 l 5
 441.945 799.014 l 5
 495.524 799.014 l 5
 549.104 799.014 l 5
 549.104 782.592 l 5
 549.104 766.169 l 5
 524.53 765.591 l 5
 499.957 765.012 l 5
 525.531 737.191 l 5
 551.104 709.372 l 5
 551.135 695.462 l 5
 551.165 681.552 l 5
 496.555 681.552 l 5
 441.945 681.552 l 5
 441.945 698.037 l 5
326.544 740.283 m 5xfb80
 326.544 799.014 l 5
 373.94 799.014 l 5
 421.338 799.014 l 5
 421.338 782.528 l 5
 421.338 766.042 l 5xfd80
 394.548 766.042 l 5
 367.759 766.042 l 5
 367.759 740.283 l 5
 367.759 714.523 l 5xfb80
 394.548 714.523 l 5
 421.338 714.523 l 5
 421.338 698.037 l 5
 421.338 681.552 l 5
 373.94 681.552 l 5
 326.544 681.552 l 5xfd80
 326.544 740.283 l 5xfb80
581.755 93.0889 m 4
 624.08 104.892 659.289 115.126 659.995 115.832 c 4
 660.701 116.538 664.204 149.757 667.779 189.653 c 4
 671.354 229.549 674.881 268.682 675.614 276.616 c 4
 680.401 328.384 695.408 499.821 695.412 502.782 c 4
 695.416 506.191 684.919 506.389 503.768 506.389 c 6
 312.118 506.389 l 5
 312.18 501.752 l 6
 312.213 499.202 313.577 483.669 315.21 467.235 c 4
 316.843 450.801 318.206 435.731 318.239 433.748 c 4
 318.297 430.348 326.665 430.142 464.613 430.142 c 6
 610.926 430.142 l 5
 610.865 423.443 l 6
 610.831 419.76 609.468 403.3 607.835 386.865 c 4
 606.202 370.432 604.839 355.951 604.806 354.688 c 4
 604.762 353.056 577.152 351.954 509.435 350.877 c 4
 457.015 350.045 413.772 349.025 413.342 348.612 c 4
 412.604 347.904 415.816 307.995 418.517 284.344 c 6
 419.752 273.524 l 5
 508.702 273.524 l 5
 597.652 273.524 l 5
 593.422 224.992 l 6
 590.55 192.045 588.355 175.942 586.587 174.85 c 4
 585.154 173.964 565.555 168.328 543.032 162.325 c 6
 502.083 151.411 l 5
 461.195 162.348 l 6
 438.707 168.363 419.69 173.815 418.937 174.462 c 4
 418.182 175.109 416.327 189.086 414.814 205.521 c 6
 412.064 235.401 l 5
 374.456 235.963 l 5
 336.848 236.523 l 5
 336.945 227.719 l 6
 337.088 214.77 346.203 117.17 347.379 115.993 c 4
 348.216 115.156 500.619 72.0156 503.768 71.7256 c 4
 504.334 71.6729 539.429 81.2861 581.755 93.0889 c 4
378.062 -32.2031 m 4
 310.625 -13.415 254.739 2.61035 253.874 3.40918 c 4
 252.345 4.81934 196.177 626.059 197.462 627.344 c 4
 197.815 627.697 335.748 627.751 503.979 627.464 c 6
 809.853 626.941 l 5
 782 315 l 5
 754.147 3.05859 l 5
 632.563 -30.7432 l 6
 565.693 -49.333 508.662 -64.9531 505.828 -65.4531 c 4
 502.923 -65.9658 447.206 -51.4648 378.062 -32.2031 c 4
EndSplineSet
Validated: 33
EndChar

StartChar: b
Encoding: 98 98 10
Width: 1000
VWidth: 0
Flags: W
HStem: 166.555 206.01<557.402 629.469 630.184 702.834> 437.619 74.9131<192.144 215.837>
LayerCount: 2
Fore
SplineSet
510.558 675.171 m 4
 521.407 676.386 533.164 674.298 545.057 668.271 c 4
 565.575 657.874 805.306 470.189 839.778 437.619 c 4
 887.706 392.337 916.03 341.463 925.533 282.866 c 4
 952.846 114.455 809.708 -36.9131 624.897 -35.5117 c 4
 609.647 -35.3965 588.387 -33.2773 577.585 -31.5684 c 4
 511.771 -21.1631 452.129 8.71973 407.061 54.1865 c 4
 360.389 101.27 334.589 154.498 328.205 216.825 c 4
 326.806 230.486 324.361 241.468 323.276 241.468 c 4
 322.191 241.468 283.237 210.995 236.536 173.455 c 4
 189.835 135.913 146.292 102.518 139.938 99.5283 c 4
 99.5771 80.5381 65.9648 92.6152 61.083 128.113 c 4
 58.3105 148.271 65.6211 166.194 82.7686 182.326 c 4
 87.6387 186.907 149.948 235.979 221.751 291.737 c 4
 363.029 401.447 397.956 429.242 399.175 434.662 c 4
 399.871 437.756 388.895 438.243 305.534 437.619 c 4
 202.612 436.851 204.894 436.823 192.18 450.434 c 4
 176.683 467.024 188.253 497.655 215.837 512.532 c 4
 224.777 517.355 228.739 518 328.205 519.432 c 4
 384.758 520.245 467.732 521.258 512.529 521.403 c 4
 557.511 521.55 594.342 522.255 594.342 523.375 c 4
 594.342 524.49 568.324 546.891 537.172 572.659 c 4
 506.019 598.427 478.583 622.787 476.059 626.872 c 4
 473.534 630.957 471.13 637.859 471.13 642.644 c 4
 471.13 649.798 472.874 653.258 480.987 661.371 c 4
 489.272 669.656 499.708 673.956 510.558 675.171 c 4
624.897 436.634 m 4
 607.941 436.438 591.227 435.041 581.527 432.691 c 4
 520.151 417.819 471.294 375.264 450.431 319.337 c 4
 441.371 295.051 438.513 256.625 444.517 229.639 c 4
 459.012 164.486 514.208 113.951 587.441 97.5566 c 4
 609.508 92.6172 659.33 93.9746 682.067 100.514 c 4
 733.557 115.321 775.83 149.762 797.394 194.154 c 4
 809.023 218.098 813.122 237.722 813.165 265.124 c 4
 813.289 345.753 754.13 415.291 669.254 433.677 c 4
 659.445 435.802 641.854 436.83 624.897 436.634 c 4
629.826 375.521 m 4
 637.45 375.521 645.286 374.708 655.454 372.564 c 4
 698.848 363.413 733.193 332.301 743.181 293.709 c 4
 757.573 238.089 723.791 184.501 663.34 166.555 c 4
 644.368 160.923 610.201 162.087 591.385 168.526 c 4
 549.816 182.75 521.874 213.648 514.501 253.296 c 4
 504.636 306.34 545.287 360.141 604.198 372.564 c 4
 614.367 374.708 622.202 375.521 629.826 375.521 c 4
EndSplineSet
Validated: 33
EndChar

StartChar: m
Encoding: 109 109 11
Width: 1000
VWidth: 0
HStem: -102.839 44.1113<349.389 451.501> 62.6494 18.9756<150.533 281.999 395.807 451.501 527.404 581.879 696.006 828.373> 99.2773 19.417<150.533 828.373> 242.259 57.627<581.586 622.837> 318.06 17.2363<577.38 659.716> 683.562 18.2637<150.533 828.373>
VStem: 131.607 18.9258<81.625 99.2773 118.694 683.562> 206.607 48.9346<138.209 179.871> 252.399 33.9805<368.472 420.26> 259.533 58.0283<546.96 661.302> 315.008 48.0859<154.45 238.547> 356.986 49.2725<504.052 629.468> 429.657 63.9316<493.379 575.526> 451.501 75.9033<-56.793 62.208> 828.373 19.417<81.625 99.2773 118.694 146.708 223.72 683.562>
LayerCount: 2
Fore
SplineSet
683.185 -124.11 m 6xfe06
 677.983 -121.113 678.12 -121.335 658.697 -84.3047 c 4
 651.187 -69.9844 630.83 -31.1602 613.461 1.9707 c 6
 581.879 62.208 l 5
 554.642 62.208 l 5
 527.404 62.208 l 5
 527.404 2.70801 l 5
 527.404 -56.793 l 5
 533.804 -57.3037 l 6
 537.323 -57.585 545.366 -58.2256 551.677 -58.7275 c 4
 598.477 -62.4492 629.787 -70.8174 629.787 -79.6035 c 4
 629.787 -92.627 568.107 -102.839 489.453 -102.839 c 4
 419.896 -102.839 362.262 -94.7988 350.985 -83.5225 c 4
 340.873 -73.4102 372.684 -63.0654 427.229 -58.7275 c 4
 433.54 -58.2256 441.583 -57.585 445.102 -57.3037 c 6
 451.501 -56.793 l 5
 451.501 2.71973 l 5
 451.501 62.2324 l 5
 423.653 62 l 5
 395.807 61.7666 l 5
 373.723 19.8428 l 6
 361.577 -3.21484 345.461 -33.9961 337.91 -48.5586 c 4
 317.604 -87.7236 301.406 -118.062 299.793 -119.954 c 4
 299.01 -120.872 296.383 -122.557 293.956 -123.696 c 6
 289.543 -125.77 l 5
 240.298 -125.778 l 5
 191.053 -125.786 l 5
 188.831 -123.565 l 6
 187.217 -121.951 186.768 -120.806 187.188 -119.373 c 4
 187.844 -117.13 195.969 -101.548 246.199 -6.19336 c 6
 281.999 61.7666 l 5
 209.574 62.208 l 5
 137.148 62.6494 l 5
 134.68 65.4131 l 5
 132.21 68.1768 l 5
 131.607 109.102 l 6
 131.275 131.61 131.129 272.823 131.28 422.907 c 6
 131.557 695.788 l 5
 133.405 698.28 l 6
 134.421 699.65 136.605 701.246 138.259 701.825 c 4
 142.628 703.356 836.277 703.356 840.646 701.825 c 4
 842.3 701.246 844.484 699.65 845.501 698.28 c 6
 847.349 695.788 l 5
 847.79 454.904 l 5
 848.231 214.021 l 5
 869.414 203.55 l 6
 892.856 191.961 896.007 189.558 900.604 179.749 c 4
 902.603 175.488 902.953 173.554 902.953 166.797 c 4
 902.953 160.049 902.602 158.103 900.616 153.868 c 4
 897.769 147.795 892.799 142.664 886.998 139.81 c 4
 883.498 138.087 881.279 137.671 875.592 137.671 c 4
 868.947 137.671 867.937 137.943 858.445 142.295 c 4
 852.898 144.838 848.272 146.824 848.166 146.708 c 4
 848.06 146.592 847.679 128.828 847.32 107.233 c 6
 846.669 67.9707 l 5
 843.787 65.0898 l 5
 840.906 62.208 l 5
 768.444 62.208 l 6
 728.59 62.208 695.982 62.0625 695.982 61.8838 c 4
 695.982 61.6025 721.477 13.1162 776.604 -91.4453 c 4
 784.705 -106.812 791.304 -120.359 791.304 -121.625 c 4
 791.304 -126.744 792.091 -126.67 737.489 -126.661 c 6
 687.598 -126.652 l 5
 683.185 -124.11 l 6xfe06
828.373 90.4512 m 5
 828.373 99.2773 l 5
 489.453 99.2773 l 5
 150.533 99.2773 l 5
 150.533 90.4512 l 5
 150.533 81.625 l 5
 489.453 81.625 l 5
 828.373 81.625 l 5
 828.373 90.4512 l 5
828.334 137.892 m 5
 828.295 157.088 l 5
 755.739 192.104 l 6
 715.834 211.364 682.36 227.355 681.353 227.641 c 4
 679.888 228.055 677.029 225.769 667.093 216.233 c 4
 660.258 209.674 654.478 204.308 654.248 204.308 c 4
 654.019 204.308 647.358 211.232 639.448 219.695 c 4
 631.02 228.714 624.168 235.31 622.895 235.629 c 4
 621.7 235.929 617.953 237.543 614.567 239.217 c 4
 611.181 240.89 608.07 242.259 607.655 242.259 c 4
 605.816 242.259 589.05 255.829 583.363 261.92 c 4
 569.323 276.957 555.193 303.156 547.175 329.023 c 6
 545.587 334.147 l 5
 544.045 331.143 l 6
 542.061 327.274 536.956 322.812 531.862 320.492 c 4
 528.956 319.169 525.705 318.604 520.099 318.452 c 4
 512.632 318.249 512.269 318.143 510.052 315.508 c 4
 505.212 309.756 491.926 304.908 481.104 304.945 c 4
 470.802 304.981 461.321 308.185 455.702 313.528 c 4
 454.373 314.793 453.146 315.658 452.976 315.451 c 4
 452.806 315.244 451.968 312.492 451.114 309.337 c 4
 445.738 289.473 438.262 270.377 430.725 257.264 c 4
 424.023 245.604 414.481 232.511 410.949 230.131 c 4
 401.819 223.978 388.928 226.104 379.467 235.324 c 6
 375.834 238.864 l 5
 375.215 229.75 l 6
 373.498 204.5 368.905 179.688 363.094 164.273 c 4
 360.396 157.117 359.822 156.276 356.18 154.131 c 4
 350.47 150.769 341.859 150.806 334.9 154.224 c 4
 325.322 158.928 316.235 171.595 315.008 181.953 c 4xfe2a
 314.709 184.481 315.267 192.043 316.336 199.944 c 4
 318.672 217.213 319.824 232.732 320.427 255.057 c 4
 320.689 264.766 321.114 276.864 321.371 281.942 c 4
 321.628 287.021 321.628 290.966 321.37 290.709 c 4
 321.113 290.451 319.111 275.374 316.921 257.203 c 4
 311.161 209.405 305.294 176.631 301.342 170.168 c 4
 298.935 166.232 294.245 162.32 290.421 161.058 c 4
 278.889 157.252 261.727 164.925 255.761 176.553 c 6
 254.059 179.871 l 5
 253.47 177.526 l 6
 253.064 175.912 253.711 173.048 255.542 168.341 c 4
 257.005 164.579 258.2 160.11 258.198 158.412 c 4
 258.191 153.939 254.554 146.808 250.63 143.572 c 4
 238.454 133.537 214.405 137.475 206.607 150.78 c 4
 203.498 156.086 201.581 168.551 201.187 186.033 c 4
 200.943 196.821 200.277 203.108 198.24 213.835 c 4
 193.439 239.115 190.958 260.323 189.286 290.381 c 4
 188.173 310.403 188.725 375.352 190.208 398.922 c 4
 190.667 406.203 191.855 439.565 192.85 473.061 c 4
 195.048 547.139 196.389 575.502 199.069 604.654 c 4
 200.333 618.4 203.196 625.18 210.537 631.812 c 4
 216.854 637.519 221.11 638.989 231.31 638.989 c 4
 239.539 638.989 240.567 638.786 246.094 636.066 c 4
 249.359 634.458 252.032 632.866 252.032 632.529 c 4
 252.032 632.192 251.622 630.53 251.121 628.834 c 4
 243.872 604.311 236.757 568.505 233.063 537.958 c 4
 230.993 520.837 231.575 520.356 235.231 536.166 c 4
 241.356 562.646 247 581.607 259.533 617.808 c 4
 270.404 649.206 274.678 657.41 282.569 662.035 c 4
 285.354 663.667 287.682 664.304 290.774 664.28 c 4
 300.34 664.206 305.776 659.724 312.143 646.662 c 4
 316.236 638.263 316.833 636.302 317.562 628.84 c 4xff42
 318.77 616.466 317.774 588.159 315.636 574.059 c 4
 313.32 558.792 309.204 538.442 302.349 508.364 c 4
 292.377 464.61 288.496 443.199 286.38 420.26 c 4
 284.985 405.142 285.816 376.835 288.107 361.411 c 4
 289.081 354.857 290.312 344.531 290.841 338.463 c 4
 292.503 319.419 292.386 319.503 296.31 334.491 c 4
 298.215 341.772 307.285 375.93 316.466 410.396 c 4
 340.572 500.902 347.947 529.617 350.922 544.551 c 4
 352.373 551.833 355.102 565.337 356.986 574.56 c 4
 361.302 595.68 362.573 604.122 362.397 610.507 c 4
 362.065 622.58 369.751 629.723 383.073 629.723 c 4
 392.849 629.723 401.1 625.352 404.719 618.256 c 4
 407.117 613.555 408.712 600.49 408.598 586.475 c 4
 408.518 576.719 408.094 573.04 406.259 566.175 c 4
 403.211 554.775 391.188 520.938 382.736 499.979 c 4
 363.146 451.393 355.643 408.021 360.6 372.002 c 4
 361.034 368.847 361.674 360.308 362.021 353.026 c 6
 362.651 339.787 l 5
 364.216 345.083 l 6
 365.075 347.995 368.819 360.705 372.535 373.326 c 4
 388.912 428.957 408.289 482.249 429.657 530.43 c 4
 443.122 560.789 468.256 610.305 470.202 610.305 c 4
 470.732 610.305 474.037 607.387 477.547 603.819 c 4
 487.963 593.233 492.706 581.582 493.589 564.409 c 4xfe9a
 494.366 549.293 491.979 538.901 482.844 517.632 c 4
 481.071 513.506 477.59 505.363 475.107 499.538 c 4
 472.625 493.713 465.065 477.429 458.308 463.352 c 4
 432.232 409.03 423.849 387.195 418.845 360.566 c 4
 417.017 350.839 415.031 332.274 415.742 331.562 c 4
 416.245 331.06 415.362 328.642 425.457 358.179 c 4
 440.678 402.713 445.74 414.999 458.673 438.791 c 4
 469.462 458.641 476.414 467.418 483.785 470.498 c 4
 491.732 473.819 503.306 470.318 510.623 462.38 c 4
 516.312 456.208 518.077 451.516 518.061 442.61 c 4
 518.043 433.758 516.178 426.5 509.832 410.593 c 4
 506.02 401.039 499.161 376.688 499.161 372.71 c 4
 499.161 371.653 500.556 371.176 505.042 370.695 c 4
 518.479 369.257 527.825 365.388 535.506 358.085 c 4
 539.013 354.75 540.373 353.871 540.036 355.158 c 4
 539.771 356.17 539.752 356.998 539.992 356.998 c 4
 540.232 356.998 546.593 352.856 554.126 347.794 c 4
 573.912 334.499 582.812 332.352 605.93 335.296 c 4
 619.255 336.993 637.556 337.062 646.557 335.45 c 4
 669.293 331.378 686.76 317.273 693.812 297.289 c 4
 694.985 293.964 695.958 290.449 695.975 289.479 c 4
 695.999 288.022 707.162 282.296 759.627 256.822 c 4
 794.619 239.832 824.401 225.434 825.811 224.825 c 6
 828.373 223.72 l 5
 828.373 453.641 l 5
 828.373 683.562 l 5
 489.453 683.562 l 5
 150.533 683.562 l 5
 150.533 401.128 l 5
 150.533 118.694 l 5
 489.453 118.694 l 5
 828.373 118.694 l 5
 828.334 137.892 l 5
749.821 229.018 m 6
 749.821 238.724 l 5
 722.364 252.457 l 6
 707.263 260.011 694.852 266.069 694.782 265.92 c 4
 692.027 259.907 688.412 253.546 687.051 252.313 c 4
 685.31 250.737 685.874 250.406 716.444 235.057 c 4
 733.588 226.45 748.111 219.386 748.718 219.359 c 4
 749.536 219.324 749.821 221.815 749.821 229.018 c 6
252.399 368.472 m 4xfe82
 254.072 403.052 258.861 467.263 262.177 499.538 c 4
 262.813 505.737 261.359 502.138 258.612 490.712 c 4
 254.581 473.954 253.584 464.631 253.653 444.376 c 4
 253.714 426.531 253.485 423.742 249.818 397.598 c 4
 247.675 382.307 245.46 365.062 244.898 359.276 c 4
 243.652 346.443 244.274 321.017 246.131 308.896 c 4
 246.874 304.042 248.209 292.325 249.096 282.859 c 6
 250.708 265.648 l 5
 251.245 310.661 l 6
 251.54 335.418 252.06 361.433 252.399 368.472 c 4xfe82
661.034 303.929 m 6
 663.598 306.628 l 5
 661.476 308.445 l 6
 650.8 317.591 625.653 321.155 593.646 318.06 c 4
 582.326 316.965 579.262 315.832 577.287 312.014 c 4
 572.864 303.462 579.794 296.854 590.952 298.982 c 4
 593.137 299.399 603.662 299.806 614.342 299.886 c 4
 634.279 300.035 641.683 299.128 648.138 295.746 c 4
 650.367 294.578 650.713 294.694 654.483 297.87 c 4
 656.677 299.717 659.625 302.443 661.034 303.929 c 6
EndSplineSet
Validated: 33
EndChar

StartChar: M
Encoding: 77 77 12
Width: 1000
VWidth: 0
Flags: HW
HStem: 736.925 35.1318<45.5798 118.436>
VStem: 746.822 57.0264<-29.6973 1.46271>
LayerCount: 2
Fore
SplineSet
805.133 -50.2852 m 4
 741.304 -37.0195 558.933 27.0342 497.372 57.8096 c 4
 467.066 72.96 391.479 136.964 369.479 166.104 c 4
 363.464 174.069 352.574 192.203 345.279 206.399 c 6
 332.016 232.212 l 5
 328.73 207.95 l 6
 324.037 173.287 321.564 165.181 313.826 159.094 c 4
 298.674 147.175 285.445 149.125 269.655 165.604 c 4
 255.955 179.902 242.139 208.701 236.056 235.639 c 4
 228.322 269.882 229.707 318.35 239.617 360.322 c 4
 244.003 378.895 248.381 396.569 249.346 399.599 c 4
 250.621 403.603 249.004 407.507 243.429 413.886 c 4
 228.513 430.949 203.57 489.103 192.162 533.41 c 4
 187.512 551.47 180.042 565.005 157.235 596.7 c 4
 137.082 624.707 131.408 636.641 129.48 655.08 c 4
 128.015 669.108 128.548 671.717 134.816 681.189 c 4
 144.36 695.611 155.477 701.886 171.445 701.863 c 4
 196.071 701.828 226.157 688.887 258.4 664.459 c 4
 277.203 650.215 277.868 649.95 294.854 649.95 c 4
 322.242 649.95 363.253 635.818 391.188 616.753 c 4
 463.022 567.73 510.387 518.946 553.25 449.834 c 4
 566.972 427.71 573.645 413.2 591.429 366.815 c 4
 599.499 345.767 642.467 250.407 646.994 243.497 c 4
 649.2 240.131 665.765 230.212 685.209 220.614 c 4
 720.562 203.164 739.153 190.475 778.917 156.656 c 4
 801.976 137.044 824.731 110.743 824.731 103.703 c 4
 824.731 99.8906 805.255 93.4639 784.47 90.417 c 4
 764.236 87.4512 720.832 77.1611 720.83 75.3301 c 4
 720.827 70.4258 739.125 53.6504 758.141 41.125 c 4
 769.764 33.4697 785.541 21.5693 793.199 14.6816 c 4
 809.727 -0.182617 840.354 -36.3076 846.492 -48.1777 c 6
 850.841 -56.5869 l 5
 842.332 -56.417 l 6
 837.652 -56.3232 820.913 -53.5645 805.133 -50.2852 c 4
320.155 559.124 m 4
 330.096 578.518 327.169 596.58 311.751 610.986 c 4
 299.148 622.762 268.854 617.724 268.854 603.854 c 4
 268.854 601.802 272.81 595.501 277.646 589.852 c 4
 282.481 584.202 290.25 570.837 294.909 560.151 c 4
 302.979 541.644 303.639 540.888 308.846 544.223 c 4
 311.852 546.147 316.94 552.854 320.155 559.124 c 4
EndSplineSet
Validated: 33
EndChar

StartChar: I
Encoding: 73 73 13
Width: 1000
VWidth: 0
Flags: HW
HStem: -44.04 51.0723<747.558 800.47> 29.7207 47.9189<780.948 881.834>
LayerCount: 2
Fore
SplineSet
678.892 263.31 m 5
 678.938 263.311 l 5
 382.314 263.32 l 5
 382.314 262.752 l 6
 382.314 237.342 388.724 213.305 399.906 192.37 c 4
 425.048 145.997 474.19 114.445 530.613 114.445 c 4
 587.035 114.445 636.177 145.997 661.318 192.37 c 5
 843.974 192.36 l 5
 798.437 59.415 672.746 -36.0557 524.437 -36.0557 c 4
 469.341 -36.0557 417.367 -22.8828 371.438 0.512695 c 5
 272.682 -47.8496 186.694 -55.8574 139.244 -8.43164 c 4
 76.792 53.9902 134.813 294.229 318.775 478.137 c 4
 325.018 484.376 362.021 521.167 368.366 527.111 c 5
 298.603 493.562 246.388 447.487 196.743 383.939 c 5
 233.459 530.667 366.202 639.558 524.437 639.558 c 4
 533.14 639.558 541.738 639.215 550.267 638.573 c 5
 665.547 689.608 767.526 695.758 805.54 657.909 c 4
 845.523 617.656 846.584 550.329 816.723 471.004 c 5
 845.6 421.238 862.141 363.469 862.141 301.864 c 4
 862.141 288.723 861.574 275.896 860.172 263.31 c 5
 678.892 263.31 l 5
382.529 352.416 m 5
 666.308 352.416 l 5
 662.128 426.997 600.104 486.496 524.419 486.496 c 4
 448.733 486.496 386.728 426.997 382.529 352.416 c 5
803.869 620.415 m 4
 803.849 620.425 l 5
 775.15 649.123 718.875 645.196 649.672 615.531 c 5
 714.4 589.645 769.225 544.311 806.942 486.783 c 5
 828.955 546.522 829.624 594.392 803.869 620.415 c 4
186.845 3.41797 m 4
 186.826 3.41797 l 5
 216.807 -26.5352 276.787 -20.877 350.066 12.3896 c 5
 283.883 52.374 232.55 114.444 206.208 188.367 c 5
 163.895 105.25 153.993 36.2686 186.845 3.41797 c 4
EndSplineSet
Validated: 33
EndChar

StartChar: p
Encoding: 112 112 14
Width: 1000
VWidth: 0
HStem: 53.4463 90.3682<605.491 660.126> 249.926 103.618<275.675 346.878 700.861 763.222> 393.867 117.733<306.769 399.237 509.465 612.498 654.29 713.823> 460.012 51.5889<455.731 505.62>
VStem: 275.657 84.9404<263.592 351.351> 488.853 74.3555<241.777 351.026>
LayerCount: 2
Fore
SplineSet
467.131 53.4463 m 4xdc
 275.649 62.5322 114.667 132.776 68.2627 227.493 c 4
 54.417 255.753 51.1914 283.887 58.4639 312.951 c 4
 73.751 374.041 137.194 429.534 234.874 467.259 c 4
 294.994 490.477 366.09 505.761 441.138 511.601 c 4
 491.044 515.484 550.132 514.819 599.593 509.818 c 4
 721.608 497.481 827.951 460.496 895.494 406.908 c 4
 908.203 396.824 927.604 377.306 935.793 366.363 c 4
 950.769 346.354 959.72 327.225 964.006 306.067 c 4
 965.408 299.147 965.639 295.864 965.625 283.04 c 4
 965.611 270.123 965.383 267.018 963.946 260.251 c 4
 959.222 237.987 948.128 215.362 932.46 196.032 c 4
 926.179 188.283 912.182 174.004 903.647 166.638 c 4
 852.716 122.683 773.164 87.9531 680 69 c 4
 639.537 60.7695 596.036 55.4785 551.521 53.374 c 4
 534.534 52.5713 484.69 52.6143 467.131 53.4463 c 4xdc
241.382 176.926 m 5
 247.787 210.036 l 5
 275.24 210.04 l 6
 290.34 210.043 307.005 210.377 312.272 210.783 c 4
 344.18 213.243 364.071 221.546 383.709 240.599 c 4
 401.467 257.828 411.806 277.456 416.34 302.547 c 4
 418.12 312.395 418.488 331.703 417.027 338.589 c 4
 410.633 368.73 391.308 385.789 356.391 392.112 c 4
 350.424 393.193 342.507 393.369 289.271 393.601 c 4
 256.074 393.744 228.914 393.604 228.913 393.287 c 4
 228.911 392.972 227.007 382.938 224.68 370.992 c 4
 222.353 359.046 217.211 332.606 213.254 312.239 c 4
 193.045 208.22 181.08 146.855 180.728 145.416 c 6
 180.334 143.814 l 5
 207.655 143.814 l 5
 234.977 143.814 l 5
 241.382 176.926 l 5
255.628 250.815 m 4
 255.803 251.306 260.294 274.14 265.607 301.557 c 4
 270.921 328.975 275.443 351.992 275.657 352.706 c 4
 276.026 353.938 277.421 353.989 303.577 353.717 c 4
 328.939 353.452 331.572 353.309 336.989 351.895 c 4
 351.227 348.177 358.394 341.342 360.598 329.378 c 4
 363.017 316.248 359.195 295.178 351.616 279.854 c 4
 348.233 273.015 346.695 270.795 342.19 266.247 c 4
 333.867 257.845 322.579 252.864 306.92 250.686 c 4
 298.78 249.554 255.216 249.663 255.628 250.815 c 4
666.525 176.931 m 5
 672.924 210.045 l 5
 700.388 210.045 l 6
 715.493 210.045 732.162 210.377 737.431 210.783 c 4
 770.322 213.319 789.634 221.637 810.062 242.064 c 4
 826.486 258.488 836.014 276.138 840.67 298.766 c 4
 851.091 349.414 830.533 382.767 783.329 391.795 c 4
 775.833 393.229 772.881 393.306 714.893 393.58 c 6
 654.29 393.867 l 5xec
 649.231 368.009 l 6
 644.911 345.93 625.616 246.71 610.618 169.452 c 4
 608.223 157.113 606.089 146.297 605.877 145.416 c 6
 605.491 143.814 l 5
 632.809 143.815 l 5
 660.126 143.817 l 5
 666.525 176.931 l 5
683.066 262.21 m 6
 684.39 268.966 688.936 292.281 693.167 314.02 c 6
 700.861 353.544 l 5
 728.208 353.538 l 6
 754.222 353.53 755.863 353.452 761.883 351.926 c 4
 774.253 348.788 781.397 343.169 784.523 334.118 c 4
 785.954 329.979 786.169 328.029 786.115 319.717 c 4
 785.963 296.265 776.858 273.218 763.573 262.66 c 4
 756.151 256.762 744.839 252.461 732.077 250.686 c 4
 729.07 250.268 716.271 249.926 703.634 249.926 c 6
 680.659 249.926 l 5
 683.066 262.21 l 6
461.356 211.291 m 4
 461.785 212.718 488.853 351.984 488.853 352.764 c 4
 488.853 353.046 501.751 353.165 517.517 353.028 c 4
 545.033 352.791 546.374 352.717 551 351.172 c 4
 560.231 348.09 563.319 343.284 563.208 332.18 c 4
 563.155 326.989 561.023 314.917 551.991 268.665 c 4
 545.857 237.257 540.84 211.219 540.84 210.802 c 4
 540.84 210.28 549.366 210.045 568.258 210.045 c 4
 583.786 210.045 595.676 210.318 595.676 210.678 c 4
 595.676 211.026 600.774 237.545 607.006 269.609 c 4
 613.238 301.673 618.729 330.589 619.207 333.867 c 4
 620.427 342.219 619.751 355.024 617.755 361.378 c 4
 612.284 378.792 598.742 387.674 570.929 392.089 c 4
 564.878 393.051 556.321 393.393 530.124 393.721 c 6
 496.976 394.137 l 5
 503.2 425.829 l 6
 506.623 443.259 509.442 458.08 509.465 458.766 c 4
 509.502 459.932 507.765 460.012 482.618 460.012 c 6
 455.731 460.012 l 5xdc
 452.749 444.522 l 6
 448.265 421.224 416.002 255.296 411.552 232.639 c 4
 409.414 221.76 407.666 212.227 407.666 211.452 c 4
 407.666 210.075 408.248 210.045 434.324 210.045 c 4
 459.095 210.045 461.009 210.133 461.356 211.291 c 4
EndSplineSet
Validated: 33
EndChar

StartChar: P
Encoding: 80 80 15
Width: 1000
VWidth: 0
Flags: HW
LayerCount: 2
Fore
SplineSet
438.505 -61.4248 m 4
 392.841 -52.2773 364.697 -34.6201 348.143 -4.73242 c 6
 338.858 12.0303 l 5
 338.858 121.405 l 5
 338.858 230.78 l 5
 347.577 248.535 l 6
 357.03 267.785 370.596 281.422 391.289 292.48 c 4
 404.05 299.299 407.978 299.582 510.733 301.093 c 6
 616.983 302.655 l 5
 634.853 311.03 l 6
 659.793 322.721 682.154 344.67 694.354 369.438 c 6
 704.483 390 l 5
 705.546 453.623 l 5
 706.609 517.246 l 5
 757.108 516.165 l 6
 801.615 515.212 809.092 514.285 820.108 508.354 c 4
 834.222 500.754 851.888 483.012 861.611 466.672 c 4
 870.733 451.342 882.724 408.077 887.404 373.606 c 4
 894 325.021 885.553 252.875 868.847 215.108 c 4
 859.51 194.001 834.156 169.011 811.429 158.512 c 6
 791.983 149.53 l 5
 641.202 148.609 l 5
 490.421 147.688 l 5
 490.421 132.203 l 5
 490.421 116.718 l 5
 582.608 116.718 l 5
 674.796 116.718 l 5
 674.796 64.1602 l 6
 674.796 3.1875 671.201 -14.0596 655.351 -29.124 c 4
 634.679 -48.7705 605.071 -58.3887 546.888 -64.3604 c 4
 502.365 -68.9287 471.835 -68.1025 438.505 -61.4248 c 4
621.911 16.4775 m 4
 641.782 36.3486 628.71 72.9678 601.746 72.9678 c 4
 586.676 72.9678 575.192 67.1748 569.874 56.8896 c 4
 557.417 32.8008 572.412 7.55078 599.255 7.41211 c 4
 610.086 7.35645 614.594 9.16016 621.911 16.4775 c 4
202.637 121.572 m 4
 161.359 134.288 135.548 181.755 124.581 265.117 c 4
 118.326 312.661 128.128 386.483 145.258 420.847 c 4
 156.462 443.324 178.336 464.601 201.014 475.081 c 6
 220.108 483.905 l 5
 370.89 484.801 l 5
 521.671 485.695 l 5
 521.671 501.207 l 5
 521.671 516.718 l 5
 429.483 516.718 l 5
 337.296 516.718 l 5
 337.296 566.564 l 6
 337.296 593.979 338.785 623.354 340.605 631.842 c 4
 344.699 650.929 360.241 669.903 379.367 679.161 c 4
 401.246 689.753 447.146 697.872 496.671 699.91 c 4
 535.228 701.497 546.587 700.817 572.86 695.35 c 4
 611.021 687.409 633.864 676.141 651.449 656.581 c 4
 674.517 630.926 675.241 626.101 674.17 505.286 c 6
 673.233 399.53 l 5
 664.025 382.909 l 6
 653.744 364.348 640.465 351.461 620.803 340.96 c 4
 608.045 334.146 604.09 333.861 501.358 332.347 c 6
 395.108 330.78 l 5
 375.478 321.715 l 6
 350.361 310.117 325.039 283.505 315.07 258.232 c 4
 308.698 242.075 307.81 233.6 306.711 178.437 c 6
 305.48 116.718 l 5
 261.232 116.936 l 6
 232.525 117.077 211.944 118.705 202.637 121.572 c 4
430.593 564.921 m 4
 448.733 574.302 452.437 602.058 437.536 616.958 c 4
 430.134 624.36 425.723 626.093 414.273 626.093 c 4
 394.579 626.093 384.109 616.737 381.904 597.168 c 4
 380.372 583.58 381.056 581.708 391.274 571.49 c 4
 403.521 559.242 415.683 557.211 430.593 564.921 c 4
EndSplineSet
Validated: 33
EndChar

StartChar: s
Encoding: 115 115 16
Width: 1000
VWidth: 0
LayerCount: 2
Fore
SplineSet
804.683 749.188 m 5
 804.683 749.188 959.681 579.227 957.346 577.599 c 4
 955.559 576.352 918.477 536.035 875.337 488.02 c 4
 789.997 393.033 727.532 325.37 715.103 313.907 c 4
 710.758 309.9 701.404 303.628 694.916 301.29 c 4
 678.573 295.401 625.79 266.662 576.317 236.944 c 4
 534.014 211.533 400.496 126.383 382.019 113.299 c 4
 376.417 109.333 369.402 107.049 366.878 106.991 c 4
 361.298 106.863 349.061 118.283 349.215 123.393 c 4
 349.276 125.421 415.926 194.316 496.832 276.057 c 6
 644.448 424.936 l 5
 655.804 419.889 l 6
 678.789 411.65 701.44 417.192 715.103 433.767 c 4
 733.014 455.496 730.369 480.93 710.056 500.636 c 4
 701.537 508.9 697.325 512.646 688.607 514.515 c 4
 665.026 519.572 642.168 510.023 631.832 489.281 c 4
 624.812 475.194 624.202 462.117 629.309 447.646 c 6
 633.094 438.813 l 5
 532.158 335.355 l 6
 476.458 278.72 408.68 211.771 382.019 185.215 c 6
 334.074 136.01 l 5
 325.242 143.58 l 6
 321.313 147.344 318.935 152.209 318.935 153.673 c 4
 318.935 155.137 326.729 165.439 335.336 177.646 c 4
 402.444 272.817 508.935 450.604 528.374 499.375 c 4
 533.251 511.612 537.521 517.744 546.037 524.608 c 4
 614.299 579.627 775.691 720.203 800.897 746.664 c 6
 804.683 749.188 l 5
511.972 705.029 m 4
 544.584 705.029 576.392 700.133 606.598 692.412 c 6
 451.411 546.057 l 5
 265.943 151.15 l 5
 347.953 57.7852 l 5
 740.336 223.065 l 5
 740.336 223.065 822.532 302.14 889.215 371.944 c 5
 891.18 356.281 893 340.197 893 324 c 4
 893 113.935 722.037 -55.7656 511.972 -55.7656 c 4
 301.906 -55.7656 132.205 113.935 132.205 324 c 4
 132.205 534.066 301.906 705.029 511.972 705.029 c 4
EndSplineSet
Validated: 33
EndChar

StartChar: S
Encoding: 83 83 17
Width: 1000
VWidth: 0
Flags: HW
LayerCount: 2
Fore
SplineSet
513.138 668.343 m 4
 513.174 668.354 l 5
 716.752 668.354 881.788 503.309 881.788 299.739 c 4
 881.788 96.1602 716.744 -68.875 513.174 -68.875 c 4
 309.595 -68.875 144.56 96.168 144.56 299.739 c 4
 144.56 467.995 257.305 609.914 411.36 654.096 c 4
 411.307 654.857 411.307 655.619 411.333 656.353 c 4
 399.148 659.474 390.342 667.146 388.16 677.39 c 4
 384.576 694.246 399.909 711.298 423.082 716.212 c 4
 427.085 717.049 431.136 717.494 435.12 717.494 c 4
 453.574 717.494 467.896 708.428 470.774 694.932 c 4
 473.014 684.41 467.849 673.795 457.995 666.104 c 4
 458.266 665.52 458.534 664.934 458.757 664.34 c 4
 476.498 666.968 494.653 668.343 513.138 668.343 c 4
400.17 679.935 m 5
 400.17 679.924 l 5
 401.35 674.342 406.978 670.023 414.787 668.13 c 5
 418.178 673.758 423.779 678.059 430.734 679.533 c 4
 437.683 681.029 444.593 679.358 449.998 675.549 c 5
 456.387 680.37 459.974 686.584 458.747 692.36 c 4
 457.15 699.901 447.426 705.187 435.109 705.187 c 4
 431.989 705.187 428.793 704.843 425.627 704.185 c 4
 409.756 700.82 398.078 689.713 400.17 679.935 c 5
710.78 102.084 m 4
 763.592 154.866 792.663 225.072 792.663 299.729 c 4
 792.663 312.407 791.799 324.936 790.154 337.299 c 5
 728.744 345.554 l 5
 781.556 378.117 l 5
 768.579 422.718 744.541 463.611 710.78 497.372 c 4
 657.997 550.183 587.791 579.254 513.138 579.254 c 4
 500.459 579.254 487.931 578.391 475.567 576.747 c 5
 467.31 515.335 l 5
 434.747 568.146 l 5
 390.148 555.17 349.252 531.135 315.492 497.372 c 4
 262.681 444.591 233.612 374.383 233.612 299.729 c 4
 233.612 287.05 234.474 274.521 236.118 262.159 c 5
 297.528 253.903 l 5
 244.72 221.34 l 5
 257.693 176.74 281.731 135.847 315.492 102.084 c 4
 368.275 49.2754 438.481 20.2031 513.138 20.2031 c 4
 525.813 20.2031 538.345 21.0674 550.705 22.7109 c 5
 558.963 84.1221 l 5
 591.526 31.3115 l 5
 636.127 44.2861 677.021 68.3232 710.78 102.084 c 4
704.271 490.862 m 5
 704.299 490.862 l 5
 589.343 339.583 l 6
 589.658 339.018 589.957 338.432 590.254 337.838 c 6
 681.422 335.479 l 5
 599.123 296.255 l 5
 598.678 284.906 595.976 273.751 591.108 263.377 c 5
 626.494 226.095 l 5
 578.031 243.269 l 5
 570.535 234.593 561.443 227.59 551.244 222.575 c 5
 548.885 131.453 l 5
 509.664 213.752 l 5
 496.958 214.272 484.503 217.661 473.246 223.532 c 5
 321.967 108.576 l 5
 436.921 259.857 l 6
 436.605 260.424 436.308 261.007 436.013 261.604 c 6
 344.815 263.963 l 5
 427.113 303.183 l 5
 427.559 314.534 430.262 325.688 435.128 336.062 c 5
 399.742 373.344 l 5
 448.207 356.172 l 5
 455.729 364.846 464.793 371.849 474.993 376.863 c 5
 477.352 467.987 l 5
 516.575 385.687 l 5
 529.278 385.168 541.733 381.777 552.989 375.908 c 5
 704.271 490.862 l 5
513.211 376.102 m 5
 513.211 376.102 l 5
497.803 371.831 m 5
 497.839 371.831 l 5
 458.006 363.378 432.565 324.229 441.046 284.396 c 4
 442.048 279.657 443.496 275.136 445.317 270.836 c 5
 487.066 325.78 l 5
 542.012 367.53 l 5
 535.921 370.168 529.428 371.961 522.721 372.843 c 5
 522.721 372.815 l 5
 522.648 372.843 l 6
 519.556 373.262 516.407 373.457 513.211 373.457 c 4
 508.121 373.457 502.967 372.936 497.803 371.831 c 5
551.617 236.842 m 5
 551.607 236.784 l 5
 577.51 252.639 591.917 283.604 585.23 315.008 c 4
 584.226 319.744 582.778 324.268 580.957 328.567 c 5
 539.207 273.62 l 5
 484.262 231.872 l 5
 490.354 229.263 496.845 227.47 503.553 226.588 c 6
 503.598 226.588 l 6
 506.719 226.197 509.867 225.975 513.062 225.975 c 4
 518.152 225.975 523.307 226.495 528.472 227.6 c 4
 536.895 229.393 544.659 232.587 551.617 236.842 c 5
 551.617 236.842 l 5
 551.617 236.842 l 5
EndSplineSet
Validated: 37
EndChar

StartChar: y
Encoding: 121 121 18
Width: 1000
VWidth: 0
HStem: 185.937 82.6562<107.125 193.335 815.479 900.812>
LayerCount: 2
Fore
SplineSet
484.375 729.218 m 4
 498.017 729.239 512.12 728.975 526.688 728.437 c 4
 661.765 723.444 743.1 695.802 816.219 630.062 c 4
 873.639 578.437 872.438 607.003 827.781 354.718 c 4
 821.745 320.615 815.195 287.286 813.219 280.655 c 4
 809.99 269.823 815.706 268.593 869.406 268.593 c 6
 929.156 268.593 l 5
 924.5 250.03 l 6
 921.938 239.819 915.546 221.211 910.312 208.687 c 6
 900.812 185.937 l 5
 503.969 185.937 l 5
 107.125 185.937 l 5
 97.625 208.687 l 6
 92.3916 221.211 86 239.819 83.4375 250.03 c 6
 78.7812 268.593 l 5
 138.219 268.593 l 6
 196.281 268.593 197.57 268.95 194.219 284.093 c 4
 175.582 368.283 142.687 575.932 146.219 587.062 c 4
 155.264 615.56 207.616 663.279 254.562 685.843 c 4
 315.422 715.092 388.882 729.068 484.375 729.218 c 4
406.75 123.593 m 4
 430.681 123.434 453.705 118.499 473.531 108.405 c 6
 503.969 92.9053 l 5
 534.969 108.905 l 6
 561.011 122.345 573.678 124.458 614.188 122.062 c 4
 670.949 118.703 708.813 101.654 749.25 61.2178 c 4
 778.236 32.2305 817.438 -24.8545 817.438 -38.0635 c 4
 817.438 -53.0117 765.937 -70.9619 713.781 -74.2197 c 4
 670.603 -76.917 655.806 -74.8896 626.281 -62.1885 c 4
 586.281 -44.9814 524.788 15.124 513.219 48.3115 c 6
 505.906 69.249 l 5
 492.25 41.6553 l 6
 472.645 2.02832 429.229 -39.9756 388.031 -59.1572 c 4
 342.437 -80.3867 278.617 -81.21 226.688 -61.251 c 4
 206.795 -53.6055 190.5 -43.6484 190.5 -39.126 c 4
 190.5 -25.6377 236.674 38.7627 267.75 68.624 c 4
 304.912 104.332 357.749 123.919 406.75 123.593 c 4
EndSplineSet
Validated: 33
EndChar

StartChar: l
Encoding: 108 108 19
Width: 1000
VWidth: 0
HStem: -128.102 31.7061<308.664 396.158 648.205 719.355> -85.665 49.6455<436.975 571.29> -85.5957 13.4883<601.683 611.609> 62.0195 10.1201<164.938 203.7> 440.415 9.76758<428.951 484.884> 519.688 6.34668<482.294 497.236>
VStem: 154.468 19.8271<-33.374 31.9909> 297.729 27.7246<150.926 233.067> 383.142 17.833<473.994 501.281 516.045 583.653> 622.214 9.67578<34.6289 106.796> 658.45 44.4873<162.738 298.204> 791.635 7.18262<81.9548 84.8389>
LayerCount: 2
Fore
SplineSet
355.503 -128.102 m 4xdff0
 346.092 -126.858 331.041 -121.787 302.141 -110.12 c 4
 271.394 -97.707 256.236 -93.3223 216.066 -85.2158 c 4
 193.868 -80.7363 164.134 -73.1377 158.518 -70.5098 c 4
 152.441 -67.666 149.043 -64.9648 146.636 -61.0654 c 4
 145.128 -58.623 144.848 -57.0371 144.844 -50.9336 c 4
 144.84 -44.2412 145.166 -42.7471 149.192 -31.0225 c 4
 151.586 -24.0508 153.96 -15.6582 154.468 -12.373 c 4
 155.924 -2.94531 154.991 7.94727 151.774 19.0879 c 4
 147.246 34.7734 146.372 42.4336 148.066 51.6016 c 4
 149.681 60.3291 153.735 66.5029 159.973 69.7246 c 4
 163.31 71.4492 164.844 71.6152 182.273 72.1396 c 4
 192.567 72.4502 202.244 73.0518 203.777 73.4775 c 4
 216.932 77.1289 223.367 84.4844 230.021 103.474 c 4
 233.007 111.995 235.251 115.857 237.216 115.857 c 4
 241.057 115.857 241.418 104.976 238.008 92.0078 c 4
 234.304 77.9199 230.499 71.0781 223.865 66.5693 c 4
 216.916 61.8477 200.946 59.8408 187.658 62.0195 c 4
 177.196 63.7344 168.331 63.6865 164.767 61.8955 c 4
 163.242 61.1299 161.146 59.249 160.11 57.7158 c 4
 156.963 53.0615 157.879 47.8486 164.634 31.9961 c 4
 172.068 14.5449 174.312 6.51562 174.295 -2.57324 c 4
 174.269 -16.1455 171.69 -23.3809 162.007 -37.0625 c 4
 154.069 -48.2764 154.143 -52.2793 162.361 -56.3643 c 4
 166.514 -58.4277 229.687 -74.6123 282.627 -87.1748 c 4
 293.798 -89.8252 310.643 -93.9746 320.061 -96.3955 c 4
 341.938 -102.02 348.841 -103.24 358.805 -103.249 c 4
 377.141 -103.265 388.612 -96.7021 395.752 -82.1133 c 4
 399.46 -74.5361 401.025 -68.8193 402.158 -58.7256 c 4
 404.009 -42.2285 398.271 -24.1826 383.718 -0.726562 c 4
 375.944 11.8008 341.573 63.4873 332.143 76.8311 c 4
 306.363 113.305 287.576 132.969 274.329 137.34 c 4
 269.576 138.909 262.318 138.053 255.946 135.171 c 4
 247.432 131.32 244.837 131.4 243 135.569 c 4
 241.919 138.025 241.679 141.528 241.647 155.282 c 6
 241.609 172.008 l 5
 244.245 179.574 l 6
 245.695 183.735 250.162 193.412 254.172 201.078 c 4
 269.198 229.805 276.119 245.487 288.97 279.928 c 4
 302.054 314.998 305.153 320.615 328.609 351.773 c 4
 336.097 361.721 347.677 378.028 354.342 388.013 c 4
 361.007 397.998 369.412 410.289 373.02 415.326 c 4
 376.628 420.364 380.793 426.636 382.275 429.265 c 6
 384.973 434.043 l 5
 384.907 445.592 l 6
 384.871 451.943 384.076 472.91 383.142 492.185 c 4
 378.534 587.19 378.741 609.415 384.481 635.715 c 4
 394.587 682.016 423.157 708.628 469.796 715.183 c 4
 486.144 717.48 512.724 716.962 529.158 714.025 c 4
 571.37 706.48 602.986 684.527 619.438 651.338 c 4
 628.324 633.413 631.435 616.057 635.043 564.265 c 4
 638.88 509.187 642.133 488.384 649.758 470.158 c 4
 651.527 465.928 657.139 454.638 662.229 445.069 c 4
 684.622 402.966 693.049 389.706 719.096 355.592 c 4
 737.84 331.041 747.539 316.164 756.651 297.987 c 4
 771.756 267.854 778.921 245.444 786.361 205.061 c 4
 792.406 172.249 793.448 154.785 790.107 142.276 c 4
 786.625 129.235 781.879 122.009 766.577 106.448 c 4
 740.917 80.3545 721.855 69.6064 703.158 70.6865 c 4
 694.701 71.1748 689.281 73.1924 682.296 78.4521 c 4
 671.796 86.3574 660.983 103.264 658.175 116.168 c 6
 657.674 118.469 l 5
 652.6 117.995 l 6
 643.919 117.185 639.509 114.313 635.866 107.103 c 4
 632.555 100.547 631.892 95.2344 631.89 75.2383 c 4
 631.888 57.3145 631.995 55.998 634.423 44.1758 c 4
 641.665 8.91016 642.052 -0.897461 637.435 -32.2842 c 4
 632.49 -65.9014 634.158 -74.9922 647.747 -88.4922 c 4
 657.536 -98.2168 666.509 -101.873 680.459 -101.823 c 4
 694.886 -101.771 704.155 -97.7539 720.681 -84.3955 c 4
 743.992 -65.5498 757.471 -56.2461 769.95 -50.3848 c 4
 773.613 -48.665 786.157 -44.1133 797.826 -40.2705 c 4
 827.503 -30.498 837.255 -25.707 846.401 -16.4082 c 4
 862.014 -0.53418 854.924 11.2363 825.017 19.0957 c 4
 819.103 20.6494 812.347 22.8828 810.004 24.0596 c 4
 799.986 29.0879 792.268 42.3926 788.772 60.6592 c 4
 786.392 73.1025 787.694 88.1201 791.635 93.6543 c 4
 795.451 99.0127 797.926 95.1943 798.817 82.5762 c 4
 799.779 68.9551 801.257 64.2949 807.64 54.7588 c 4
 814.194 44.9678 823.604 36.4316 839.269 26.0703 c 4
 859.758 12.5176 864.84 6.60547 864.84 -3.68164 c 4
 864.84 -12.9326 860.848 -17.6016 841.917 -30.4932 c 4
 826.07 -41.2852 818.37 -45.6562 803.033 -52.5664 c 4
 788.47 -59.1289 777.826 -64.9297 765.934 -72.7871 c 4
 753.603 -80.9336 746.39 -86.9648 731 -102 c 4
 713.092 -119.495 706.392 -123.535 690.721 -126.285 c 4
 683.023 -127.637 657.787 -126.919 650.193 -125.133 c 4
 633.976 -121.318 623.853 -113.979 616.609 -100.78 c 4
 608.552 -86.0996 609.341 -86.4473 582.146 -85.5957 c 4xbff0
 552.304 -84.6611 479.873 -84.7041 464.22 -85.665 c 4
 445.122 -86.8379 430.702 -90.0186 420.017 -95.417 c 4
 414.528 -98.1895 405.547 -104.578 396.69 -112.012 c 4
 385.248 -121.614 379.84 -125.146 373.658 -127.056 c 4
 368.777 -128.563 361.968 -128.956 355.503 -128.102 c 4xdff0
432.003 -71.0107 m 4
 437.5 -62.7324 438.515 -52.3066 434.854 -41.7217 c 4
 432.806 -35.7959 431.437 -33.7109 425.438 -27.3838 c 4
 422.676 -24.4697 420.415 -21.7217 420.415 -21.2764 c 4
 420.415 -20.832 420.215 -19.9473 419.971 -19.3105 c 4
 419.315 -17.6035 421.777 -15.5586 424.485 -15.5586 c 4
 427.758 -15.5586 432.133 -17.9521 438.07 -22.9883 c 4
 451.146 -34.0801 462.246 -36.8613 490.085 -36.0195 c 4xdff0
 538.446 -34.5566 565.118 -24.833 583.756 -1.86816 c 4
 587.005 2.13477 591.314 7.4248 593.333 9.8877 c 4
 597.906 15.4668 603.316 18.5801 606.495 17.4619 c 4
 610.666 15.9951 611.97 12.2695 611.916 1.96387 c 4
 611.872 -6.48145 611.573 -8.2373 608.089 -20.541 c 4
 601.899 -42.3916 599.668 -56.3096 601.184 -63.6113 c 4
 602.316 -69.0684 605.066 -72.1074 608.871 -72.1074 c 4
 611.976 -72.1074 611.792 -72.6074 613.562 -59.3643 c 4
 614.234 -54.3262 615.308 -47.1582 615.947 -43.4346 c 4
 620.309 -18.0186 622.023 14.46 622.214 75.2383 c 4
 622.317 108.205 622.322 108.304 624.238 113.069 c 4
 628.717 124.211 634.933 128.171 649.453 129.135 c 6
 656.677 129.614 l 5
 657.519 134.527 l 6
 660.087 149.521 673.801 157.323 697.454 157.245 c 4
 708.195 157.21 713.384 156.074 724.021 151.433 c 4
 728.705 149.389 733.096 147.716 733.777 147.716 c 4
 739.397 147.716 723.502 160.968 713.291 164.796 c 4
 708.943 166.425 708.307 166.933 708.101 168.933 c 4
 707.972 170.187 709.322 176.946 711.102 183.955 c 4
 715.792 202.429 716.977 212.718 716.418 230.149 c 4
 715.711 252.246 711.694 266.884 699.592 291.477 c 4
 688.771 313.465 678.374 329.664 667.792 341.023 c 4
 662.209 347.016 654.132 353.327 650.691 354.385 c 4
 648.45 355.073 648.287 355.392 654.972 346.035 c 4
 666.443 329.979 680.862 306.15 689.36 289.207 c 4
 701.342 265.315 707.398 240.131 707.488 213.822 c 4
 707.539 198.929 706.517 191.854 702.938 182.361 c 4
 698.504 170.601 691.896 163.541 683.905 162.025 c 4
 677.15 160.745 666.715 161.051 664.079 162.608 c 4
 659.373 165.388 659.096 167.303 658.45 201.477 c 4
 658.128 218.561 657.678 233.435 657.451 234.53 c 4
 657.224 235.625 656.626 239.567 656.122 243.291 c 4
 653.324 263.974 645.886 282.547 626.297 317.76 c 4
 617.641 333.32 615.853 337.589 612.285 351.211 c 4
 604.469 381.058 596.955 398.923 586.231 413.156 c 4
 575.539 427.35 571.73 434.187 569.694 442.85 c 4
 567.92 450.398 568.656 458.236 572.249 470.028 c 4
 576.031 482.441 576.508 488.072 574.185 492.873 c 4
 571.584 498.244 567.355 500.577 550.259 506.074 c 4
 526.567 513.693 516.024 519.796 511.93 528.261 c 4
 510.419 531.384 510.115 533.335 510.103 539.973 c 4
 510.077 553.718 514.087 562.413 522.488 566.828 c 4
 527.381 569.398 538.487 569.38 544.221 566.791 c 4
 549.87 564.24 553.075 561.558 555.597 557.269 c 4
 557.647 553.778 557.8 552.919 557.734 545.149 c 4
 557.678 538.364 557.267 535.584 555.555 530.415 c 4
 554.394 526.91 553.439 523.299 553.434 522.39 c 4
 553.419 520.033 556.601 517.359 560.991 516.038 c 4
 569.178 513.574 573.717 517.753 575.79 529.659 c 4
 577.667 540.434 575.637 554.443 569.737 571.433 c 4
 563.144 590.424 556.105 595.727 533.774 598.526 c 4
 523.395 599.828 515.798 597.635 509.352 591.475 c 4
 502.378 584.811 495.221 568.645 493.954 556.698 c 4
 493.629 553.632 493.396 550.943 493.435 550.725 c 4
 493.474 550.506 493.758 545.936 494.065 540.569 c 6
 494.625 530.813 l 5
 492.267 530.813 l 6
 490.969 530.813 488.339 531.379 486.422 532.07 c 4
 484.198 532.872 478.547 533.529 470.809 533.885 c 4
 462.727 534.256 458.343 534.779 457.667 535.453 c 4
 457.019 536.101 456.6 539.105 456.505 543.794 c 4
 456.023 567.459 452.738 579.15 444.25 587.419 c 4
 434.961 596.467 420.407 595.639 411.092 585.533 c 4
 404.49 578.371 402.098 571.486 401.521 557.992 c 4
 400.674 538.132 405.589 518.192 412.604 513.032 c 4
 414.631 511.541 414.859 511.527 416.776 512.783 c 4
 418.567 513.957 423.573 521.486 423.594 523.037 c 4
 423.598 523.359 422.262 524.183 420.625 524.867 c 4
 414.874 527.27 412.014 531.32 409.643 540.418 c 4
 407.887 547.156 408.296 558.093 410.424 561.322 c 4
 412.238 564.077 417.456 567.656 421.298 568.78 c 4
 424.419 569.693 429.88 569.098 433.293 567.47 c 4
 438.422 565.025 445.171 551.868 445.719 543.247 c 4
 446.406 532.418 444.908 529.953 430.763 518.629 c 4
 418.884 509.12 410.536 502.196 407.753 499.543 c 4
 404.303 496.256 401.068 489.28 400.975 484.928 c 4
 400.877 480.418 402.979 477.705 409.107 474.427 c 4
 411.806 472.983 415.081 470.475 416.385 468.852 c 4
 417.688 467.229 420.31 463.937 422.211 461.534 c 4
 429.182 452.724 435.964 450.057 451.078 450.183 c 4
 466.686 450.312 485.959 454.253 506.224 461.459 c 4
 537.613 472.622 543.41 475 545.689 477.652 c 4
 546.911 479.074 548.752 481.224 549.779 482.428 c 4
 553.499 486.789 559.796 484.661 559.796 479.043 c 4
 559.796 473.608 554.728 470.902 525.946 460.973 c 4
 518.937 458.555 507.647 453.949 500.857 450.737 c 4
 494.067 447.526 485.286 443.891 481.344 442.657 c 4
 474.188 440.419 474.139 440.415 451.477 440.415 c 4
 436.945 440.415 428.74 440.128 428.673 439.618 c 4
 428.497 438.283 430.086 436.662 437.141 430.978 c 4
 445.395 424.326 449.446 422.22 456.497 420.913 c 4
 463.091 419.69 469.302 420.263 478.869 422.972 c 4
 490.284 426.204 521.99 440.244 539.757 449.934 c 4
 546.833 453.792 550.272 454.4 553.246 452.316 c 4
 555.522 450.723 555.605 446.555 553.416 443.771 c 4
 551.455 441.279 546.179 438.248 538.355 435.12 c 4
 530.664 432.045 528.004 430.492 510.415 418.804 c 4
 502.311 413.419 491.738 405.591 486.919 401.408 c 4
 474.98 391.045 472.159 389.733 460.715 389.229 c 4
 452.267 388.855 451.4 388.961 447.227 390.872 c 4
 444.773 391.995 440.905 394.642 438.631 396.753 c 4
 433 401.979 422.958 414.67 419.355 421.111 c 4
 415.666 427.707 407.289 436.767 406.036 435.514 c 4
 405.56 435.037 404.512 431.638 403.708 427.959 c 4
 401.618 418.396 397.618 408.764 386.885 387.45 c 4
 374.716 363.285 373.973 360.396 374.096 337.743 c 4
 374.196 319.391 374.136 319.16 366.422 308.367 c 4
 357.395 295.737 352.375 285.994 343.358 263.601 c 4
 336.972 247.737 332.348 233.663 330.44 224.281 c 4
 326.97 207.211 324.809 180.58 325.453 162.839 c 4
 325.995 147.937 323.662 143.986 316.346 147.416 c 4
 311.081 149.884 301.297 160.691 297.729 167.981 c 4
 291.187 181.347 290.498 202.125 295.87 224.07 c 4
 297.16 229.343 297.615 232.604 297.127 233.092 c 4
 295.411 234.809 290.086 223.537 287.774 213.293 c 4
 285.775 204.434 285.367 187.597 286.958 179.574 c 4
 290.531 161.547 295.863 151.396 308.875 137.844 c 4
 317.569 128.789 345.088 103.916 363.069 88.8604 c 4
 376.434 77.6709 381.092 73.9395 399.723 59.5029 c 4
 411.982 50.002 418.524 41.8994 421.278 32.8057 c 4
 423.047 26.9629 422.277 20.3945 419.212 15.1621 c 4
 416.212 10.0439 408.959 3.75293 401.436 -0.255859 c 6
 395.035 -3.66602 l 5
 403.942 -15.9609 l 6
 418.933 -36.6553 425.087 -48.1875 426.752 -58.7051 c 4
 427.621 -64.1934 426.967 -71.9561 425.266 -76.3438 c 6
 424.395 -78.5889 l 5
 426.838 -76.8496 l 6
 428.183 -75.8926 430.506 -73.2656 432.003 -71.0107 c 4
442.893 515.327 m 4
 440.464 517.029 440.521 521.181 442.999 522.979 c 4
 447.472 526.226 458.262 526.804 457.687 523.767 c 4
 457.518 522.873 456.46 522.369 454.395 522.199 c 4
 451.8 521.985 451.189 521.558 450.242 519.292 c 4
 448.982 516.275 447.04 514.088 445.624 514.088 c 4
 445.096 514.088 443.866 514.646 442.893 515.327 c 4
488.213 519.688 m 4
 483.102 521.524 481.742 522.544 481.742 524.539 c 4
 481.742 525.889 482.427 526.034 488.787 526.034 c 4
 494.855 526.034 496.034 525.811 497.295 524.417 c 4
 498.452 523.139 498.601 522.347 498.002 520.634 c 4
 497.032 517.861 494.087 517.576 488.213 519.688 c 4
323.071 296.965 m 4
 330.711 304.922 332.213 307.568 332.295 313.204 c 4
 332.361 317.796 331.274 319.273 328.424 318.469 c 4
 325.796 317.728 324.3 315.319 322.887 309.555 c 4
 321.773 305.01 320.815 303.247 317.22 299.124 c 4
 312.408 293.607 311.488 290.282 314.774 290.282 c 4
 316.093 290.282 318.576 292.282 323.071 296.965 c 4
631.216 434.043 m 4
 632.18 435.795 633.415 438.896 633.96 440.933 c 4
 635.412 446.36 634.029 447.988 623.814 452.88 c 4
 617.777 455.771 614.061 458.188 610.424 461.59 c 4
 607.654 464.181 605.011 466.3 604.549 466.3 c 4
 603.226 466.3 602.627 463.353 603.207 459.695 c 4
 603.5 457.853 605.134 453.424 606.839 449.855 c 4
 610.007 443.225 614.84 438.062 623.076 432.512 c 4
 627.171 429.753 629.049 430.106 631.216 434.043 c 4
437.112 537.133 m 4
 438.327 539.402 438.126 542.501 436.363 548.665 c 4
 434.716 554.427 431.272 560.282 429.531 560.282 c 4
 427.069 560.282 425.99 559.223 425.99 556.805 c 4
 425.99 555.166 426.537 553.952 427.564 553.311 c 4
 429.75 551.945 431.997 547.224 433.154 541.565 c 4
 433.692 538.937 434.292 536.518 434.488 536.189 c 4
 435.117 535.136 436.265 535.548 437.112 537.133 c 4
548.956 539.253 m 4
 552.272 540.525 550.936 552.153 546.951 556.691 c 4
 543.784 560.299 538.382 562.839 534.55 562.523 c 4
 530.65 562.201 530.245 559.628 533.91 558.457 c 4
 538.836 556.884 543.855 550.002 545.101 543.114 c 4
 545.929 538.533 546.248 538.214 548.956 539.253 c 4
554.716 647.229 m 4
 560.628 651.105 561.372 651.374 567.594 651.881 c 4
 571.226 652.176 574.618 652.84 575.134 653.355 c 4
 576.699 654.92 573.51 659.634 567.77 664.238 c 4
 561.226 669.488 557.965 671.148 554.806 670.838 c 4
 551.339 670.497 549.762 667.414 548.568 658.645 c 4
 547.762 652.717 547.201 651.024 545.331 648.86 c 4
 542.798 645.93 542.662 645.433 544.025 644.069 c 4
 545.783 642.312 548.395 643.083 554.716 647.229 c 4
EndSplineSet
Validated: 33
EndChar

StartChar: f
Encoding: 102 102 20
Width: 1000
VWidth: 0
Flags: H
HStem: -51.6016 40.3887<290.069 435.281> 604.883 88.0508<537.045 637.185>
VStem: 139.232 307.104<140.436 246.395 337.01 444.102>
LayerCount: 2
Fore
SplineSet
536.726 701.883 m 4
 563.95 701.879 568.9 701.547 591.299 698.385 c 4
 658.214 688.945 721.534 660.387 776.593 614.82 c 4
 788.117 605.281 811.482 581.929 821.437 569.976 c 4
 872.741 508.373 902.336 435.929 908.161 357.69 c 4
 909.176 344.06 909.176 315.226 908.161 301.595 c 4
 899.2 181.277 832.375 72.8398 728.534 10.1445 c 4
 716.022 2.58984 693.767 -8.70117 679.998 -14.5059 c 4
 654.104 -25.418 621.327 -34.6191 593.216 -38.8438 c 4
 567.734 -42.6738 578.533 -42.4512 402.93 -42.6523 c 4
 263.49 -42.8105 238.296 -42.6738 233.232 -41.748 c 4
 216.422 -38.6797 202.023 -31.1777 189.319 -18.8203 c 4
 178.132 -7.9375 170.595 4.88281 166.251 20.3555 c 6
 164.135 27.9121 l 5
 163.88 185.595 l 6
 163.72 294.072 163.902 347.092 164.473 355.435 c 4
 170.603 445.19 208.586 528.594 272.519 592.765 c 4
 329.451 649.91 402.36 686.781 481.391 698.385 c 4
 502.037 701.418 509.341 701.887 536.726 701.883 c 4
644.687 613.832 m 4
 641.67 613.818 638.657 613.719 635.69 613.522 c 4
 591.47 610.578 552.961 593.351 522.285 562.785 c 4
 499.273 539.853 483.282 511.258 475.836 479.726 c 4
 471.343 460.705 471.321 460.049 470.984 400.729 c 6
 470.674 345.959 l 5
 430.738 345.931 l 6
 387.513 345.922 387.054 345.897 378.393 341.701 c 4
 372.753 338.967 363.294 329.519 360.626 323.961 c 4
 348.94 299.615 362.548 271.486 388.687 265.947 c 4
 392.71 265.094 401.179 264.84 427.552 264.818 c 4
 461.133 264.793 461.325 264.799 464.328 263.099 c 4
 466 262.152 468.107 260.031 469.065 258.358 c 6
 470.787 255.344 l 5
 470.562 206.072 l 5
 470.308 156.801 l 5
 468.276 149.385 l 6
 460.868 122.469 443.924 101.412 419.992 89.3672 c 4
 401.69 80.1543 384.531 77.875 356.423 80.9062 c 4
 335.907 83.1211 323.852 79.6523 313.837 68.6934 c 4
 307.866 62.1621 304.991 55.2852 304.248 45.7383 c 4
 303.337 34.0586 306.915 25.2383 316.432 15.7578 c 4
 323.539 8.67773 329.695 5.16211 340.009 2.24805 c 4
 346.53 0.40625 356.71 -1.6582 362.375 -2.26367 c 4
 369.702 -3.04883 391.742 -2.66406 400.307 -1.61523 c 4
 415.911 0.296875 429.638 3.95312 446.137 10.625 c 4
 496.23 30.877 535.555 77.0039 548.459 130.656 c 4
 552.862 148.974 552.819 148.613 553.169 208.892 c 6
 553.507 264.733 l 5
 594.569 264.988 l 5
 635.662 265.215 l 5
 640.711 267.188 l 6
 657.729 273.785 667.871 288.187 667.871 305.769 c 4
 667.871 322.933 657.986 337.178 641.443 343.844 c 4
 637.246 345.535 636.479 345.553 599.985 345.931 c 6
 562.757 346.326 l 5
 559.543 348.469 l 6
 553.234 352.646 553.436 350.877 553.422 401.295 c 4
 553.409 449.445 553.697 454.078 557.596 466.5 c 4
 570.899 508.894 612.61 535.854 657.267 530.943 c 4
 672.405 529.279 685.192 529.113 690.573 530.519 c 4
 708.762 535.274 720.187 549.646 720.187 567.748 c 4
 720.187 582.06 712.625 594.402 698.64 602.861 c 4
 687.388 609.668 665.805 613.929 644.687 613.832 c 4
EndSplineSet
Validated: 33
EndChar

StartChar: k
Encoding: 107 107 21
Width: 1000
VWidth: 0
Flags: H
LayerCount: 2
Fore
SplineSet
462.683 -81.5127 m 4
 331.657 -69.3271 213.905 5.18652 146.999 118.25 c 4
 70.7363 247.128 70.7363 406.214 146.999 535.092 c 4
 181.705 593.741 232.513 644.549 291.162 679.255 c 4
 420.04 755.519 579.126 755.519 708.004 679.255 c 4
 777.488 638.137 837.294 572.531 870.5 501 c 4
 928.086 376.948 921.29 235.062 852.167 118.25 c 4
 817.461 59.6006 766.653 8.79297 708.004 -25.9131 c 4
 634.144 -69.6201 547.047 -89.3594 462.683 -81.5127 c 4
536.958 -30.7598 m 4
 644.518 -19.0791 740.378 39.4189 800.178 129.871 c 4
 869.159 234.21 877.852 370.27 822.755 483.291 c 4
 762.124 607.667 637.406 685.831 499.583 685.831 c 4
 361.76 685.831 237.042 607.667 176.411 483.291 c 4
 97.4775 321.371 151.441 126.133 302.783 26.0762 c 4
 325.026 11.3701 360.634 -5.93945 385.87 -14.3135 c 4
 407.055 -21.3428 437.768 -28.1367 459.403 -30.5791 c 4
 478.125 -32.6924 518.298 -32.7861 536.958 -30.7598 c 4
449.153 77.5811 m 4
 446.105 80.7119 446.631 83.2725 451.368 88.376 c 4
 460.909 98.6543 460.922 98.7285 461.555 152.831 c 4
 461.877 180.342 461.866 205.803 461.53 209.411 c 6
 460.919 215.971 l 5
 457.327 208.591 l 6
 453.918 201.587 453.733 199.056 453.699 158.928 c 4
 453.66 112.95 453.159 109.856 444.435 101.669 c 4
 431.178 89.2275 397.903 84.2227 397.903 94.6699 c 4
 397.903 95.9922 402.287 100.479 407.645 104.64 c 4
 421.845 115.666 422.503 117.743 422.503 151.492 c 6
 422.503 179.997 l 5
 407.333 178.781 l 6
 366.947 175.546 344.271 187.306 329.082 219.363 c 4
 320.281 237.938 312.749 247.834 300.779 256.551 c 4
 285.324 267.806 286.213 273.39 303.453 273.343 c 4
 317.143 273.306 326.457 267.607 339.683 251.176 c 4
 355.103 232.021 365.1 222.708 372.674 220.446 c 4
 382.032 217.652 405.431 217.921 415.596 220.939 c 4
 423.47 223.278 424.169 223.918 425.905 230.369 c 4
 428.512 240.06 431.64 245.62 438.931 253.531 c 6
 445.24 260.376 l 5
 430.888 262.331 l 6
 399.801 266.564 367.275 279.387 347.883 295.054 c 4
 339.099 302.149 323.908 319.875 322.188 325.036 c 4
 321.686 326.543 315.367 326.564 294.558 325.129 c 4
 259.189 322.689 237.131 319.577 205.423 312.552 c 4
 181.047 307.15 173.366 306.522 175.585 310.111 c 4
 176.91 312.257 214.649 321.096 238.823 324.923 c 4
 262.842 328.726 292.487 331.577 308.087 331.585 c 6
 319.13 331.591 l 5
 316.491 337.124 l 5
 313.853 342.657 l 5
 295.608 341.987 l 6
 259.82 340.674 221.3 338.034 201.923 335.567 c 4
 191.099 334.19 180.767 332.916 178.963 332.737 c 4
 173.948 332.238 175.011 336.915 180.23 338.312 c 4
 193.03 341.734 269.705 347.937 299.692 347.975 c 6
 312.183 347.991 l 5
 309.136 358.979 l 6
 304.894 374.277 302.216 403.413 303.438 420.971 c 4
 305.378 448.821 310.854 462.228 331.829 490.481 c 4
 333.396 492.592 333.283 496.098 331.293 507.084 c 4
 327.55 527.744 329.38 549.073 336.604 568.98 c 4
 338.957 575.463 339.556 575.949 345.148 575.927 c 4
 361.081 575.862 387.947 565.571 410.834 550.766 c 6
 422.428 543.266 l 5
 434.436 546.337 l 6
 463.284 553.715 518.46 554.892 552.07 548.846 c 6
 567.658 546.042 l 5
 576.54 551.278 l 6
 604.729 567.898 627.124 576.406 640.668 575.64 c 6
 649.641 575.131 l 5
 653.621 565.291 l 6
 657.03 556.86 657.618 552.632 657.722 535.771 c 4
 657.788 524.947 657.288 512.398 656.61 507.887 c 4
 655.388 499.751 655.456 499.578 664.662 487.387 c 4
 679.904 467.202 686.98 448.772 689.713 422.143 c 4
 691.406 405.646 689.662 375.939 685.962 358.241 c 6
 683.819 347.991 l 5
 705.271 347.975 l 6
 746.88 347.943 821.885 340.425 824.611 336.012 c 4
 826.949 332.229 823.258 331.743 809.332 333.998 c 4
 801.571 335.254 787.928 337.108 779.013 338.118 c 4
 760.399 340.228 689.368 343.074 684.85 341.892 c 4
 683.188 341.458 681.136 339.112 680.287 336.68 c 6
 678.746 332.257 l 5
 708.475 330.312 l 6
 767.05 326.479 830.273 314.055 823.855 307.637 c 4
 823.161 306.942 814.434 308.384 804.461 310.839 c 4
 774.897 318.118 739.679 322.748 690.576 325.812 c 6
 675.749 326.737 l 5
 672.318 319.733 l 6
 657.482 289.444 622.015 269.994 568.05 262.552 c 6
 553.696 260.573 l 5
 560.044 254.672 l 6
 575.301 240.486 578.168 226.124 578.245 163.491 c 6
 578.302 117.57 l 5
 590.692 105.957 l 6
 602.032 95.3281 602.846 94.1455 600.271 92.0166 c 4
 595.829 88.3438 577.492 89.2207 567.703 93.5752 c 4
 548.281 102.214 547.634 104.226 545.926 161.2 c 4
 544.85 197.131 543.989 208.614 542.162 211.461 c 4
 540.859 213.49 539.205 215.151 538.485 215.151 c 4
 537.767 215.151 537.391 190.612 537.65 160.621 c 6
 538.123 106.091 l 5
 543.043 98.1445 l 6
 545.749 93.7744 549.07 88.4307 550.423 86.2686 c 4
 553.392 81.5264 551.229 76.8623 545.678 76.0381 c 4
 540.393 75.2529 522.332 84.2715 515.495 91.1084 c 4
 505.706 100.897 503.989 109.119 503.637 147.911 c 4
 502.934 225.358 503.231 220.071 499.583 220.071 c 4
 496.381 220.071 496.302 218.967 496.271 173.741 c 4
 496.236 124.304 494.905 108.83 489.836 98.8936 c 4
 486.382 92.123 477.789 83.8457 470.069 79.8535 c 4
 463.063 76.2314 451.672 74.9932 449.153 77.5811 c 4
561.558 277.588 m 4
 589.11 280.629 611.539 290.317 624.055 304.584 c 4
 648.401 332.339 647.174 386.713 621.669 410.223 c 4
 604.647 425.912 590.938 428.376 538.123 425.237 c 4
 514.462 423.831 495.998 423.864 461.402 425.376 c 4
 412.163 427.527 404.557 426.94 389.896 419.852 c 4
 378.924 414.548 367.397 402.236 361.396 389.414 c 4
 352.345 370.071 353.233 342.741 363.586 322.022 c 4
 375.599 297.984 404.868 281.68 443.295 277.622 c 4
 462.455 275.599 543.317 275.575 561.558 277.588 c 4
412.262 330.803 m 4
 402.969 336.013 397.748 353.352 401.174 367.632 c 4
 406.723 390.763 428.033 394.235 437.433 373.54 c 4
 443.249 360.735 440.169 340.776 431.138 332.751 c 4
 426.528 328.654 417.718 327.745 412.262 330.803 c 4
575.843 329.861 m 4
 563.75 334.811 557.984 358.064 565.013 373.54 c 4
 571.642 388.134 584.436 391.74 593.918 381.687 c 4
 612.487 361.998 598.102 320.751 575.843 329.861 c 4
EndSplineSet
Validated: 33
EndChar

StartChar: a
Encoding: 97 97 22
Width: 1000
VWidth: 0
Flags: H
LayerCount: 2
Fore
SplineSet
312.075 81.0693 m 1
 312.075 150.444 l 1
 327.699 150.444 l 2
 336.291 150.444 344.428 148.655 345.778 146.47 c 0
 347.421 143.812 350.698 143.812 355.663 146.47 c 0
 366.12 152.066 392.033 151.187 400.239 144.957 c 0
 409.096 138.232 419.137 114.218 419.024 100.027 c 0
 418.977 93.9609 415.466 81.3486 411.223 72 c 0
 402.064 51.8223 382.236 41.2637 360.988 45.249 c 2
 347.754 47.7324 l 1
 347.754 29.7129 l 1
 347.754 11.6943 l 1
 329.915 11.6943 l 1
 312.075 11.6943 l 1
 312.075 81.0693 l 1
377.262 79.9697 m 0
 391.254 99.9463 379.098 127.762 358.126 123.753 c 0
 348.229 121.861 347.754 120.609 347.754 96.4648 c 2
 347.754 71.1582 l 1
 359.422 71.1582 l 2
 366.985 71.1582 373.262 74.2578 377.262 79.9697 c 0
443.201 53.6719 m 0
 416.257 76.3447 433.625 107.244 476.313 112.577 c 0
 488.459 114.095 498.397 116.958 498.397 118.939 c 0
 498.397 127.489 465.867 128.533 445.87 120.625 c 0
 440.062 118.328 438.933 120.141 438.933 131.757 c 0
 438.933 148.838 442.565 150.444 481.188 150.444 c 0
 508.742 150.444 511.741 149.603 522.488 138.856 c 0
 533.763 127.582 534.076 126.188 534.076 87.3203 c 2
 534.076 47.373 l 1
 516.236 47.373 l 2
 506.425 47.373 498.397 49.0508 498.397 51.1025 c 0
 498.397 53.1533 493.491 52.2725 487.495 49.1445 c 0
 471.299 40.6953 456.87 42.1699 443.201 53.6719 c 0
490.729 71.2979 m 0
 499.223 75.8438 501.687 95.709 493.441 93.1689 c 0
 490.717 92.3291 483.581 90.5674 477.585 89.2539 c 0
 461.485 85.7256 463.198 69.1162 479.827 67.5078 c 0
 481.606 67.335 486.512 69.041 490.729 71.2979 c 0
583.293 49.043 m 0
 563.759 57.5488 553.897 73.1924 553.897 95.6758 c 0
 553.897 132.548 573.285 150.444 613.23 150.444 c 0
 641.085 150.444 649.04 145.569 649.04 128.501 c 0
 649.04 113.53 643.998 111.336 631.435 120.838 c 0
 621.49 128.359 609.443 128.231 598.387 120.487 c 0
 591.636 115.759 589.576 110.384 589.576 97.4941 c 0
 589.576 88.2422 591.717 78.5322 594.333 75.916 c 0
 600.941 69.3076 626.117 69.959 635.398 76.9785 c 0
 647.055 85.7949 649.04 84.4268 649.04 67.582 c 0
 649.04 53.7949 647.683 51.6396 636.556 47.7607 c 0
 619.966 41.9775 598.325 42.499 583.293 49.043 c 0
817.222 50.9209 m 0
 791.129 62.7725 781.327 91.623 793.498 120.753 c 0
 801.187 139.152 820.551 150.411 844.542 150.43 c 0
 877.418 150.455 894.591 135.88 894.738 107.828 c 2
 894.826 90.9805 l 1
 858.724 90.9805 l 2
 827.431 90.9805 822.941 90.1445 825.027 84.709 c 0
 826.351 81.2607 827.434 77.8311 827.434 77.0879 c 0
 827.434 76.3457 833.459 73.749 840.823 71.3184 c 0
 851.407 67.8262 857.847 68.165 871.547 72.9355 c 0
 894.771 81.0234 894.826 81.0068 894.826 65.8398 c 0
 894.826 53.8955 893.318 52.1406 879.5 48 c 0
 857.603 41.4395 835.853 42.46 817.222 50.9209 c 0
858.028 119.721 m 0
 848.879 133.209 823.839 128.893 823.529 113.774 c 0
 823.496 112.14 832.606 110.802 843.774 110.802 c 0
 863.981 110.802 864.05 110.845 858.028 119.721 c 0
158.129 50.6992 m 0
 158.855 52.5283 170.07 82.8555 183.051 118.092 c 2
 206.651 182.159 l 1
 227.05 182.159 l 1
 247.449 182.159 l 1
 270.365 119.721 l 2
 282.969 85.3809 294.133 55.0537 295.174 52.3281 c 0
 296.531 48.7754 291.499 47.373 277.395 47.373 c 0
 258.602 47.373 257.558 47.9482 254.027 60.2568 c 0
 250.394 72.9268 249.942 73.1406 226.843 73.1406 c 0
 203.744 73.1406 203.293 72.9268 199.659 60.2568 c 0
 196.132 47.959 195.073 47.373 176.386 47.373 c 0
 165.618 47.373 157.402 48.8691 158.129 50.6992 c 0
236.881 109.811 m 0
 227.427 141.197 226.671 141.675 219.542 120.753 c 0
 215.927 110.143 212.968 100.887 212.968 100.185 c 0
 212.968 99.4824 219.088 98.9082 226.566 98.9082 c 0
 239.555 98.9082 240.018 99.3984 236.881 109.811 c 0
664.897 116.748 m 1
 664.897 186.123 l 1
 682.736 186.123 l 1
 700.576 186.123 l 1
 700.576 163.896 l 2
 700.576 144.185 701.361 142.02 707.514 144.777 c 0
 711.329 146.487 722.673 148.617 732.723 149.511 c 0
 748.86 150.944 751.985 149.874 759.481 140.344 c 0
 766.915 130.894 767.969 124.453 767.969 88.4629 c 2
 767.969 47.373 l 1
 752.111 47.373 l 1
 736.255 47.373 l 1
 736.211 68.1855 l 2
 736.148 97.9102 731.995 119.092 725.761 121.484 c 0
 722.801 122.62 715.924 122.432 710.478 121.064 c 0
 700.838 118.645 700.576 117.638 700.576 82.9756 c 2
 700.576 47.373 l 1
 682.736 47.373 l 1
 664.897 47.373 l 1
 664.897 116.748 l 1
536.058 224.706 m 0
 507.713 227.718 478.278 230.177 470.647 230.17 c 0
 457.321 230.158 415.875 236.548 365.594 246.365 c 0
 352.512 248.92 332.888 254.341 321.986 258.413 c 0
 311.084 262.484 294.137 268.467 284.325 271.707 c 0
 261.319 279.305 245.394 288.127 231.799 300.806 c 0
 220.186 311.636 218.39 321.728 224.987 339.08 c 0
 228.524 348.383 228.283 349.18 223.208 344.968 c 0
 219.979 342.288 215.247 333.549 212.692 325.547 c 0
 206.232 305.319 202.55 302.609 199.262 315.663 c 2
 196.442 326.855 l 1
 188.878 317.533 l 2
 181.818 308.833 181.128 308.701 178.532 315.552 c 0
 173.7 328.305 167.15 332.931 161.485 327.592 c 0
 157.495 323.831 157.394 324.635 160.978 331.607 c 0
 163.442 336.401 169.409 343.091 174.238 346.474 c 0
 179.067 349.855 180.837 352.623 178.172 352.623 c 0
 175.506 352.623 173.325 354.009 173.325 355.701 c 0
 173.325 357.395 180.907 358.265 190.174 357.636 c 2
 207.021 356.492 l 1
 186.366 366.157 l 2
 147.937 384.139 91.7998 423.98 104.895 423.98 c 0
 107.038 423.98 127.326 415.313 149.979 404.722 c 0
 172.631 394.129 195.624 384.08 201.075 382.391 c 2
 210.986 379.319 l 1
 203.262 387.965 l 2
 194.715 397.532 192.317 406.544 195.525 417.043 c 0
 198.385 426.399 205.04 425.87 205.04 416.286 c 0
 205.04 412.054 206.823 407.488 209.004 406.142 c 0
 211.258 404.748 212.968 408.129 212.968 413.976 c 0
 212.968 422.79 214.027 423.693 220.376 420.295 c 0
 224.449 418.115 228.909 417.457 230.286 418.834 c 0
 231.663 420.211 232.931 408.999 233.103 393.918 c 0
 233.429 365.346 234.44 364.466 238.567 389.165 c 0
 242.2 410.912 248.976 415.756 273.435 414.092 c 0
 300.809 412.229 377.386 395.405 416.689 382.619 c 0
 433.891 377.023 450.838 372.434 454.351 372.42 c 0
 457.862 372.407 465.577 369.871 471.493 366.784 c 0
 477.408 363.698 505.951 357.391 534.921 352.769 c 0
 563.892 348.146 606.485 339.979 629.574 334.618 c 0
 652.664 329.259 675.304 324.873 679.886 324.873 c 0
 684.467 324.873 689.317 323.089 690.665 320.909 c 0
 692.013 318.729 697.073 316.944 701.91 316.944 c 0
 706.747 316.944 714.438 314.33 719.001 311.134 c 0
 728.25 304.656 769.205 297.152 779.962 299.965 c 0
 783.775 300.962 788.094 299.839 789.56 297.469 c 0
 791.024 295.099 795.468 293.159 799.433 293.159 c 0
 807.232 293.159 824.17 285.897 849.237 271.809 c 0
 861.788 264.753 865.094 260.601 865.094 251.891 c 0
 865.094 242.675 862.517 239.931 849.237 235.007 c 0
 821.736 224.811 801.744 222.177 764.647 223.859 c 0
 744.645 224.768 727.607 223.847 726.337 221.79 c 0
 722.983 216.365 596.268 218.307 536.058 224.706 c 0
EndSplineSet
Validated: 33
EndChar

StartChar: K
Encoding: 75 75 23
Width: 1000
VWidth: 0
Flags: H
LayerCount: 2
Fore
SplineSet
214.716 -60.3633 m 4
 166.62 -47.4102 133.668 -14.0527 121.027 34.4785 c 4
 114.231 60.5684 114.231 588.713 121.027 614.803 c 4
 133.836 663.977 166.847 696.987 216.021 709.796 c 4
 242.11 716.592 770.255 716.592 796.345 709.796 c 4
 845.52 696.987 878.53 663.977 891.338 614.803 c 4
 898.134 588.713 898.134 60.5684 891.338 34.4785 c 4
 878.53 -14.6963 845.52 -47.7061 796.345 -60.5146 c 4
 771.104 -67.0889 239.176 -66.9502 214.716 -60.3633 c 4
420.937 61.623 m 4
 443.88 69.2764 464.464 89.8916 470.941 111.704 c 4
 481.42 146.986 474.156 176.879 451.036 193.627 c 4
 439.323 202.112 427.784 206.354 384.655 218.034 c 4
 368.503 222.408 353.957 235.945 353.957 246.602 c 4
 353.957 258.159 365.628 268.716 382.88 272.761 c 4
 432.157 284.314 466.187 334.906 457.298 383.4 c 4
 456.009 390.433 455.178 396.406 455.451 396.674 c 4
 455.725 396.942 460.743 398.396 466.604 399.906 c 6
 477.26 402.65 l 5
 478.124 433.382 l 5
 478.989 464.113 l 5
 461.252 458.594 l 6
 428.835 448.504 416.593 447.948 398.813 455.757 c 4
 380.81 463.663 349.134 465.177 327.898 459.144 c 4
 298.2 450.705 269.821 421.06 262.36 390.68 c 4
 257.213 369.721 260.474 342.676 270.548 322.764 c 4
 278.489 307.067 296.265 287.548 305.385 284.508 c 4
 308.371 283.513 307.738 281.466 302.969 276.697 c 4
 296.387 270.114 290.07 252.361 290.04 240.354 c 4
 290.014 230.178 295.677 217.423 304.178 208.511 c 6
 311.856 200.46 l 5
 301.619 197.082 l 6
 286.635 192.137 268.737 176.157 262.296 161.975 c 4
 258.999 154.717 256.64 142.482 256.601 132.447 c 4
 256.449 93.6797 279.529 68.249 324.017 58.1641 c 4
 349.45 52.3984 398.531 54.1504 420.937 61.623 c 4
339.109 109.619 m 4
 325.755 114.45 317.424 124.993 317.424 137.063 c 4
 317.424 157.203 333.293 166.936 366.136 166.936 c 4
 398.775 166.936 414.848 157.192 414.848 137.403 c 4
 414.848 125.252 407.388 114.958 394.758 109.682 c 4
 382.469 104.547 353.221 104.514 339.109 109.619 c 4
341.779 328.36 m 4
 318.794 340.368 317.407 390.362 339.683 403.944 c 4
 351.175 410.951 366.216 411.575 377.907 405.53 c 4
 397.779 395.254 403.237 351.225 386.69 334.678 c 4
 377.357 325.346 353.872 322.042 341.779 328.36 c 4
738.127 198.695 m 6
 755.832 203.662 l 5
 755.832 233.551 l 5
 755.832 263.439 l 5
 745.275 259.028 l 6
 729.886 252.599 717.838 253.547 708.051 261.959 c 6
 699.509 269.302 l 5
 698.583 336.55 l 5
 697.657 403.798 l 5
 723.7 403.798 l 5
 749.743 403.798 l 5
 749.743 432.721 l 5
 749.743 461.644 l 5
 723.865 461.644 l 5
 697.986 461.644 l 5
 697.986 485.999 l 5
 697.986 510.355 l 5
 664.18 510.355 l 5
 630.374 510.355 l 5
 632.529 485.999 l 5
 634.686 461.644 l 5
 619.146 461.644 l 5
 603.606 461.644 l 5
 603.606 432.375 l 5
 603.606 403.106 l 5
 616.909 405.102 l 5
 630.211 407.096 l 5
 631.804 331.616 l 6
 633.643 244.527 636.269 231.089 655.135 212.223 c 4
 673.265 194.093 703.919 189.097 738.127 198.695 c 6
573.162 329.207 m 5
 573.162 461.644 l 5
 541.194 461.644 l 5
 509.228 461.644 l 5
 509.228 329.207 l 5
 509.228 196.771 l 5
 541.194 196.771 l 5
 573.162 196.771 l 5
 573.162 329.207 l 5
556.004 511.509 m 4
 595.212 527.891 587.155 590.103 545.231 594.696 c 4
 534.859 595.833 529.797 594.614 521.405 588.96 c 4
 492.423 569.432 494.186 528.187 524.666 512.644 c 4
 537.268 506.218 542.856 506.016 556.004 511.509 c 4
EndSplineSet
Validated: 33
EndChar

StartChar: n
Encoding: 110 110 24
Width: 1000
VWidth: 0
Flags: H
LayerCount: 2
Fore
SplineSet
424.995 -78.6865 m 4
 367.398 -70.3379 297.452 -41.5703 253.412 -8.11621 c 4
 229.82 9.80371 180.129 58.2354 180.129 63.3066 c 4
 180.129 64.8682 187.728 69.9971 197.016 74.7031 c 4
 217.042 84.8506 218.529 89.9023 201.493 89.9023 c 6
 189.083 89.9023 l 5
 196.932 98.2559 l 6
 201.248 102.851 209.861 110.069 216.073 114.299 c 4
 222.285 118.527 227.377 123.046 227.39 124.339 c 4
 227.422 127.576 191.516 114.952 177.986 106.969 c 6
 166.945 100.455 l 5
 170.074 108.682 l 6
 171.794 113.206 179.223 126.38 186.583 137.956 c 4
 193.944 149.533 199.371 159.6 198.644 160.327 c 4
 196.77 162.201 170.078 146.188 151.73 132.183 c 4
 143.2 125.671 136.221 121.688 136.221 123.331 c 4
 136.221 124.973 141.527 133.702 148.013 142.729 c 4
 160 159.414 184.739 193.596 193.267 205.254 c 4
 195.848 208.785 197.234 212.398 196.347 213.284 c 4
 194.442 215.19 149.009 193.291 123.146 178.002 c 4
 113.168 172.103 104.244 168.037 103.315 168.967 c 4
 99.1025 173.179 138.763 227.876 167.063 256.884 c 4
 188.036 278.381 177.728 276.545 121.866 248.835 c 4
 100.039 238.008 82.1816 230.819 82.1816 232.86 c 4
 82.1816 237.521 145.301 298.795 161.387 309.749 c 4
 167.953 314.223 173.337 319.143 173.351 320.683 c 4
 173.392 325.808 151.863 318.952 110.24 300.588 c 4
 87.5908 290.594 68.2129 282.418 67.1768 282.418 c 4
 55.1943 282.418 105.778 332.885 159.426 374.455 c 4
 180.403 390.709 195.768 404.008 193.569 404.008 c 4
 189.598 404.008 93.4121 379.598 80.4922 375.311 c 4
 71.2959 372.26 116.188 415.196 161.552 452.84 c 4
 261.008 535.369 318.751 570.684 379.198 585.948 c 4
 421.045 596.516 439.355 595.454 489.407 579.561 c 4
 555.365 558.617 558.556 558.167 594.797 564.691 c 4
 645.231 573.773 672.671 566.229 694.848 537.185 c 4
 709.242 518.33 715.14 501.572 712.69 486.478 c 4
 711.035 476.278 712.385 473.756 725.818 461.931 c 4
 746.376 443.836 777.246 428.243 839.854 404.332 c 4
 935.114 367.95 941.39 362.648 944.83 315.634 c 4
 946.099 298.294 948.791 275.326 950.812 264.595 c 4
 954.294 246.104 953.945 243.895 944.131 222.376 c 4
 938.435 209.888 930.156 190.551 925.734 179.405 c 4
 916.463 156.033 907.59 149.613 888.712 152.621 c 4
 878.517 154.247 873.521 152.808 861.692 144.839 c 4
 826.907 121.403 816.315 116.922 795.713 116.922 c 4
 784.424 116.922 758.43 121.441 735.519 127.387 c 4
 713.309 133.15 685.332 138.063 673.241 138.323 c 4
 653.952 138.739 648.274 137.244 626.469 126.004 c 4
 565.56 94.6064 557.715 84.2275 537.749 8.6123 c 4
 524.816 -40.3584 523.136 -51.3584 525.402 -72.2168 c 6
 526.32 -80.6611 l 5
 485.79 -81.1426 l 6
 463.499 -81.4072 436.142 -80.3027 424.995 -78.6865 c 4
455.109 -42.6641 m 6
 443.092 -24.4463 432.693 -4.28809 434.422 -2.55957 c 4
 435.389 -1.59375 442.781 -4.98633 450.852 -10.0977 c 4
 481.041 -29.2236 481.578 -29.3369 486.487 -17.6621 c 4
 490.753 -7.51758 490.402 -6.76953 472.216 12.875 c 4
 456.08 30.3037 440.194 54.4004 440.194 61.4473 c 4
 440.194 62.6641 444.067 61.1211 448.802 58.0195 c 4
 453.534 54.918 468.673 46.6514 482.442 39.6494 c 4
 510.187 25.54 509.479 25.2402 513.116 52.6494 c 4
 514.347 61.9287 517.44 71.251 519.992 73.3691 c 4
 526.148 78.4775 525.88 83.1475 519.432 83.1475 c 4
 513.209 83.1475 488.057 70.8389 480.215 63.957 c 4
 470.843 55.7334 469.399 65.04 477.463 81.6963 c 4
 482.63 92.3701 490.897 101.214 505.009 111.156 c 6
 525.172 125.365 l 5
 508.857 132.598 l 6
 495.664 138.449 488.594 145.228 471.876 168.062 c 4
 451.688 195.632 440.059 219.235 444.48 223.658 c 4
 445.693 224.871 454.725 218.591 464.55 209.702 c 4
 487.212 189.198 507.681 176.111 530.356 167.628 c 4
 553.168 159.093 560.875 158.845 593.87 165.583 c 4
 608.731 168.618 630.009 172.836 641.154 174.956 c 4
 652.3 177.077 667.153 180.789 674.162 183.208 c 4
 686.189 187.357 687.797 187.036 702.856 177.486 c 4
 727.048 162.145 779.533 146.248 797.866 148.71 c 4
 812.509 150.676 821.85 155.523 821.85 161.156 c 4
 821.85 166.21 804.243 173.187 767.81 182.567 c 4
 699.37 200.188 654.058 220.038 630.178 242.856 c 4
 610.495 261.665 618.19 239.179 639.021 217.018 c 6
 651.287 203.967 l 5
 631.022 206.314 l 6
 577.717 212.486 540.315 257.883 546.299 309.146 c 4
 549.096 333.109 554.481 353.346 558.063 353.346 c 4
 559.59 353.346 561.664 345.346 562.673 335.568 c 4
 564.418 318.66 574.128 292.551 578.671 292.551 c 4
 582.77 292.551 592.182 316.525 592.182 326.966 c 4
 592.182 338.534 585.835 347.983 557.45 378.677 c 4
 547.142 389.823 539.242 399.477 539.896 400.13 c 4
 540.547 400.784 549.159 398.653 559.032 395.395 c 4
 573.817 390.517 611.014 365.141 644.96 336.772 c 4
 655.188 328.225 746.05 271.445 763.319 262.808 c 4
 792.5 248.215 812.578 242.464 863.802 234.025 c 4
 895.406 228.819 910.923 227.524 912.898 229.929 c 4
 918.364 236.58 920.418 264.193 916.523 278.655 c 4
 911.514 297.259 905.08 295.025 902.91 273.929 c 6
 901.221 257.519 l 5
 892.459 269.125 l 6
 872.448 295.63 871.477 304.343 886.45 322.975 c 4
 892.488 330.488 896.174 338.293 895.058 341.2 c 4
 892.401 348.122 871.471 358.368 828.879 373.599 c 4
 757.849 398.998 722.087 415.741 695.459 436.066 c 4
 686.589 442.838 678.75 447.794 678.037 447.082 c 4
 677.324 446.37 684.385 436.768 693.726 425.741 c 6
 710.709 405.696 l 5
 698.566 404.639 l 6
 682.303 403.222 639.301 412.364 622.918 420.722 c 4
 609.147 427.747 595.559 442.239 595.559 449.9 c 4
 595.559 460.204 603.92 471.245 616.163 477.108 c 4
 623.364 480.557 629.273 484.519 629.295 485.912 c 4
 629.381 491.562 610.753 487.883 595.305 479.199 c 4
 575.131 467.858 572.737 459.779 581.773 433.516 c 4
 587.048 418.185 587.48 414.14 583.843 414.14 c 4
 577.69 414.14 552.01 443.623 549.519 453.544 c 4
 547.797 460.405 545.483 461.425 531.621 461.425 c 4
 515.056 461.425 484.102 470.197 484.102 474.892 c 4
 484.102 478.516 488.958 480.184 523.134 488.301 c 4
 539.185 492.112 564.706 500.803 579.849 507.611 c 4
 602.687 517.879 611.41 520.036 631.022 520.261 c 4
 644.025 520.409 658.355 519.203 662.868 517.578 c 6
 671.071 514.626 l 5
 662.868 524.99 l 6
 650.6 540.491 629.683 539.604 564.525 520.819 c 4
 536.083 512.619 510.151 504.857 506.899 503.57 c 4
 498.198 500.128 499.67 505.571 511.235 519.601 c 6
 521.48 532.031 l 5
 507.014 535.751 l 6
 499.056 537.798 484.888 541.618 475.529 544.243 c 4
 446.329 552.428 423.335 553.569 397.551 548.114 c 4
 362.089 540.612 337.427 527.192 296.449 493.104 c 4
 281.311 480.511 264.189 453.919 268.467 449.643 c 4
 269.336 448.773 278.979 449.516 289.896 451.293 c 4
 300.813 453.069 310.199 454.068 310.754 453.515 c 4
 311.309 452.959 305.121 445.373 297.004 436.655 c 4
 274.521 412.514 266.167 387.021 266.617 343.937 c 4
 267.031 304.236 264.265 301.696 250.697 329.32 c 4
 241.726 347.588 237.546 347.085 237.546 327.738 c 4
 237.546 318.801 234.336 317.376 228.145 323.567 c 4
 221.361 330.351 220.406 324.894 223.974 299.741 c 4
 228.166 270.18 240.798 241.52 265.849 204.735 c 4
 287.483 172.966 288.812 165.086 276.597 140.98 c 4
 272.068 132.044 268.033 121.075 267.628 116.604 c 4
 265.965 98.2344 266.008 98.208 294.963 99.5225 c 4
 312.483 100.317 321.982 99.4941 321.982 97.1768 c 4
 321.982 91.5605 293.356 73.2949 265.725 61.2793 c 4
 221.941 42.2412 224.023 37.8018 271.225 49.5488 c 4
 286.542 53.3613 301.4 56.0215 304.242 55.459 c 4
 307.084 54.8975 298.598 48.3584 285.384 40.9287 c 4
 272.17 33.498 261.794 25.8994 262.326 24.041 c 4
 263.598 19.6094 295.562 -2.49023 316.797 -13.6172 c 4
 354.135 -33.1826 415.073 -51.0615 446.493 -51.668 c 6
 461.236 -51.9531 l 5
 455.109 -42.6641 l 6
387.198 190.627 m 4
 376.2 199.779 362.935 212.338 357.721 218.535 c 4
 348.826 229.106 348.412 230.96 351.037 248.512 c 4
 352.575 258.802 353.512 276.956 353.118 288.855 c 4
 352.274 314.407 356.619 332.607 367.788 350.299 c 4
 376.891 364.72 391.009 374.951 387.243 364.4 c 4
 386.068 361.106 383.469 356.31 381.466 353.741 c 4
 379.465 351.171 377.801 339.772 377.769 328.41 c 4
 377.699 303.303 385.065 287.048 411.446 254.104 c 4
 421.685 241.318 430.062 229.54 430.062 227.93 c 4
 430.062 223.132 421.149 224.53 396.224 233.239 c 4
 366.7 243.554 366.321 241.303 391.396 204.479 c 4
 401.71 189.333 409.482 176.276 408.671 175.464 c 4
 407.857 174.651 398.195 181.475 387.198 190.627 c 4
492.546 374.247 m 4
 481.399 376.001 456.702 376.59 437.662 375.555 c 4
 416.251 374.393 403.042 374.925 403.042 376.951 c 4
 403.042 381.084 423.029 391.201 446.105 398.75 c 4
 455.857 401.94 463.837 405.149 463.837 405.881 c 4
 463.837 406.613 459.102 409.66 453.316 412.652 c 4
 439.933 419.573 443.926 423.833 466.279 426.48 c 4
 490.966 429.403 493.146 431.583 483.894 444.097 c 4
 479.628 449.866 477.028 455.478 478.117 456.566 c 4
 480.975 459.424 500.27 448.98 517.877 435.045 c 4
 526.235 428.429 533.791 422.456 534.666 421.772 c 4
 537.747 419.362 526.217 414.243 517.596 414.191 c 4
 504.362 414.113 503.888 411.426 513.787 392.619 c 4
 518.802 383.093 523.419 374.159 524.049 372.767 c 4
 525.419 369.735 519.411 370.018 492.546 374.247 c 4
619.334 391.962 m 4
 611.189 396.471 597.553 417.26 600.684 420.392 c 4
 601.558 421.266 604.941 419.602 608.203 416.694 c 4
 611.466 413.786 627.813 407.244 644.532 402.155 c 4
 661.251 397.065 676.373 391.601 678.139 390.011 c 4
 683.596 385.094 628.431 386.925 619.334 391.962 c 4
399.554 427.769 m 4
 394.287 433.407 388.239 443.285 386.115 449.723 c 4
 383.991 456.159 381.365 461.425 380.279 461.425 c 4
 379.193 461.425 371.711 457.561 363.653 452.839 c 4
 349.749 444.689 349.002 444.591 349.002 450.891 c 4
 349.002 457.299 367.098 483.885 379.741 496.053 c 4
 392.148 507.994 459.703 518.13 465.404 508.905 c 4
 466.486 507.156 458.596 500.608 447.872 494.356 c 4
 424.731 480.864 419.521 471.689 417.289 440.506 c 4
 416.385 427.862 414.178 417.518 412.388 417.518 c 4
 410.596 417.518 404.82 422.131 399.554 427.769 c 4
899.531 196.706 m 4
 899.531 199.265 897.252 201.358 894.466 201.358 c 4
 891.251 201.358 889.399 198.123 889.399 192.502 c 4
 889.399 185.011 890.182 184.294 894.466 187.85 c 4
 897.252 190.161 899.531 194.147 899.531 196.706 c 4
839.963 208.863 m 4
 835.569 215.973 828.609 210.821 828.68 200.515 c 6
 828.755 189.538 l 5
 835.171 197.887 l 6
 838.7 202.479 840.855 207.418 839.963 208.863 c 4
868.807 199.275 m 4
 871.819 202.904 871.406 204.438 866.958 206.146 c 4
 861.716 208.156 855.806 203.437 855.677 197.137 c 4
 855.589 192.85 864.707 194.334 868.807 199.275 c 4
808.232 214.024 m 4
 808.292 216.346 806.237 218.246 803.667 218.246 c 4
 799.111 218.246 794.097 203.218 797.513 199.802 c 4
 799.765 197.55 808.094 208.6 808.232 214.024 c 4
781.32 223.365 m 4
 781.32 225.726 779.04 228.531 776.254 229.6 c 4
 772.424 231.069 771.188 228.996 771.188 221.104 c 4
 771.188 212.207 771.938 211.285 776.254 214.869 c 4
 779.04 217.181 781.32 221.004 781.32 223.365 c 4
752.812 238.188 m 4
 748.667 244.894 744.167 242.049 744.167 232.722 c 4
 744.167 224.273 744.597 223.983 749.634 229.02 c 4
 752.64 232.025 754.07 236.151 752.812 238.188 c 4
718.772 248.572 m 4
 724.181 254.549 724.254 255.476 719.458 257.315 c 4
 712.209 260.098 707.016 256.396 707.016 248.443 c 4
 707.016 240.066 711.115 240.111 718.772 248.572 c 4
666.485 430.505 m 4
 666.485 432.074 663.774 435.812 660.459 438.812 c 4
 654.892 443.851 654.134 443.789 650.524 438.011 c 4
 648.376 434.57 647.543 430.832 648.672 429.703 c 4
 651.786 426.588 666.485 427.25 666.485 430.505 c 4
632.604 455.12 m 4
 632.662 456.298 628.911 457.986 624.268 458.875 c 4
 618.002 460.072 615.823 459.041 615.823 454.878 c 4
 615.823 445.107 623.066 440.569 628.095 447.188 c 4
 630.517 450.374 632.544 453.944 632.604 455.12 c 4
EndSplineSet
Validated: 33
EndChar

StartChar: zero
Encoding: 48 48 25
Width: 1000
VWidth: 0
Flags: H
LayerCount: 2
Fore
SplineSet
576.443 203.38 m 4
 523.575 219.462 498.404 257.402 498.307 321.152 c 4
 498.263 350.3 500.525 362.89 509.128 381.365 c 4
 521.437 407.798 547.968 432.04 571.867 438.69 c 4
 596.238 445.472 643.732 444.118 662.996 436.093 c 4
 681.075 428.562 714.673 398.773 714.673 390.276 c 4
 714.673 387.518 703.44 379.752 689.712 373.02 c 6
 664.752 360.777 l 5
 657.822 371.353 l 6
 641.156 396.789 597.95 397.877 579.727 373.32 c 4
 569.578 359.645 564.49 323.54 569.186 298.514 c 4
 573.21 277.06 591.274 256.232 608.916 252.704 c 4
 626.153 249.257 651.97 259.184 660.249 272.442 c 4
 663.531 277.696 668.909 281.995 672.201 281.995 c 4
 682.757 281.995 714.673 263.588 714.673 257.5 c 4
 714.673 247.874 681.67 218.706 659.393 208.643 c 4
 638.073 199.012 598.961 196.531 576.443 203.38 c 4
340.185 206.138 m 4
 294.311 222.975 271.915 255.288 268.827 309.098 c 4
 266.412 351.196 272.243 375.335 291.123 401.397 c 4
 331.019 456.472 436.039 457.93 477.188 403.979 c 6
 489.213 388.215 l 5
 462.592 374.9 l 5
 435.971 361.586 l 5
 425.396 374.598 l 6
 404.828 399.905 362.511 396.182 347.231 367.722 c 4
 336.619 347.953 336.908 298.431 347.754 278.178 c 4
 364.452 247 412.271 243.293 432.877 271.58 c 6
 441.935 284.014 l 5
 465.28 273.079 l 5
 488.627 262.145 l 5
 480.726 248.724 l 6
 456.754 208.007 390.113 187.813 340.185 206.138 c 4
573.078 8.21484 m 4
 686.917 37.7129 778.724 128.434 807.129 239.496 c 4
 819.165 286.557 819.089 356.042 806.95 403.504 c 4
 780.437 507.175 699.777 595.021 598.576 630.447 c 4
 552.552 646.559 469.175 650.645 418.139 639.291 c 4
 328.665 619.385 245.436 552.245 202.44 465.292 c 4
 176.756 413.349 169.289 380.156 169.495 318.849 c 4
 169.7 257.858 180.162 218.176 210.381 163.759 c 4
 243.682 103.793 318.143 40.4844 383.216 16.8105 c 4
 439.926 -3.82129 513.735 -7.16309 573.078 8.21484 c 4
415.588 -67.707 m 4
 291.947 -43.4492 175.419 53.1416 125.918 172.401 c 4
 97.8672 239.981 89.6582 327.903 104.63 400.386 c 4
 135.11 547.951 246.845 667.701 390.153 706.391 c 4
 439.665 719.757 540.662 720.867 587.235 708.556 c 4
 732.279 670.216 838.458 565.151 876.329 422.498 c 4
 884.081 393.295 886.112 372.258 886.112 321.152 c 4
 886.112 247.073 877.649 206.392 850.177 148.403 c 4
 801.541 45.7422 702.41 -33.4355 585.5 -63 c 4
 544.371 -73.4004 456.95 -75.8223 415.588 -67.707 c 4
EndSplineSet
Validated: 33
EndChar

StartChar: one
Encoding: 49 49 26
Width: 1000
VWidth: 0
Flags: H
LayerCount: 2
Fore
SplineSet
477.25 471.465 m 4
 471.636 472.552 461.57 479.943 454.882 487.892 c 4
 444.038 500.779 442.937 505.31 444.704 529.747 c 4
 447.305 565.708 460.686 578.794 494.854 578.794 c 4
 526.519 578.794 543.45 569.141 549.407 547.691 c 4
 555.794 524.693 555.5 516.988 547.51 497.863 c 4
 537.736 474.473 511.887 464.761 477.25 471.465 c 4
434.481 164.196 m 5
 434.481 260.936 l 5
 413.751 260.936 l 5
 393.021 260.936 l 5
 393.021 348.355 l 6
 393.021 459.692 383.35 450.893 503.584 448.939 c 4
 584.733 447.62 592.394 446.782 598.396 438.562 c 4
 603.469 431.616 604.927 410.792 604.927 345.278 c 6
 604.927 260.936 l 5
 581.894 260.936 l 5
 558.86 260.936 l 5
 558.86 164.196 l 5
 558.86 67.457 l 5
 496.671 67.457 l 5
 434.481 67.457 l 5
 434.481 164.196 l 5
581.894 9.61621 m 4
 595.829 13.3984 624.792 25.1787 646.257 35.7949 c 4
 701.241 62.9883 761.42 122.74 788.162 176.694 c 4
 815.126 231.096 823.176 272.244 820.308 341.011 c 4
 818.332 388.366 815.839 402.611 803.868 434.942 c 4
 769.55 527.635 692.538 603.072 600.32 634.329 c 4
 558.874 648.377 468.58 651.904 423.092 641.252 c 4
 310.811 614.959 212.848 518.288 182.407 403.741 c 4
 171.687 363.401 171.981 283.107 182.999 242.509 c 4
 197.8 187.969 224.812 143.187 270.761 97.0068 c 4
 305.826 61.7666 319.318 51.7373 356.168 33.5225 c 4
 380.238 21.624 414.442 8.89648 432.178 5.2373 c 4
 470.682 -2.70508 544.447 -0.547852 581.894 9.61621 c 4
402.234 -61.7822 m 4
 280.391 -30.6494 175.775 61.6738 128.533 179.76 c 4
 93.0518 268.449 94.1182 386.809 131.203 476.158 c 4
 158.352 541.568 211.528 607.733 271.437 650.643 c 4
 370.574 721.652 508.009 740.161 630.5 699 c 4
 741.531 661.688 836.635 565.914 874.102 453.679 c 4
 897.574 383.363 899.377 279.047 878.377 206.208 c 4
 844.307 88.0332 738.762 -16.1982 611.837 -57.0146 c 4
 565.309 -71.9775 452.204 -74.5498 402.234 -61.7822 c 4
EndSplineSet
Validated: 33
EndChar

StartChar: two
Encoding: 50 50 27
Width: 1000
VWidth: 0
Flags: H
LayerCount: 2
Fore
SplineSet
444.041 112.584 m 4
 389.421 127.263 345.465 169.56 328.817 223.458 c 4
 323.698 240.032 319.51 255.446 319.51 257.714 c 4
 319.51 259.98 342.048 261.835 369.594 261.835 c 6
 419.678 261.835 l 5
 422.542 243.926 l 6
 429.242 202.026 480.077 178.012 531.099 192.645 c 4
 575.741 205.448 605.36 270.001 598.83 340.264 c 4
 594.748 384.178 584.203 410.871 563.574 429.508 c 4
 518.744 470.009 435.938 449.275 422.867 394.275 c 4
 420.17 382.924 421.105 381.607 431.873 381.607 c 4
 438.481 381.607 443.889 380.004 443.889 378.044 c 4
 443.889 376.085 427.288 357.978 406.998 337.807 c 6
 370.107 301.133 l 5
 329.87 341.37 l 5
 289.633 381.607 l 5
 306.361 381.607 l 6
 321.578 381.607 323.35 382.961 325.949 396.579 c 4
 330.943 422.742 351.642 461.559 371.599 482.189 c 4
 439.974 552.873 573.732 548.683 643.909 473.657 c 4
 697.258 416.624 715.389 320.592 687.896 240.683 c 4
 653.739 141.405 546.471 85.0566 444.041 112.584 c 4
598.211 15.0967 m 4
 704.695 50.9297 784.345 133.093 812.663 236.314 c 4
 821.249 267.609 822.361 281.352 820.669 335.195 c 4
 819.019 387.682 816.77 403.16 806.674 431.519 c 4
 789.497 479.768 769.001 511.767 729.5 552 c 4
 667.807 614.838 602.096 644.171 515.292 647.62 c 4
 451.245 650.166 409.088 641.78 356.363 616.007 c 4
 323.959 600.167 309.593 589.218 273.059 552.522 c 4
 236.903 516.208 225.439 501.101 209.74 469.078 c 4
 183.788 416.142 175.17 379.982 175.17 324.024 c 4
 175.17 240.276 203.201 168.883 259.935 108.133 c 4
 332.476 30.457 409.116 -2.27539 510.686 1.04102 c 4
 550.391 2.33691 569.335 5.37988 598.211 15.0967 c 4
449.944 -69.585 m 4
 291.81 -54.1006 144.862 80.2607 112.027 239.391 c 4
 68.6572 449.578 194.253 654.382 400.126 709.182 c 4
 452.375 723.09 546.051 723.077 598.211 709.155 c 4
 749.828 668.688 862.076 548.116 888.339 397.51 c 4
 905.601 298.524 888.525 200.137 839.843 118.08 c 4
 816.779 79.2061 758.368 18.9521 718.007 -7.59961 c 4
 641.573 -57.8818 549.013 -79.2852 449.944 -69.585 c 4
EndSplineSet
Validated: 33
EndChar

StartChar: three
Encoding: 51 51 28
Width: 1000
VWidth: 0
Flags: H
LayerCount: 2
Fore
SplineSet
472.19 -69.3252 m 4
 415.658 -66.0859 357.245 -49.2959 307.338 -21.9395 c 4
 273.062 -3.15137 245.418 17.5674 217.417 45.4561 c 4
 196.059 66.7295 182.16 83.5664 166.316 107.356 c 4
 87.6387 225.499 78.7881 378.204 143.274 504.938 c 4
 176.138 569.523 226.149 624.021 287.892 662.524 c 4
 378.616 719.104 489.182 736.062 594.199 709.505 c 4
 652.102 694.863 703.288 668.501 751.994 628.236 c 4
 761.932 620.021 790.428 591.535 798.732 581.515 c 4
 842.146 529.13 870.353 471.431 883.812 407.477 c 4
 889.764 379.191 891.875 357.824 891.875 325.871 c 4
 891.875 286.963 888.05 257.359 878.481 222.222 c 4
 863.346 166.639 837.557 117.325 799.602 71.3887 c 4
 788.657 58.1426 761.333 31.1211 747.722 20.082 c 4
 668.458 -44.1963 573.187 -75.1113 472.19 -69.3252 c 4
521.57 -1.30469 m 4
 540.073 0.161133 555.5 2.65039 574.312 7.2041 c 4
 660.027 27.9512 734.137 83.2295 779.601 160.328 c 4
 784.791 169.129 784.822 169.217 783.112 170.105 c 4
 781.5 170.943 643.569 233.155 636.68 236.151 c 6
 633.524 237.524 l 5
 631.452 230.066 l 6
 628.771 220.42 621.48 205.8 615.186 197.451 c 4
 609.37 189.736 596.772 177.38 587.999 170.784 c 4
 569.073 156.556 547.173 147.424 526.904 145.311 c 4
 524.352 145.044 520.958 144.632 519.362 144.394 c 6
 516.462 143.962 l 5
 516.462 116.57 l 5
 516.462 89.1787 l 5
 496.351 89.1787 l 5
 476.239 89.1787 l 5
 476.239 117.751 l 5
 476.239 146.323 l 5
 472.565 146.839 l 6
 425.77 153.401 384.77 171.912 370.428 192.952 c 6
 367.971 196.556 l 5
 392.676 219.287 l 5
 417.38 242.019 l 5
 423.824 235.795 l 6
 433.842 226.12 446.457 219.723 464.517 215.159 c 4
 492.409 208.112 528.283 209.483 545.672 218.262 c 4
 555.147 223.045 559.778 233.746 559.778 250.863 c 4
 559.778 261.43 558.312 265.139 551.478 271.861 c 4
 546.524 276.733 545.399 277.388 530.652 283.972 c 4
 520.564 288.477 510.054 292.47 500.872 295.288 c 4
 456.389 308.939 423.962 323.496 406.103 337.829 c 4
 399.956 342.763 396.845 344.227 294.223 390.467 c 4
 236.166 416.626 188.499 438.029 188.297 438.029 c 4
 187.027 438.029 179.078 411.297 175.762 395.874 c 4
 169.901 368.62 167.978 347.659 168.63 318.172 c 4
 169.087 297.529 170.148 285.859 173.065 269.405 c 4
 186.204 195.309 223.746 128.674 280.259 79.1445 c 4
 329.66 35.8477 388.938 9.13867 455.355 0.250977 c 4
 472.414 -2.03223 503.245 -2.75586 521.57 -1.30469 c 4
814.796 246.646 m 4
 817.892 259.023 820.793 274.916 822.551 289.13 c 4
 824.48 304.723 824.451 347.235 822.5 363 c 4
 814.377 428.639 789.745 486.021 748.125 536.265 c 4
 739.977 546.102 721.488 564.888 710.998 573.989 c 4
 657.77 620.174 591.19 647.81 520.329 653.134 c 4
 505.077 654.279 471.659 653.633 457.676 651.921 c 4
 385.514 643.087 320.066 611.876 268.674 561.79 c 4
 261.471 554.771 252.276 545.199 248.242 540.52 c 4
 236.566 526.977 219.393 503.563 220.397 502.559 c 4
 220.63 502.326 243.221 492.044 270.599 479.709 c 4
 297.978 467.374 326.818 454.374 334.688 450.819 c 4
 366.882 436.28 382.311 429.334 383.226 428.969 c 4
 383.775 428.749 384.192 429.159 384.192 429.921 c 4
 384.192 432.55 389.686 447.613 392.896 453.788 c 4
 402.986 473.198 420.078 487.808 442.674 496.338 c 4
 449.955 499.087 464.928 502.832 471.207 503.476 c 6
 476.239 503.991 l 5
 476.239 533.277 l 5
 476.239 562.564 l 5
 496.351 562.564 l 5
 516.462 562.564 l 5
 516.462 533.723 l 5
 516.462 504.881 l 5
 525.592 503.92 l 6
 560.938 500.203 592.045 488.069 609.751 471.095 c 6
 615.649 465.438 l 5
 594.545 442.452 l 6
 582.938 429.81 573.174 419.466 572.849 419.466 c 4
 572.522 419.466 569.71 421.396 566.598 423.758 c 4
 558.841 429.641 547.066 435.343 537.964 437.626 c 4
 523.265 441.312 495.486 442.069 481.19 439.174 c 4
 464.378 435.77 453.686 425.568 453.566 412.818 c 4
 453.485 404.226 458.332 397.183 468.08 391.727 c 4
 476.572 386.974 497.274 379.563 519.169 373.44 c 4
 549.372 364.993 566.356 358.954 582.21 351.023 c 4
 595.884 344.184 603.375 338.959 611.99 330.257 c 6
 619.725 322.443 l 5
 715.253 279.335 l 6
 767.793 255.626 811.121 236.322 811.538 236.438 c 4
 811.954 236.555 813.421 241.148 814.796 246.646 c 4
EndSplineSet
Validated: 33
EndChar

StartChar: four
Encoding: 52 52 29
Width: 1000
VWidth: 0
Flags: HW
LayerCount: 2
Fore
SplineSet
455.866 -71.4258 m 4
 325.587 -57.8203 202.099 31.0439 142.183 154.309 c 4
 90.7842 260.047 90.4141 389.716 141.204 496.428 c 4
 191.29 601.659 288.537 684.243 395.762 712.604 c 4
 455.517 728.408 527.52 730.281 590.128 717.658 c 4
 724.308 690.606 841.771 585.308 884.86 453.448 c 4
 911.554 371.764 909.399 263.034 879.5 183 c 4
 832.664 57.625 716.071 -40.6904 583.878 -66.2793 c 4
 545.844 -73.6416 496.2 -75.6377 455.866 -71.4258 c 4
548.047 2.17578 m 4
 622.784 12.124 685.727 45.1455 743.253 104.59 c 4
 787.742 150.562 811.18 194.475 824.829 257.434 c 4
 828.975 276.556 829.571 285.206 829.571 326.184 c 4
 829.571 366.818 828.958 375.872 824.958 394.199 c 4
 819.428 419.542 808.021 453.05 798.521 471.857 c 4
 768.306 531.681 709.014 591.006 649.472 620.991 c 4
 630.491 630.549 597.027 641.941 571.687 647.472 c 4
 553.358 651.471 544.306 652.085 503.67 652.085 c 4
 452.915 652.084 436.69 649.814 400.164 637.602 c 4
 305.554 605.969 223.109 521.74 191.149 424.063 c 4
 166.238 347.928 173.1 255.652 208.995 184.061 c 4
 235.212 131.771 286.485 76.4668 338.045 44.8623 c 4
 375.416 21.9551 424.75 5.42969 470.337 0.547852 c 4
 488.346 -1.38086 527.483 -0.560547 548.047 2.17578 c 4
364.087 258.475 m 5
 364.087 292.85 l 5
 509.92 292.85 l 5
 655.753 292.85 l 5
 655.753 258.475 l 5
 655.753 224.1 l 5
 509.92 224.1 l 5
 364.087 224.1 l 5
 364.087 258.475 l 5
364.087 385.559 m 5
 364.087 419.934 l 5
 509.92 419.934 l 5
 655.753 419.934 l 5
 655.753 385.559 l 5
 655.753 351.184 l 5
 509.92 351.184 l 5
 364.087 351.184 l 5
 364.087 385.559 l 5
EndSplineSet
Validated: 33
EndChar

StartChar: five
Encoding: 53 53 30
Width: 1000
VWidth: 0
Flags: H
LayerCount: 2
Fore
SplineSet
451.221 -60.7686 m 4
 324.577 -47.8896 217.927 20.4531 153.857 129.784 c 4
 107.553 208.801 90.6992 310.853 108.406 405.013 c 4
 143.002 588.993 314.545 722.672 504.221 713.462 c 4
 606.242 708.508 695.256 669.561 766.307 598.789 c 4
 896.242 469.363 915.746 260.609 812.155 108.065 c 4
 792.64 79.3271 752.578 37.9541 722.725 15.707 c 4
 646.719 -40.9346 543.124 -70.1143 451.221 -60.7686 c 4
544.433 24.0664 m 4
 621.024 38.5869 696.235 86.7051 741.551 150.178 c 4
 820.173 260.303 814.591 412.902 727.982 521.119 c 4
 656.035 611.019 538.251 652.562 423.064 628.67 c 4
 306.782 604.55 213.721 511.184 187.442 392.275 c 4
 179.488 356.287 180.276 292.912 189.135 256.136 c 4
 218.155 135.655 309.139 48.001 430.13 23.959 c 4
 461.441 17.7363 511.293 17.7832 544.433 24.0664 c 4
456.189 113.421 m 4
 452.546 114.259 441.366 116.569 431.346 118.557 c 4
 406.353 123.513 361.162 145.085 340.175 162.079 c 4
 310.386 186.198 310.155 184.339 347.292 219.366 c 6
 379.816 250.043 l 5
 399.652 231.678 l 6
 445.171 189.536 500.221 180.445 551.753 206.559 c 4
 604.494 233.285 636.369 297.782 626.82 358.458 c 4
 608.657 473.878 480.649 522.554 402.925 443.594 c 6
 386.439 426.846 l 5
 351.752 459.625 l 5
 317.064 492.404 l 5
 341.908 510.577 l 6
 372.277 532.791 406.53 550.347 433.002 557.266 c 4
 460.341 564.412 516.452 564.381 543.971 557.206 c 4
 638.373 532.591 702.576 453.295 708.5 354 c 4
 712.613 285.06 690.065 223.895 643.604 177.959 c 4
 598.844 133.704 556.312 114.772 497.596 112.967 c 4
 478.466 112.379 459.833 112.583 456.189 113.421 c 4
EndSplineSet
Validated: 33
EndChar

StartChar: braceleft
Encoding: 123 123 31
Width: 1000
VWidth: 0
Flags: H
LayerCount: 2
Fore
SplineSet
440.838 -80.4336 m 4
 281.109 -60.1445 148.306 56.1221 104.205 214.28 c 4
 94.1406 250.374 93.4863 257.481 93.6572 328.879 c 4
 93.8145 394.493 95 409.168 102.249 435.219 c 4
 143.688 584.156 246.064 686.532 395.002 727.973 c 4
 421.053 735.221 435.729 736.406 501.342 736.563 c 4
 572.739 736.734 579.847 736.08 615.94 726.016 c 4
 811.478 671.492 934.015 488.332 912.108 283.322 c 4
 904.27 209.958 884.201 152.662 846.5 96 c 4
 759.001 -35.502 607.129 -101.556 440.838 -80.4336 c 4
491.305 73.4785 m 4
 496.294 78.4678 497.438 89.7598 497.438 133.983 c 6
 497.438 188.354 l 5
 511.101 188.354 l 5
 524.763 188.354 l 5
 524.763 136.088 l 6
 524.763 89.8447 525.647 82.7617 532.439 74.6084 c 6
 540.117 65.3926 l 5
 540.247 127.12 l 5
 540.377 188.848 l 5
 553.063 187.625 l 5
 565.75 186.401 l 5
 566.835 135.186 l 6
 567.793 89.9805 568.824 83.1523 575.618 77.0039 c 4
 583.245 70.1016 583.315 70.5547 583.315 126.662 c 4
 583.315 179.565 582.674 184.493 573.557 201.641 c 4
 559.198 228.646 560.331 237.584 578.436 240.125 c 4
 611.308 244.737 639.146 259.038 663.556 283.852 c 4
 685.507 306.167 687.709 310.064 694.387 338.42 c 4
 700.614 364.865 700.951 372.356 696.898 394.348 c 4
 692.301 419.305 682.877 442.042 668.91 461.88 c 4
 663.69 469.295 661.973 478.484 662.343 497.012 c 4
 662.618 510.812 661.466 527.958 659.78 535.115 c 4
 657.045 546.739 655.612 547.873 646.365 545.729 c 4
 640.671 544.409 623.287 537.145 607.734 529.586 c 4
 580.532 516.365 578.612 515.999 557.248 519.948 c 4
 528.651 525.234 477.758 525.201 448.959 519.878 c 4
 427.067 515.831 425.571 516.119 400.425 529.213 c 4
 386.154 536.645 368.871 543.91 362.018 545.36 c 4
 350.097 547.882 349.441 547.377 346.875 533.699 c 4
 345.4 525.836 345.349 506.653 346.761 491.07 c 4
 348.881 467.667 348.237 461.833 343.057 457.533 c 4
 339.608 454.671 332.108 443.437 326.392 432.566 c 4
 317.381 415.435 315.993 408.128 315.962 377.673 c 4
 315.931 347.054 317.33 339.682 326.857 320.281 c 4
 346.737 279.797 385.447 253.485 441.813 242.145 c 4
 465.787 237.32 468.357 229.851 452.521 211.029 c 4
 447.139 204.633 440.752 191.525 438.329 181.902 c 6
 433.923 164.405 l 5
 399.682 165.645 l 6
 380.849 166.326 366.22 165.632 367.173 164.101 c 4
 370.322 159.041 397.57 153.266 418.393 153.243 c 6
 438.886 153.222 l 5
 438.886 111.398 l 6
 438.886 71.5732 439.212 69.9004 445.717 76.3906 c 4
 451.303 81.9629 452.904 92.6084 454.5 134.804 c 6
 456.452 186.401 l 5
 469.138 187.625 l 5
 481.824 188.848 l 5
 481.824 128.097 l 6
 481.824 94.6826 482.577 67.3447 483.497 67.3447 c 4
 484.417 67.3447 487.931 70.1055 491.305 73.4785 c 4
EndSplineSet
Validated: 33
EndChar

StartChar: bar
Encoding: 124 124 32
Width: 1000
VWidth: 0
Flags: H
LayerCount: 2
Fore
SplineSet
371.157 -57.4727 m 4
 216.074 -20.7168 100.28 136.551 99.5781 311.379 c 4
 99.4775 336.303 101.099 363.492 103.181 371.8 c 4
 105.263 380.108 109.601 397.479 112.82 410.402 c 4
 156.771 586.809 317.543 711.946 500.23 711.946 c 4
 689.051 711.946 849.514 581.386 891.519 393.576 c 4
 916.775 280.649 887.492 156.574 813.5 63 c 4
 765.231 1.95801 684.723 -48.6201 618.556 -59.4697 c 6
 604.29 -61.8086 l 5
 604.29 6.76562 l 6
 604.29 81.4795 601.592 97.9971 586.062 118.356 c 6
 577.34 129.793 l 5
 589.976 131.964 l 6
 685.032 148.295 734.368 191.979 750.603 274.193 c 4
 761.704 330.412 753.145 383.671 727.128 420.265 c 4
 716.746 434.865 716.07 437.267 719.183 448.488 c 4
 723.74 464.925 720.582 514.747 713.99 530.406 c 4
 709.268 541.623 707.382 542.994 696.665 542.994 c 4
 679.817 542.994 647.092 531.336 620.744 515.948 c 6
 598.405 502.901 l 5
 573.654 508.469 l 6
 540.983 515.817 457.574 515.901 425.357 508.619 c 6
 402.515 503.455 l 5
 366.491 521.949 l 6
 335.586 537.815 327.64 540.505 310.566 540.879 c 4
 292.262 541.28 290.323 540.615 286.411 532.587 c 4
 278.743 516.851 275.193 479.389 279.177 456.244 c 4
 282.508 436.89 282.229 434.124 276.127 425.869 c 4
 253.752 395.605 244.527 364.922 244.683 321.278 c 4
 244.971 240.136 276.636 182.626 336.848 153.89 c 4
 358.249 143.676 391.795 133.516 404.43 133.421 c 4
 418.541 133.314 421.258 128.348 413.309 117.184 c 4
 409.287 111.536 404.466 102.524 402.596 97.1592 c 4
 398.637 85.8018 387.778 80.0439 365.302 77.3818 c 4
 338.994 74.2666 322.173 82.8174 300.037 110.561 c 4
 274.782 142.213 251.94 155.004 231.983 148.67 c 4
 220.528 145.034 223.958 136.119 243.359 119.104 c 4
 255.986 108.03 264.87 96.3252 272.025 81.332 c 4
 291.82 39.8555 320.355 22.6992 369.547 22.6992 c 6
 396.379 22.6992 l 5
 395.436 -18.3799 l 6
 394.391 -63.9463 394.914 -63.1035 371.157 -57.4727 c 4
EndSplineSet
Validated: 33
EndChar

StartChar: N
Encoding: 78 78 33
Width: 1000
VWidth: 0
Flags: H
LayerCount: 2
Fore
SplineSet
352.372 -53.749 m 4
 351.742 -52.7295 348.301 -51.2627 344.725 -50.4893 c 4
 290.626 -38.793 213.09 64.7861 178.726 171.268 c 4
 159.196 231.785 151.878 296.532 159.439 341.922 c 4
 169.726 403.659 185.473 436.8 222.056 473.699 c 4
 261.334 513.314 307.494 534.66 353.881 534.66 c 4
 376.812 534.659 394.67 530.758 437.604 516.37 c 6
 474.746 503.922 l 5
 499.842 503.817 l 6
 524.457 503.715 525.399 503.879 549.031 512.346 c 4
 600.105 530.646 617.439 534.66 645.399 534.658 c 4
 683.414 534.655 717.515 522.809 752.954 497.291 c 4
 766.629 487.445 798.455 456.899 796.582 455.418 c 4
 796.249 455.154 790.614 451.549 784.06 447.405 c 4
 732.254 414.653 702.542 351.782 710.602 291.968 c 4
 712.032 281.347 714.991 266.784 717.176 259.606 c 4
 730.724 215.104 764.839 175.688 805.667 157.37 c 4
 813.036 154.063 819.065 151.054 819.065 150.682 c 4
 819.065 150.311 812.367 136.495 804.18 119.981 c 4
 782.967 77.1895 753.595 32.0928 725.873 -0.249023 c 4
 704.602 -25.0645 673.679 -47.3457 655.94 -50.6367 c 4
 651.799 -51.4043 648.411 -52.8359 648.411 -53.8174 c 4
 648.411 -56.1914 614.841 -56.125 613.372 -53.749 c 4
 612.742 -52.7295 609.301 -51.2832 605.725 -50.5361 c 4
 602.148 -49.7891 588.568 -44.7314 575.545 -39.2959 c 4
 544.121 -26.1816 531.947 -23.5439 502.673 -23.5078 c 4
 473.94 -23.4727 457.206 -27.1455 425.558 -40.4277 c 4
 413.963 -45.2949 401.089 -49.8965 396.948 -50.6543 c 4
 392.807 -51.4121 389.419 -52.8359 389.419 -53.8174 c 4
 389.419 -56.1924 353.842 -56.125 352.372 -53.749 c 4
475.051 530.981 m 4
 472.485 540.561 473.86 564.473 477.864 579.957 c 4
 489.848 626.299 522.709 668.636 565.088 692.336 c 4
 579.084 700.162 601.188 709.322 606.128 709.342 c 4
 607.852 709.349 611.849 710.703 615.012 712.354 c 4
 618.174 714.002 623.821 715.352 627.561 715.352 c 4
 634.296 715.352 634.359 715.267 634.606 705.816 c 4
 635.554 669.542 629.854 644.748 613.707 614.905 c 4
 587.445 566.367 539.78 533.119 488.575 527.618 c 4
 476.906 526.363 476.242 526.529 475.051 530.981 c 4
EndSplineSet
Validated: 33
EndChar

StartChar: w
Encoding: 119 119 34
Width: 1000
VWidth: 0
Flags: H
LayerCount: 2
Fore
SplineSet
582.938 -28.8115 m 4
 580.703 -28.4844 573.391 -27.418 566.688 -26.4424 c 4
 540.318 -22.6045 495.322 -4.55371 462.095 15.5166 c 4
 446.396 24.999 444.263 27.1377 444.48 33.1738 c 4
 444.622 37.083 520.221 285.932 524.684 297.181 c 4
 527.136 303.359 530.721 302.912 546.21 294.496 c 4
 586.897 272.388 630.835 259.205 671.773 256.824 c 4
 710.309 254.583 765.004 263.782 812.182 280.44 c 4
 831.439 287.239 836.438 288.238 836.438 285.288 c 4
 836.438 283.478 764.579 45.2998 757.454 23.4951 c 4
 754.8 15.373 752.103 10.1914 749.714 8.62598 c 4
 744 4.88184 704.306 -9.49902 684.5 -15 c 4
 645.308 -25.8857 602.585 -31.6963 582.938 -28.8115 c 4
383.875 59.667 m 4
 361.188 71.791 337.429 81.1748 314.294 87.1494 c 4
 286.457 94.3379 272.375 95.8154 241.081 94.832 c 4
 200.558 93.5586 166.973 87.0059 122.319 71.6602 c 4
 108.861 67.0352 100.7 64.9863 99.7021 65.9844 c 4
 98.7051 66.9814 98.8848 70.0557 100.2 74.5029 c 4
 127.961 168.373 180.834 338.956 182.879 341.245 c 4
 190.403 349.669 256.996 370.988 298.562 378.28 c 4
 305.373 379.475 322.581 380.411 337.562 380.402 c 4
 361.233 380.389 366.401 379.876 381.669 376.029 c 4
 409.51 369.014 444.136 354.139 472.007 337.222 c 4
 486.346 328.519 490.312 324.728 490.312 319.73 c 4
 490.312 315 410.992 54.8682 408.615 51.8057 c 4
 406.072 48.5273 402.74 49.5859 383.875 59.667 c 4
661.75 295.81 m 4
 627.571 302.465 591.314 316.973 557.368 337.577 c 4
 542.972 346.315 539.061 350.072 539.074 355.151 c 4
 539.094 362.202 619.529 622.251 622.215 623.944 c 4
 624.009 625.076 631.575 622.036 650.52 612.574 c 4
 677.867 598.914 702.715 589.837 728.79 583.981 c 4
 750.185 579.177 803.714 578.799 830.225 583.265 c 4
 854.165 587.298 882.099 594.515 907.057 603.117 c 4
 920.514 607.756 928.676 609.812 929.673 608.813 c 4
 930.67 607.816 930.492 604.742 929.179 600.295 c 4
 902.46 509.786 848.546 335.847 846.501 333.558 c 4
 839.29 325.484 776.025 304.817 736.413 297.595 c 4
 716.361 293.938 676.283 292.98 661.75 295.81 c 4
483.957 379.87 m 4
 444.522 401.738 398.588 415.59 357.602 417.974 c 4
 319.066 420.216 264.372 411.017 217.193 394.358 c 4
 197.936 387.559 192.938 386.56 192.938 389.511 c 4
 192.938 391.321 264.797 629.499 271.921 651.303 c 4
 274.575 659.425 277.272 664.606 279.661 666.172 c 4
 285.376 669.916 325.069 684.297 344.875 689.798 c 4
 422.799 711.442 467.529 708.566 532.154 677.759 c 4
 554.806 666.96 579.441 652.8 582.966 648.553 c 4
 584.114 647.169 584.982 644.051 584.895 641.624 c 4
 584.753 637.715 509.155 388.866 504.691 377.618 c 4
 502.252 371.47 498.34 371.895 483.957 379.87 c 4
EndSplineSet
Validated: 33
EndChar

StartChar: d
Encoding: 100 100 35
Width: 1000
VWidth: 0
Flags: H
LayerCount: 2
Fore
SplineSet
506.166 751 m 5
 645.5 611.667 l 5
 506.166 472.333 l 5
 645.5 333 l 5
 645.5 54.333 l 5
 506.166 -85 l 5
 366.833 54.333 l 5
 506.166 193.667 l 5
 366.833 333 l 5
 366.833 611.667 l 5
 506.166 751 l 5
EndSplineSet
Validated: 1
EndChar

StartChar: D
Encoding: 68 68 36
Width: 1000
VWidth: 0
Flags: H
LayerCount: 2
Fore
SplineSet
493.403 -64.5684 m 6
 435.972 -52.1084 l 5
 371.32 -10.0879 l 5
 306.669 31.9326 l 5
 260.319 103.285 l 5
 213.971 174.638 l 5
 201.512 239.306 l 6
 190.303 297.484 188.868 309.502 187.216 359.062 c 4
 185.394 413.712 185.446 414.455 193.894 452.711 c 4
 203.089 494.361 204.221 496.696 248.218 564.796 c 4
 263.576 588.568 270.634 596.008 312.581 632.646 c 6
 359.694 673.798 l 5
 425.885 700.644 l 5
 492.075 727.488 l 5
 537.981 725.522 l 6
 574.595 723.954 592.659 721.661 627.216 714.192 c 4
 666.231 705.761 674.237 702.975 707.657 686.19 c 6
 744.771 667.553 l 5
 775.069 623.123 l 6
 805.251 578.865 805.399 578.567 813.5 546 c 4
 821.487 513.892 825.875 482.63 829.303 433.43 c 6
 831.03 408.641 l 5
 813.742 357.685 l 5
 796.453 306.729 l 5
 759.508 269.209 l 5
 722.562 231.69 l 5
 673.349 210.679 l 6
 646.281 199.122 622.076 189.667 619.56 189.667 c 4
 611.99 189.667 518.665 219.584 513.921 223.531 c 4
 498.619 236.261 454.132 276.548 452.678 278.991 c 4
 450.07 283.372 428.265 361.323 428.265 366.264 c 4
 428.265 368.602 433.65 388.218 440.232 409.854 c 6
 452.199 449.194 l 5
 484.753 477.808 l 6
 502.657 493.545 519.272 506.493 521.676 506.581 c 4
 524.079 506.669 540.919 508.319 559.099 510.248 c 6
 592.15 513.756 l 5
 619.221 499.418 l 6
 646.169 485.145 646.37 484.961 664.188 458.316 c 4
 674.031 443.596 681.682 431.148 681.188 430.654 c 4
 680.695 430.161 665.979 441.264 648.487 455.327 c 4
 618.904 479.112 615.218 481.243 595.683 485.849 c 6
 574.682 490.8 l 5
 549.124 483.504 l 6
 526.81 477.134 521.896 474.562 510.402 463.241 c 4
 503.161 456.109 490.395 438.965 482.032 425.143 c 6
 466.826 400.01 l 5
 466.826 367.648 l 6
 466.826 349.304 468.144 332.825 469.868 329.604 c 4
 471.541 326.478 479.663 314.475 487.916 302.93 c 4
 501.417 284.045 506.293 279.798 536.52 260.602 c 6
 570.115 239.265 l 5
 605.923 239.398 l 5
 641.729 239.532 l 5
 675.318 256.604 l 5
 708.907 273.676 l 5
 727.304 299.438 l 6
 760.293 345.639 771.679 392.352 764.758 453.109 c 4
 762.136 476.126 759.944 482.422 739.338 526.123 c 6
 716.787 573.948 l 5
 697.162 589.652 l 6
 683.222 600.807 667.493 609.695 642.861 620.338 c 4
 612.893 633.286 603.412 636.005 573.027 640.366 c 6
 537.869 645.413 l 5
 496.15 634.782 l 6
 459.521 625.448 449.793 621.663 416.416 603.758 c 4
 395.508 592.541 363.154 572.278 344.52 558.729 c 6
 310.638 534.095 l 5
 287.894 493.402 l 6
 265.803 453.879 264.955 451.683 258.354 416.903 c 4
 250.395 374.967 249.923 343.334 256.254 275.934 c 6
 260.439 231.367 l 5
 280.52 187.793 l 6
 321.128 99.6758 319.215 102.563 379.265 38.6826 c 6
 433.554 -19.0703 l 5
 471.536 -39.1016 l 6
 492.427 -50.1191 520.675 -63.2061 534.309 -68.1836 c 4
 547.943 -73.1611 557.239 -77.1875 554.967 -77.1309 c 4
 552.694 -77.0742 524.99 -71.4209 493.403 -64.5684 c 6
EndSplineSet
Validated: 33
EndChar

StartChar: at
Encoding: 64 64 37
Width: 1000
VWidth: 0
Flags: H
LayerCount: 2
Fore
SplineSet
582.5 739.625 m 5
 731.812 739.625 l 5
 731.812 590.312 l 5
 582.5 590.312 l 5
 582.5 441 l 5
 433.188 291.688 l 5
 283.875 291.688 l 5
 283.875 441 l 5
 433.188 441 l 5
 433.188 590.312 l 5
 582.5 739.625 l 5
739.656 209 m 5
 790.344 158.312 l 5
 728.656 96.625 l 5
 790.344 34.9375 l 5
 739.656 -15.75 l 5
 677.969 45.9375 l 5
 654.312 22.2812 l 5
 654.312 -10.2812 l 5
 582.625 -10.2812 l 5
 582.625 51.6875 l 5
 582.469 51.8438 l 5
 582.625 52 l 5
 582.625 204.781 l 5
 654.312 204.781 l 5
 654.312 133.094 l 5
 654.312 123.688 l 5
 739.656 209 l 5
224.219 204.781 m 5
 295.906 204.781 l 5
 295.906 133.094 l 5
 224.219 133.094 l 5
 224.219 61.4062 l 5
 152.531 -10.2812 l 5
 80.8438 -10.2812 l 5
 80.8438 61.4062 l 5
 152.531 61.4062 l 5
 152.531 133.094 l 5
 224.219 204.781 l 5
333 204.781 m 5
 476.875 204.781 l 5
 548.062 204.781 l 5
 548.062 61.4062 l 5
 548.062 -10.2812 l 5
 404.688 -10.2812 l 5
 333 -10.2812 l 5
 333 133.094 l 5
 333 204.781 l 5
820.469 204.781 m 5
 892.156 133.094 l 5
 892.156 -10.2812 l 5
 820.469 -10.2812 l 5
 820.469 204.781 l 5
404.688 133.094 m 5
 404.688 61.4062 l 5
 476.375 61.4062 l 5
 476.375 133.094 l 5
 404.688 133.094 l 5
EndSplineSet
Validated: 1
EndChar

StartChar: asciicircum
Encoding: 94 94 38
Width: 1000
VWidth: 0
Flags: H
LayerCount: 2
Fore
SplineSet
505.119 502.535 m 5
 867.81 139.846 l 5
 142.429 139.846 l 5
 505.119 502.535 l 5
EndSplineSet
Validated: 1
EndChar

StartChar: greater
Encoding: 62 62 39
Width: 1000
VWidth: 0
Flags: H
LayerCount: 2
Fore
SplineSet
768.5 285 m 5
 405.81 -77.6904 l 5
 405.81 647.69 l 5
 768.5 285 l 5
EndSplineSet
Validated: 1
EndChar

StartChar: less
Encoding: 60 60 40
Width: 1000
VWidth: 0
Flags: H
LayerCount: 2
Fore
SplineSet
240.81 284.43 m 5
 603.5 647.12 l 5
 603.5 -78.2607 l 5
 240.81 284.43 l 5
EndSplineSet
Validated: 1
EndChar

StartChar: underscore
Encoding: 95 95 41
Width: 1000
VWidth: 0
Flags: H
LayerCount: 2
Fore
SplineSet
501.5 0 m 5
 138.81 362.69 l 5
 864.19 362.69 l 5
 501.5 0 l 5
EndSplineSet
Validated: 1
EndChar

StartChar: F
Encoding: 70 70 42
Width: 1000
VWidth: 0
Flags: H
LayerCount: 2
Fore
SplineSet
429.901 -34.8965 m 4
 310.125 -4.99121 220.657 70.2383 174.047 180.239 c 4
 146.85 244.427 140.883 278.345 144.532 348.032 c 4
 147.049 396.093 149.668 410.919 161.535 444.281 c 4
 207.589 573.745 308.368 662.356 440.018 689.137 c 4
 487.373 698.771 568.252 694.748 614.418 680.462 c 4
 737.838 642.272 830.817 545.901 864.171 421.601 c 4
 889.31 327.92 875.548 228.068 825.5 141 c 4
 773.897 51.2256 682.261 -15.4863 582.506 -35.9014 c 4
 546.549 -43.2598 461.145 -42.6973 429.901 -34.8965 c 4
367.218 124.878 m 4
 421.15 125.84 514.952 125.584 575.665 124.31 c 6
 686.054 121.992 l 5
 686.906 139.139 l 5
 687.76 156.284 l 5
 641.885 157.768 l 6
 599.534 159.136 595.421 160.054 588.346 169.71 c 4
 579.696 181.517 574.768 225.977 573.85 300.476 c 6
 573.246 349.491 l 5
 614.033 347.463 l 6
 636.466 346.347 666.975 346.097 681.832 346.906 c 6
 708.845 348.378 l 5
 708.017 366.623 l 5
 707.188 384.867 l 5
 654.154 384.502 l 6
 624.985 384.302 595.71 383.372 589.097 382.437 c 4
 573.708 380.259 571.844 388.105 574.529 443.758 c 4
 577.971 515.089 593.474 555.246 622.714 568.569 c 4
 649.187 580.632 694.771 572.088 693.933 555.222 c 4
 693.75 551.56 691.176 548.684 688.212 548.831 c 4
 676.859 549.396 660.802 530.434 660.063 515.591 c 4
 658.579 485.751 701.304 468.479 728.645 487.867 c 4
 750.974 503.701 754.766 541.372 736.797 568.846 c 4
 706.265 615.528 628.972 614.302 572.173 566.234 c 6
 548.835 546.484 l 5
 541.675 558.696 l 6
 519.636 596.281 442.552 595.517 398.679 557.279 c 4
 364.684 527.65 350.045 493.964 342.74 428.548 c 6
 337.849 384.739 l 5
 295.146 383.665 l 6
 252.859 382.603 252.44 382.476 251.92 370.629 c 4
 250.938 348.261 254.919 346.23 297.178 347.552 c 6
 335.978 348.766 l 5
 335.693 277.66 l 6
 335.369 196.456 331.112 167.405 318.679 161.526 c 4
 314.017 159.321 297.794 158.135 282.629 158.889 c 6
 255.057 160.261 l 5
 254.152 142.078 l 6
 253.441 127.787 254.95 123.813 261.203 123.513 c 4
 265.579 123.302 313.285 123.917 367.218 124.878 c 4
438.09 154.871 m 4
 416.724 159.067 410.717 189.25 409.884 296.601 c 6
 409.491 347.247 l 5
 424.183 349.433 l 6
 432.263 350.635 452.615 350.935 469.41 350.1 c 6
 499.945 348.581 l 5
 499.021 271.341 l 6
 498.025 188.077 495.569 170.565 483.556 161.075 c 4
 475.175 154.454 454.543 151.639 438.09 154.871 c 4
411.113 402.621 m 6
 408.374 434.258 411.809 481.228 418.916 509.307 c 4
 427.781 544.336 444.862 560.936 470.717 559.649 c 4
 505.986 557.896 517.072 542.893 492.331 530.399 c 4
 466.229 517.22 467.425 482.941 494.439 469.967 c 6
 508.462 463.233 l 5
 505.592 425.204 l 6
 504.013 404.289 501.25 385.894 499.451 384.327 c 4
 497.652 382.761 477.432 381.716 454.517 382.006 c 6
 412.853 382.532 l 5
 411.113 402.621 l 6
EndSplineSet
Validated: 33
EndChar

StartChar: t
Encoding: 116 116 43
Width: 1000
VWidth: 0
Flags: H
LayerCount: 2
Fore
SplineSet
700.783 643.627 m 4
 744.684 643.684 772.929 634.517 805.403 609.729 c 4
 830.814 590.331 837.541 590.748 892.987 614.959 c 6
 929.57 630.928 l 5
 916.733 607.354 l 6
 909.679 594.392 893.33 574.281 880.392 562.649 c 6
 856.853 541.484 l 5
 875.505 544.926 l 6
 894.545 548.416 924.89 557.129 940.651 563.647 c 4
 948.586 566.929 948.869 566.215 943.646 556.455 c 4
 934.008 538.447 902.578 506.767 884.866 497.228 c 6
 868.175 488.246 l 5
 868.175 449.048 l 6
 868.175 282.393 756.281 110.976 600.5 39 c 4
 521.001 2.26953 403.17 -13.4561 322.707 1.90137 c 4
 280.69 9.9209 223.109 29.2314 189.592 46.5713 c 6
 164.125 59.752 l 5
 199.021 62.7461 l 6
 259.669 67.9658 322.559 88.498 368.719 118.119 c 6
 393.188 133.812 l 5
 367.755 139.043 l 6
 318.245 149.204 278.793 177.028 254.944 218.608 c 4
 247.311 231.919 241.031 244.372 241.007 246.278 c 4
 240.982 248.184 253.543 248.436 268.917 246.828 c 4
 310.763 242.455 320.031 248.452 289.324 260.044 c 4
 239.864 278.715 194.15 334.622 186.15 386.207 c 4
 183.01 406.454 183.231 406.906 194.272 403.827 c 4
 200.505 402.089 215.156 399.368 226.828 397.771 c 6
 248.027 394.845 l 5
 230.683 413.153 l 6
 201.154 444.262 187.546 477.335 185.358 523.417 c 4
 183.805 556.162 185.326 568.43 193.618 590.422 c 6
 203.771 617.334 l 5
 235.226 584.021 l 6
 306.632 508.326 409.432 457.761 508.923 449.426 c 6
 540.412 446.811 l 5
 540.894 481.569 l 6
 541.8 548.283 576.436 603.197 634.742 630.377 c 4
 658.261 641.34 669.426 643.586 700.783 643.627 c 4
EndSplineSet
Validated: 33
EndChar

StartChar: T
Encoding: 84 84 44
Width: 1000
VWidth: 0
Flags: H
LayerCount: 2
Fore
SplineSet
183.348 -48.2432 m 4
 156.762 -36.1133 134.05 -10.1064 129.862 13.002 c 4
 128.139 22.5117 127.438 170.604 128.306 342.098 c 6
 129.884 653.902 l 5
 145.354 674.183 l 6
 173.048 710.482 162.004 709.431 515.463 709.431 c 6
 834.277 709.431 l 5
 852.026 697.351 l 6
 861.788 690.707 874.829 678.451 881.007 670.117 c 4
 892.054 655.21 892.263 649.885 893.813 342.628 c 4
 894.682 170.843 893.941 22.2959 892.169 12.5234 c 4
 887.521 -13.0938 856.731 -44.8457 829.163 -52.4502 c 4
 814.715 -56.4355 773.829 -58.1699 717.755 -57.1758 c 6
 629.172 -55.6064 l 5
 627.744 90.5127 l 5
 626.314 236.633 l 5
 686.599 238.152 l 5
 746.883 239.671 l 5
 761.662 296.042 l 6
 769.791 327.046 776.523 352.949 776.626 353.604 c 4
 776.727 354.259 743.591 355.467 702.99 356.287 c 6
 629.172 357.781 l 5
 627.494 384.312 l 6
 625.256 419.68 638.943 454.939 658.921 465.27 c 4
 669.324 470.649 690.798 473.208 725.542 473.208 c 6
 776.81 473.208 l 5
 776.81 526.652 l 5
 776.81 580.096 l 5
 756.677 584.365 l 6
 745.604 586.714 711.178 588.618 680.174 588.598 c 4
 629.568 588.563 621.057 587.104 596.96 574.334 c 4
 564.988 557.392 546.002 538.141 528.989 505.421 c 4
 518.641 485.516 515.957 470.391 513.745 419.521 c 6
 511.06 357.781 l 5
 453.347 356.258 l 5
 395.633 354.734 l 5
 395.633 295.86 l 5
 395.633 236.986 l 5
 454.775 236.986 l 5
 513.918 236.986 l 5
 512.488 90.6895 l 5
 511.06 -55.6064 l 5
 358.053 -56.875 l 6
 219.146 -58.0264 203.046 -57.2305 183.348 -48.2432 c 4
EndSplineSet
Validated: 33
EndChar

StartChar: Y
Encoding: 89 89 45
Width: 1000
VWidth: 0
Flags: H
LayerCount: 2
Fore
SplineSet
106.812 343.416 m 4
 106.812 577.693 106.917 673.398 107.046 556.092 c 4
 107.174 438.785 107.174 247.103 107.046 130.131 c 4
 106.917 13.1582 106.812 109.137 106.812 343.416 c 4
240.146 -67.3613 m 4
 216.92 -65.0967 194.16 -57.0771 175.448 -44.5635 c 4
 140.893 -21.4541 118.238 12.1582 110.289 52.1123 c 4
 108.735 59.9209 108.648 74.335 108.648 324.636 c 4
 108.648 574.938 108.735 589.352 110.289 597.16 c 4
 116.858 630.18 133.218 658.593 158.324 680.588 c 4
 183.119 702.31 209.938 713.812 242.391 716.643 c 4
 257.599 717.969 741.881 717.987 758.199 716.662 c 4
 789.941 714.086 815.52 703.695 839.706 683.559 c 4
 866.497 661.253 884.349 631.557 891.099 598.076 c 4
 892.677 590.25 892.777 576.662 893.06 330.133 c 4
 893.283 135.404 893.089 68.0273 892.28 60.8145 c 4
 888.676 28.6299 874.8 0.361328 850.645 -24.0098 c 4
 827.341 -47.5225 804.148 -59.8398 770.949 -66.334 c 4
 764.42 -67.6113 735.526 -67.7871 505.754 -67.9424 c 4
 363.927 -68.0381 244.404 -67.7773 240.146 -67.3613 c 4
603.312 -9.68555 m 4
 653.827 -8.31348 697.222 -5.62109 713.886 -2.82715 c 4
 732.196 0.243164 747.055 9.15137 758.067 23.6602 c 4
 768.954 38.0029 773.396 52.6191 777.293 86.9219 c 4
 780.498 115.127 781.026 129.09 781.019 185.397 c 4
 781.01 252.509 779.482 278.104 773.644 308.883 c 4
 769.538 330.53 763.928 341.496 750.53 354.075 c 4
 742.08 362.008 730.275 368.513 720.109 370.838 c 4
 679.197 380.194 457.17 383.407 338.576 376.359 c 4
 287.132 373.302 275.03 371.098 261.494 362.32 c 4
 250.114 354.94 242.035 345.988 236.121 334.204 c 4
 225.426 312.894 219.937 261.777 219.957 183.66 c 4
 219.975 108.002 225.167 58.3613 235.316 36.7852 c 4
 243.97 18.3857 261.801 3.39941 280.828 -1.4668 c 4
 287.977 -3.29492 306.833 -5.30469 332.164 -6.93848 c 4
 393.815 -10.9141 513.496 -12.127 603.312 -9.68555 c 4
403.756 60.8496 m 4
 395.24 62.2969 389.741 68.2139 386.799 79.0938 c 4
 385.638 83.3867 385.371 97.0645 385.078 167.306 c 6
 384.73 250.437 l 5
 401.691 250.437 l 5
 418.651 250.437 l 5
 418.92 174.013 l 6
 419.186 98.0293 419.199 97.5752 421.11 95.0039 c 4
 423.078 92.3584 426.971 91.3018 431.012 92.3154 c 4
 434.747 93.2529 441.47 98.4531 445.204 103.293 c 6
 448.96 108.16 l 5
 448.96 179.299 l 5
 448.96 250.437 l 5
 465.906 250.437 l 5
 482.853 250.437 l 5
 482.853 156.543 l 5
 482.853 62.6475 l 5
 465.906 62.6475 l 5
 448.96 62.6475 l 5
 448.96 72.875 l 5
 448.96 83.1006 l 5
 442.754 77.1094 l 6
 429.172 63.9971 416.448 58.6924 403.756 60.8496 c 4
574.458 61.1318 m 4
 567.189 62.7451 560.34 66.8076 552.973 73.8682 c 4
 549.426 77.2695 546.419 80.0518 546.292 80.0518 c 4
 546.165 80.0518 546.06 76.1357 546.06 71.3496 c 6
 546.06 62.6475 l 5
 529.113 62.6475 l 5
 512.167 62.6475 l 5
 512.167 188.604 l 5
 512.167 314.56 l 5
 529.113 314.56 l 5
 546.06 314.56 l 5
 546.06 273.827 l 5
 546.06 233.095 l 5
 552.311 239.346 l 6
 556.749 243.783 560.654 246.631 565.775 249.161 c 4
 572.558 252.514 573.483 252.726 581.28 252.718 c 4
 588.73 252.711 590.068 252.436 594.449 250.017 c 4
 604.938 244.225 609.321 234.512 611.092 213.128 c 4
 612.247 199.206 612.255 113.945 611.104 100.205 c 4
 609.601 82.2588 606.41 73.4336 599.021 66.792 c 4
 592.853 61.2451 583.573 59.1074 574.458 61.1318 c 4
571.16 94.752 m 4
 573.108 96.4619 574.982 99.3867 576.001 102.309 c 4
 577.528 106.686 577.664 111.119 577.664 156.543 c 4
 577.664 211.469 577.491 213.294 571.763 218.781 c 4
 566.439 223.881 556.601 222.859 549.301 216.45 c 6
 546.06 213.604 l 5
 546.06 156.676 l 5
 546.06 99.7471 l 5
 549.28 97.1777 l 6
 553.928 93.4688 557.776 92.0371 563.204 91.9961 c 4
 567.25 91.9658 568.468 92.3877 571.16 94.752 c 4
682.06 60.8135 m 4
 669.926 62.4883 660.24 67.4922 652.118 76.2812 c 4
 645.89 83.0186 642.471 90.1377 640.259 100.97 c 4
 638.6 109.087 638.505 113.013 638.822 160.127 c 4
 639.191 215.081 639.253 215.788 644.7 227.375 c 4
 649.588 237.772 662.255 247.91 674.764 251.436 c 4
 682.031 253.483 699.987 252.986 706.752 250.55 c 4
 722.705 244.803 733.968 231.229 738.013 212.879 c 4
 739.158 207.682 739.642 199.258 740 178.298 c 6
 740.473 150.588 l 5
 706.416 150.588 l 5
 672.358 150.588 l 5
 672.645 127.915 l 6
 672.925 105.832 672.992 105.126 675.222 100.711 c 4
 678.629 93.9697 681.286 92.4189 689.428 92.4189 c 4
 695.661 92.4189 696.392 92.627 699.092 95.168 c 4
 703.544 99.3545 704.543 102.752 705.168 115.825 c 6
 705.735 127.687 l 5
 723.141 127.687 l 5
 740.547 127.687 l 5
 739.97 114.633 l 6
 739.036 93.4971 735.812 84.625 725.218 74.0244 c 4
 716.111 64.9141 708.079 61.4756 693.544 60.4648 c 4
 690.268 60.2363 685.101 60.3936 682.06 60.8135 c 4
705.452 191.644 m 6
 705.452 214.701 700.543 222.922 687.425 221.835 c 4
 681.256 221.323 678.201 219.184 675.222 213.289 c 4
 673.111 209.109 672.908 207.597 672.625 193.871 c 6
 672.317 178.984 l 5
 688.884 178.984 l 5
 705.452 178.984 l 5
 705.452 191.644 l 6
301.476 170.74 m 5
 301.476 278.835 l 5
 281.323 278.835 l 5
 261.17 278.835 l 5
 261.17 296.696 l 5
 261.17 314.56 l 5
 320.713 314.56 l 5
 380.256 314.56 l 5
 380.256 296.696 l 5
 380.256 278.835 l 5
 359.645 278.835 l 5
 339.034 278.835 l 5
 339.034 170.74 l 5
 339.034 62.6475 l 5
 320.255 62.6475 l 5
 301.476 62.6475 l 5
 301.476 170.74 l 5
506.551 413.907 m 4
 519.366 417.318 531.596 427.162 536.868 438.31 c 4
 542.687 450.613 542.854 452.577 542.854 508.762 c 4
 542.854 554.352 542.685 560.321 541.218 566.565 c 4
 535.398 591.349 517.678 605.862 493.24 605.862 c 4
 483.818 605.862 477.539 604.58 470.486 601.216 c 4
 455.213 593.93 446.195 579.38 443.558 557.77 c 4
 442.226 546.858 442.226 471.58 443.558 460.669 c 4
 446.63 435.504 458.756 419.31 478.515 413.988 c 4
 484.824 412.291 500.303 412.245 506.551 413.907 c 4
486.521 444.809 m 4
 481.446 447.421 478.748 451.961 477.351 460.243 c 4
 475.803 469.418 476.544 559.44 478.201 563.724 c 4
 481.234 571.562 486.337 575.633 493.128 575.633 c 4
 499.208 575.633 503.023 573.086 506.213 566.898 c 6
 508.961 561.566 l 5
 509.227 512.132 l 6
 509.407 478.744 509.167 461.122 508.487 457.846 c 4
 505.953 445.641 496.176 439.838 486.521 444.809 c 4
608.145 414.413 m 4
 614.752 416.726 623.824 422.893 630.304 429.476 c 4
 633.058 432.273 635.635 434.562 636.03 434.562 c 4
 636.426 434.562 636.749 430.018 636.749 424.465 c 6
 636.749 414.367 l 5
 653.467 414.617 l 5
 670.184 414.866 l 5
 670.184 509.219 l 5
 670.184 603.572 l 5
 653.467 603.821 l 5
 636.749 604.071 l 5
 636.749 531.766 l 5
 636.749 459.46 l 5
 633.046 454.774 l 6
 623.982 443.309 613.139 439.875 607.949 446.823 c 4
 606.083 449.323 606.058 450.226 605.798 526.69 c 6
 605.534 604.03 l 5
 588.573 604.03 l 5
 571.613 604.03 l 5
 571.95 519.982 l 6
 572.307 431.198 572.314 431.049 576.507 423.111 c 4
 578.459 419.414 582.467 415.726 586.366 414.037 c 4
 591.075 411.997 601.774 412.182 608.145 414.413 c 4
395.829 465.867 m 5
 395.829 517.326 l 5
 418.395 591.595 l 6
 430.806 632.442 441.156 666.378 441.394 667.008 c 4
 441.732 667.901 437.627 668.152 422.72 668.151 c 6
 403.615 668.149 l 5
 390.828 619.143 l 6
 383.796 592.189 377.818 570.139 377.546 570.142 c 4
 377.273 570.145 371.072 592.196 363.767 619.146 c 6
 350.484 668.147 l 5
 330.607 668.15 l 5
 310.73 668.153 l 5
 311.963 665.176 l 6
 314.307 659.517 341.898 576.954 346.478 561.892 c 4
 349.007 553.579 352.693 540.41 354.673 532.627 c 6
 358.271 518.478 l 5
 358.271 466.443 l 5
 358.271 414.408 l 5
 377.05 414.408 l 5
 395.829 414.408 l 5
 395.829 465.867 l 5
EndSplineSet
Validated: 33
EndChar

StartChar: W
Encoding: 87 87 46
Width: 1000
VWidth: 0
Flags: H
LayerCount: 2
Fore
SplineSet
471.312 -71.0781 m 4
 468.846 -70.6533 459.561 -69.4219 450.679 -68.3408 c 4
 433.229 -66.2158 395.952 -58.167 393.631 -56.0234 c 4
 392.456 -54.9375 506.606 280.979 510.562 288.079 c 4
 511.242 289.3 536.726 221.881 567.191 138.26 c 4
 597.657 54.6387 625.663 -21.8105 629.427 -31.6279 c 4
 633.189 -41.4453 636.054 -49.6934 635.79 -49.9561 c 4
 635.527 -50.2188 625.662 -53.209 613.868 -56.6006 c 4
 578.48 -66.7754 552.46 -70.4971 511.683 -71.2168 c 4
 491.946 -71.5654 473.779 -71.5029 471.312 -71.0781 c 4
309.71 -20.8711 m 4
 172.24 57.458 93.8467 207.439 108.986 363.15 c 4
 112.579 400.101 124.769 448.553 137.912 478.132 c 6
 141.771 486.816 l 5
 143.982 481.434 l 6
 145.198 478.473 182.285 377.143 226.398 256.256 c 4
 270.511 135.368 312.192 21.2061 319.024 2.56152 c 4
 325.855 -16.083 331.171 -31.6123 330.835 -31.9482 c 4
 330.499 -32.2842 320.992 -27.2998 309.71 -20.8711 c 4
704.564 -16.5977 m 4
 704.564 -15.6201 730.916 61.3105 763.124 154.359 c 4
 795.331 247.408 826.416 337.266 832.201 354.042 c 4
 850.005 405.672 857.736 455.526 854.042 494.891 c 4
 853.069 505.252 852.535 514.055 852.854 514.452 c 4
 853.174 514.849 857.833 505.968 863.207 494.715 c 4
 909.308 398.197 913.816 285.236 875.627 183.589 c 4
 869.505 167.295 852.099 132.294 842.417 116.81 c 4
 810.69 66.0684 765.701 20.7354 714.685 -11.9004 c 4
 709.118 -15.4609 704.564 -17.5742 704.564 -16.5977 c 4
402.287 90.7363 m 4
 382.548 147.269 261.562 510.018 262.224 510.681 c 4
 262.715 511.172 271.811 512.256 282.437 513.09 c 4
 293.062 513.924 304.346 515.044 307.51 515.58 c 4
 319.905 517.68 324.903 533.808 315.938 542.773 c 4
 311.407 547.304 310.827 547.401 294.855 546.326 c 4
 251.645 543.417 186.213 541.08 180.148 542.23 c 6
 173.372 543.516 l 5
 176.56 548.969 l 6
 190.215 572.324 237.061 621.265 266.769 643.209 c 4
 337.786 695.669 416.519 721.645 504.506 721.645 c 4
 578.841 721.645 646.818 702.934 709.055 665.341 c 4
 731.538 651.76 770.947 621.93 770.95 618.49 c 4
 770.951 617.885 765.889 616.983 759.702 616.487 c 4
 722.506 613.501 695.487 574.668 702.432 534.173 c 4
 705.468 516.469 713.132 499.087 731.039 469.296 c 4
 755.333 428.877 764.779 406.21 770.007 375.786 c 4
 776.645 337.159 770.669 297.446 748.598 233.52 c 4
 743.205 217.899 731.016 178.879 721.51 146.807 c 4
 712.004 114.734 703.626 87.8574 702.892 87.0801 c 4
 702.157 86.3018 669.509 181.081 630.34 297.7 c 4
 591.17 414.319 559.536 510.148 560.042 510.654 c 4
 560.548 511.159 569.655 512.256 580.281 513.09 c 4
 590.907 513.924 602.189 515.044 605.354 515.58 c 4
 617.749 517.679 622.748 533.808 613.783 542.772 c 4
 609.203 547.353 608.826 547.41 590.906 546.278 c 4
 505.083 540.854 497.568 540.816 419.435 545.434 c 6
 384.602 547.492 l 5
 379.513 541.797 l 6
 373.265 534.805 372.917 527.344 378.532 520.815 c 4
 382.186 516.568 384.522 515.853 399.614 514.357 c 4
 408.95 513.432 419.889 512.277 423.923 511.79 c 6
 431.258 510.905 l 5
 462.116 426.391 l 5
 492.974 341.875 l 5
 449.697 212.044 l 6
 425.896 140.638 406.16 82.2139 405.842 82.2139 c 4
 405.523 82.2139 403.924 86.0488 402.287 90.7363 c 4
EndSplineSet
Validated: 33
EndChar

StartChar: q
Encoding: 113 113 47
Width: 1000
VWidth: 0
Flags: H
LayerCount: 2
Fore
SplineSet
621.846 -3.81934 m 4
 603.442 -0.834961 584.288 4.85449 569.824 11.6318 c 6
 557.621 17.3506 l 5
 543.085 14.9844 l 6
 522.091 11.5693 463.249 11.6289 441.112 15.0889 c 4
 389.471 23.1621 345.842 39.8408 305.112 67.0762 c 4
 263.051 95.2041 229.281 128.9 201.611 170.354 c 4
 169.575 218.354 152.596 267.345 147.062 327.751 c 4
 144.932 350.996 146.027 389.506 149.489 413.102 c 6
 151.998 430.193 l 5
 146.073 441.979 l 6
 139.029 455.998 132.065 476.221 128.417 493.255 c 4
 124.249 512.721 124.662 555.438 129.218 575.943 c 4
 137.66 613.956 155.995 647.106 184.144 675.256 c 4
 220.93 712.042 265.102 731.689 316.055 733.934 c 4
 355.467 735.668 392.889 727.31 423.299 709.98 c 4
 434.37 703.671 435.055 703.483 442.128 704.824 c 4
 458.099 707.854 494.226 709.25 517.068 707.722 c 4
 568.304 704.293 607.779 693.861 649.496 672.726 c 4
 736.596 628.596 806.057 544.854 830.498 454.508 c 4
 843.235 407.428 845.788 350.842 837.396 301.652 c 6
 834.63 285.44 l 5
 838.011 277.787 l 6
 859.012 230.258 860.497 169.113 841.795 122.039 c 4
 821.506 70.9756 778.057 27.5254 726.993 7.2373 c 4
 705.946 -1.12402 687.046 -4.65723 659.61 -5.35742 c 4
 642.541 -5.79395 631.158 -5.3291 621.846 -3.81934 c 4
519.663 122.795 m 4
 567.404 127.171 616.009 143.566 644.289 164.834 c 4
 668.553 183.083 686.539 210.694 693.102 239.775 c 4
 696.229 253.631 696.645 287.089 693.845 299.751 c 4
 687.109 330.227 668.023 357.853 641.524 375.482 c 4
 618.729 390.647 559.655 410.182 489.73 425.676 c 4
 456.569 433.024 439.104 438.759 426.121 446.56 c 4
 409.087 456.797 403.04 465.697 403.04 480.529 c 4
 403.04 502.508 417.537 515.244 453.763 525.091 c 4
 460.97 527.051 469.15 527.721 486.342 527.762 c 4
 512.914 527.822 524.194 525.235 541.34 515.149 c 4
 553.922 507.748 561.92 498.72 572.892 479.527 c 4
 587.02 454.818 595.54 446.484 611.378 441.884 c 4
 634.094 435.285 660.002 447.04 670.208 468.576 c 4
 681.522 492.458 669.81 528.895 642.01 556.289 c 4
 593.771 603.824 483.407 619.388 397.265 590.802 c 4
 376.917 584.05 352.326 571.498 340.964 562.063 c 4
 321.615 546 307.319 523.789 301.76 501.156 c 4
 297.804 485.049 298.169 454.23 302.498 438.957 c 4
 309.216 415.253 319.882 399.027 339.616 382.487 c 4
 366.062 360.32 392.418 350.411 474.747 331.686 c 4
 511.98 323.218 532.617 316.645 550.976 307.407 c 4
 576.059 294.787 585.842 281.877 585.975 261.223 c 4
 586.038 251.383 585.455 248.914 580.992 240.17 c 4
 572.644 223.804 553.957 210.91 528.548 203.979 c 4
 518.55 201.25 512.654 200.735 490.785 200.669 c 4
 468.218 200.603 463.373 201.021 453.304 203.912 c 4
 438.821 208.069 428.745 213.132 420.877 220.203 c 4
 412.849 227.42 399.319 248.088 388.421 269.784 c 4
 379.095 288.353 372.313 296.578 361.635 302.281 c 4
 356.169 305.199 353.104 305.675 339.73 305.675 c 4
 325.957 305.675 323.212 305.22 315.709 301.703 c 4
 304.97 296.67 294.827 286.336 291.743 277.284 c 4
 288.705 268.367 288.723 252.232 291.786 239.867 c 4
 300.964 202.825 332.781 165.562 372.073 145.837 c 4
 409.568 127.014 467.324 117.996 519.663 122.795 c 4
EndSplineSet
Validated: 33
EndChar

StartChar: six
Encoding: 54 54 48
Width: 1000
VWidth: 0
Flags: H
LayerCount: 2
Fore
SplineSet
408.5 -55.7598 m 4
 301.968 -31.9365 198.854 48.8311 151.493 145.553 c 4
 118.81 212.299 108.48 255.525 108.589 325.11 c 4
 108.769 441.045 141.648 520.971 222.286 601.486 c 4
 303.384 682.462 385.971 717 498.5 717 c 4
 611.029 717 693.616 682.462 774.714 601.486 c 4
 855.352 520.971 888.231 441.045 888.411 325.11 c 4
 888.519 255.646 878.19 212.301 845.735 146.014 c 4
 803.058 58.8486 713.943 -16.9961 618.5 -47.3848 c 4
 567.089 -63.7539 462.841 -67.9111 408.5 -55.7598 c 4
463.471 -12.1504 m 4
 520.635 47.0518 540.313 103.515 558.333 260.027 c 4
 565.025 318.149 570.5 367.425 570.5 369.527 c 4
 570.5 376.051 621.729 373.721 628.563 366.887 c 4
 633.182 362.269 641.228 365.868 656.744 379.491 c 4
 668.688 389.979 676.961 400.987 675.127 403.954 c 4
 673.292 406.922 650.003 409.35 623.373 409.35 c 6
 574.954 409.35 l 5
 578.946 440.85 l 6
 584.883 487.688 600.024 530.261 617.358 548.85 c 4
 636.617 569.502 669.357 571.269 692.69 552.914 c 4
 706.571 541.996 708.5 536.17 708.5 505.151 c 4
 708.5 485.721 697.708 400.192 684.518 315.087 c 4
 671.327 229.981 660.527 152.747 660.518 143.456 c 4
 660.489 116.002 670.536 103.333 692.211 103.49 c 4
 713.771 103.646 772.472 133.084 769.748 142.374 c 4
 768.784 145.661 756.892 147.446 743.32 146.342 c 6
 718.646 144.333 l 5
 722.402 194.342 l 6
 724.469 221.846 734.368 294.3 744.401 355.35 c 4
 768.144 499.814 772.465 549.729 762.794 567.8 c 4
 750.636 590.519 714.275 607.35 677.357 607.35 c 4
 604.334 607.35 540.066 535.574 525.376 437.614 c 4
 522.003 415.12 518.766 409.35 509.521 409.35 c 4
 492.95 409.35 461.438 391.924 465.658 385.095 c 4
 467.61 381.935 479.849 379.35 492.854 379.35 c 4
 509.446 379.35 516.5 376.77 516.5 370.7 c 4
 516.5 341.239 485.099 107.481 478.072 84.6387 c 4
 466.167 45.9346 446.102 8.26172 428.9 -7.67969 c 4
 419.798 -16.1162 415.721 -24.8506 418.051 -30.9219 c 4
 424.075 -46.6221 434.242 -42.4199 463.471 -12.1504 c 4
354.943 120.342 m 4
 388.894 141.872 412.252 169.486 431.927 211.35 c 4
 444.788 238.716 447.441 253.058 447.468 295.35 c 4
 447.521 378.555 420.102 415.28 357.895 415.327 c 4
 318.45 415.357 283.094 397.447 250.056 360.7 c 4
 217.09 324.034 202.213 282.415 202.033 226.35 c 4
 201.784 148.862 237.021 103.654 297.825 103.451 c 4
 320.928 103.374 334.532 107.397 354.943 120.342 c 4
280.191 163.623 m 4
 240.607 210.665 246.272 313.668 290.897 358.293 c 4
 320.788 388.184 375.186 374.629 390.867 333.383 c 4
 408.678 286.539 388.262 182.619 356.311 157.486 c 4
 332.184 138.508 299.078 141.177 280.191 163.623 c 4
EndSplineSet
Validated: 33
EndChar

StartChar: seven
Encoding: 55 55 49
Width: 1000
VWidth: 0
Flags: HW
LayerCount: 2
Fore
SplineSet
418.446 -72.043 m 4
 339.603 -58.1797 265.413 -19.3184 207.315 38.5488 c 4
 190.88 54.9189 171.006 77.4531 163.15 88.625 c 4
 88.8926 194.23 69.0752 325.763 109.16 446.974 c 4
 129.601 508.785 158.976 556.168 205.748 602.775 c 4
 284.139 680.889 378.362 719.875 488.759 719.875 c 4
 599.155 719.875 693.38 680.889 771.771 602.775 c 4
 847.957 526.857 888.734 428.775 888.734 321.438 c 4
 888.734 127.724 748.103 -39.4238 557.739 -71.9648 c 4
 521.639 -78.1357 453.314 -78.1738 418.446 -72.043 c 4
570.105 -21.375 m 4
 683.322 8.78223 769.392 82.8555 812.156 186.939 c 4
 832.461 236.357 837.106 261.932 836.874 323 c 4
 836.688 371.789 835.79 380.891 828.546 407.392 c 4
 810.079 474.953 780.958 525.166 732.5 573 c 4
 687.034 617.882 637.37 645.955 571.083 664.243 c 4
 550.037 670.05 538.397 671.006 488.759 671.006 c 4
 439.12 671.006 427.481 670.05 406.435 664.243 c 4
 340.147 645.955 290.484 617.882 245.018 573 c 4
 196.561 525.166 167.439 474.953 148.972 407.392 c 4
 141.729 380.891 140.83 371.789 140.645 323 c 4
 140.41 261.715 145.046 236.381 165.675 186.183 c 4
 210.79 76.4023 309.088 -3.2041 427.304 -25.6953 c 4
 460.172 -31.9482 539.408 -29.5508 570.105 -21.375 c 4
255.622 189.932 m 4
 193.01 209.528 159.538 298.096 179.938 390.188 c 4
 188.526 428.954 212.872 462.869 243.385 478.571 c 4
 265.829 490.122 307.754 492.022 337.781 482.85 c 4
 372.577 472.221 373.134 471.492 373.134 436.625 c 4
 373.134 420.251 372.079 407.333 370.79 407.918 c 4
 369.501 408.504 359.455 413.665 348.465 419.389 c 4
 314.014 437.33 281.483 436.776 260.581 417.893 c 4
 219.692 380.953 225.78 272.269 270.049 248.859 c 4
 283.348 241.826 304.079 239.66 319.228 243.72 c 4
 325.847 245.493 326.259 247.224 326.259 273.201 c 6
 326.259 300.799 l 5
 309.853 301.743 l 5
 293.446 302.688 l 5
 292.539 328.469 l 5
 291.631 354.25 l 5
 335.508 354.25 l 5
 379.384 354.25 l 5
 379.384 282.428 l 5
 379.384 210.605 l 5
 364.54 203.089 l 6
 330.852 186.029 285.568 180.56 255.622 189.932 c 4
426.259 338.508 m 5
 426.259 485.5 l 5
 484.853 485.432 l 6
 537.062 485.37 544.979 484.668 557.509 478.987 c 4
 575.838 470.678 584.419 462.405 594.514 443.312 c 4
 602.119 428.93 602.775 424.707 602.775 390.188 c 4
 602.775 355.668 602.119 351.445 594.514 337.062 c 4
 577.928 305.691 557.734 295.046 514.618 294.943 c 6
 485.789 294.875 l 5
 484.931 244.094 l 5
 484.071 193.312 l 5
 455.165 192.414 l 5
 426.259 191.516 l 5
 426.259 338.508 l 5
534.555 358.561 m 4
 542.178 365.117 543.348 368.614 544.451 388.142 c 4
 545.651 409.38 545.313 410.676 536.221 419.769 c 4
 527.585 428.405 524.908 429.25 506.187 429.25 c 6
 485.634 429.25 l 5
 485.634 390.188 l 5
 485.634 351.125 l 5
 505.772 351.125 l 6
 522.476 351.125 527.385 352.394 534.555 358.561 c 4
638.759 338.742 m 5
 638.759 485.734 l 5
 667.665 484.836 l 5
 696.571 483.938 l 5
 697.391 367.612 l 5
 698.21 251.287 l 5
 745.828 250.425 l 5
 793.446 249.562 l 5
 794.345 220.656 l 5
 795.243 191.75 l 5
 717.001 191.75 l 5
 638.759 191.75 l 5
 638.759 338.742 l 5
EndSplineSet
Validated: 33
EndChar

StartChar: eight
Encoding: 56 56 50
Width: 1000
VWidth: 0
Flags: HW
LayerCount: 2
Fore
SplineSet
528.802 -86.1641 m 0
 519.31 -77.5879 511.544 -66.5557 511.544 -61.6465 c 0
 511.544 -54.3662 510.358 -53.7051 505.111 -58.0596 c 0
 500.205 -62.1318 499.732 -66.1689 503.118 -75.0762 c 0
 507.512 -86.6309 507.463 -86.667 498.429 -78.4902 c 0
 487.702 -68.7832 486.675 -54.5312 495.83 -42.4268 c 0
 505.033 -30.2588 504.25 -27.1396 486.959 -7.09668 c 2
 471.606 10.7002 l 1
 477.021 -3.87305 l 2
 483.47 -21.2236 478.126 -33.0049 462.78 -35.2754 c 0
 454.26 -36.5361 453.135 -38.7217 455.338 -49.7344 c 0
 458.481 -65.4502 456.161 -66.1426 447.034 -52.2139 c 0
 439.051 -40.0293 441.998 -28.6084 454.117 -24.7617 c 0
 467.937 -20.376 463.854 -6.88086 444.916 5.65137 c 0
 435.188 12.0889 423.984 22.3066 420.021 28.3564 c 0
 413.253 38.6855 413.378 40.0752 422.076 51.1328 c 0
 432.289 64.1162 430.934 70.7617 418.072 70.7617 c 0
 413.444 70.7617 407.896 73.9121 405.74 77.7617 c 0
 403.586 81.6123 396.979 87.1641 391.061 90.0996 c 0
 379.153 96.0049 374.215 116.365 382.32 126.131 c 0
 386.11 130.698 384.681 132.658 375.968 134.845 c 0
 368.678 136.675 364.726 140.765 364.726 146.479 c 0
 364.726 151.327 361.865 155.293 358.37 155.293 c 0
 347.326 155.293 338.031 168.719 338.031 184.669 c 0
 338.031 194.248 335.511 201.03 331.358 202.623 c 0
 327.13 204.246 324.667 211.124 324.636 221.393 c 0
 324.608 230.307 323.401 244.767 321.952 253.526 c 2
 319.317 269.452 l 1
 295.616 260.199 l 2
 272.389 251.132 271.855 250.518 268.907 229.402 c 0
 265.045 201.738 269.976 156.052 280.5 122 c 0
 291.144 87.5625 310.326 57.1553 341.522 25.2754 c 0
 355.228 11.2695 365.307 -1.32422 363.921 -2.71094 c 0
 362.534 -4.09766 346.632 9.40918 328.583 27.3047 c 0
 275.479 79.957 253.701 132.287 253.565 207.569 c 0
 253.529 227.757 252.128 244.273 250.45 244.273 c 0
 248.772 244.273 243.267 240.527 238.215 235.949 c 0
 227.906 226.606 179.767 219.805 175.283 227.058 c 0
 170.286 235.144 177.52 251.449 193.321 267.72 c 0
 201.95 276.604 209.01 287.047 209.01 290.925 c 0
 209.01 294.802 212.158 302.78 216.007 308.653 c 0
 219.854 314.526 222.357 324.889 221.568 331.68 c 0
 220.371 341.977 217.351 344.601 203.38 347.483 c 0
 176.505 353.028 154.943 366.224 130.461 392.11 c 0
 90.7236 434.127 75.5391 475.766 75.5391 542.718 c 0
 75.5391 619.681 113.285 681.849 178.845 712.863 c 0
 214.479 729.721 243.97 734.905 293.023 732.936 c 0
 332.822 731.337 337.963 730.021 366.246 714.205 c 0
 389.214 701.36 400.382 697.628 411.839 698.965 c 0
 434.497 701.61 431.8 680.834 407.879 668.464 c 0
 396.544 662.603 384.934 661.945 338.318 664.523 c 0
 288.028 667.305 279.87 666.685 257.74 658.405 c 0
 211.922 641.262 181.206 597.06 181.485 548.666 c 0
 181.731 506.001 199.527 480.072 228.562 480.072 c 0
 242.306 480.072 257.134 493.608 332.254 574.734 c 0
 371.33 616.934 390.384 626.694 433.686 626.694 c 0
 466.969 626.694 487.984 619.48 515.561 598.59 c 2
 530.699 587.121 l 1
 546.38 600.889 l 2
 579.614 630.068 618.139 634.978 658.003 615.113 c 0
 681.286 603.51 685.945 598.605 748.238 520.113 c 0
 794.755 461.5 833.607 475.618 833.948 551.257 c 0
 834.125 590.52 821.848 619.837 796.469 640.757 c 0
 770.009 662.567 744.849 668.371 703.921 662.105 c 0
 660.991 655.534 639.521 658.976 627.411 674.37 c 0
 615.251 689.829 615.93 693.098 631.208 692.664 c 0
 638.402 692.459 654.101 698.453 666.737 706.229 c 0
 714.917 735.873 774.235 737.018 830.155 709.38 c 0
 900.845 674.443 934.518 607.538 928.661 513.658 c 0
 924.2 442.155 875.865 375.388 817.111 359.567 c 0
 804.571 356.19 800.682 353.145 802.583 348.19 c 0
 804.011 344.469 805.18 339.726 805.18 337.648 c 0
 805.18 335.572 809.684 333.233 815.189 332.451 c 0
 827.427 330.713 830.83 314.925 820.768 306.574 c 0
 802.962 291.796 732.199 304.74 698.116 329.009 c 0
 691.401 333.791 684.983 337.703 683.854 337.703 c 0
 680.984 337.703 687.286 304.851 691.447 298.117 c 0
 693.671 294.521 700.545 293.466 711.094 295.102 c 0
 735.737 298.922 744.137 290.02 746.482 257.591 c 2
 748.418 230.832 l 1
 727.859 210.273 l 2
 707.666 190.079 703.027 181.987 711.647 181.987 c 0
 714.038 181.987 719.273 176.982 723.281 170.864 c 0
 729.956 160.679 729.975 158.834 723.503 148.957 c 0
 719.616 143.025 712.379 136.884 707.419 135.31 c 0
 700.149 133.003 698.402 128.627 698.402 112.728 c 0
 698.402 86.9121 687.271 75.2109 662.715 75.2109 c 0
 640.111 75.2109 631.486 61.5371 640.446 39.9053 c 0
 648.131 21.3545 643.288 6.55566 624.959 -7.4248 c 0
 616.414 -13.9424 609.422 -20.7471 609.422 -22.5459 c 0
 609.422 -31.1592 632.298 -49.3623 643.122 -49.3623 c 0
 653.67 -49.3623 654.317 -50.1875 648.896 -56.7236 c 0
 643.439 -63.3018 644.393 -63.2559 657.857 -56.2939 c 2
 672.925 -48.5049 l 1
 663.109 -62.2891 l 2
 657.711 -69.8711 648.929 -78.4502 643.593 -81.3545 c 2
 633.892 -86.6338 l 1
 645.015 -89.585 l 2
 655.334 -92.3223 654.936 -92.7783 639.497 -95.9053 c 0
 626.833 -98.4697 618.596 -97.166 605.018 -90.4482 c 0
 586.355 -81.2148 580.52 -83.8955 596.367 -94.4219 c 0
 604.649 -99.9229 602.619 -100.587 575.809 -101.141 c 0
 547.672 -101.723 545.126 -100.911 528.802 -86.1641 c 0
569.01 -97.042 m 0
 567.99 -96.3506 563.152 -92.8467 558.259 -89.2568 c 0
 550.027 -83.2197 549.818 -83.3135 555.467 -90.5156 c 0
 558.825 -94.7979 563.663 -98.3018 566.219 -98.3018 c 0
 568.773 -98.3018 570.029 -97.7354 569.01 -97.042 c 0
544.755 -49.1094 m 0
 538.807 -39.4854 547.377 -24.1709 563.912 -14.8779 c 0
 583.589 -3.81934 594.124 6.95898 597.612 19.5977 c 0
 598.963 24.4912 599.6 19.7988 599.026 9.16895 c 0
 597.991 -10.0322 598.036 -10.0947 605.928 -0.348633 c 0
 610.297 5.04688 613.871 6.92676 613.871 3.8291 c 0
 613.871 0.166016 617.105 1.125 623.126 6.57324 c 0
 629.929 12.7295 631.696 18.2158 629.799 27.2832 c 0
 628.38 34.0674 625.99 45.625 624.489 52.9658 c 0
 621.568 67.2441 611.783 70.2705 595.941 61.792 c 0
 587.099 57.0596 551.585 65.1084 551.585 71.8447 c 0
 551.585 73.6963 552.085 75.2139 552.697 75.2168 c 0
 553.309 75.2197 570.827 78.2207 591.626 81.8838 c 0
 612.426 85.5479 641.738 88.5479 656.767 88.5518 c 0
 682.439 88.5576 684.266 89.2529 686.978 100.059 c 0
 688.565 106.384 688.726 115.146 687.334 119.53 c 0
 683.815 130.616 654.588 134.504 622.389 128.169 c 0
 608.026 125.344 585.154 123.954 571.562 125.081 c 0
 541.431 127.579 524.032 142.306 502.349 183.662 c 0
 494.492 198.646 484.109 215.283 479.274 220.633 c 0
 470.652 230.173 470.649 230.316 479.119 228.102 c 0
 483.869 226.859 491.375 219.715 495.8 212.225 c 2
 503.844 198.606 l 1
 509.986 213.215 l 2
 517.584 231.283 522.191 228.712 515.236 210.285 c 0
 508.548 192.565 512.613 178.475 530.31 158.043 c 0
 548.255 137.323 576.118 130.289 608.683 138.257 c 0
 620.101 141.051 647.254 144.525 669.022 145.978 c 0
 716.931 149.176 725.747 156.26 704.758 174.696 c 0
 694.428 183.77 688.504 185.675 676.157 183.896 c 0
 661.633 181.803 662.258 182.541 685.451 194.876 c 0
 729.522 218.313 747.984 249.276 733.75 275.875 c 0
 730.203 282.502 725.036 284.415 712.617 283.699 c 0
 688.799 282.327 679.462 289.293 662.914 320.774 c 0
 654.805 336.202 639.512 361.113 628.929 376.131 c 0
 617.734 392.019 608.494 410.897 606.835 421.277 c 0
 601.482 454.751 621.878 489.286 638.737 475.294 c 0
 644.429 470.57 644.394 468.964 638.453 462.399 c 0
 629.367 452.359 629.905 448.929 640.565 448.929 c 0
 645.459 448.929 649.464 447.204 649.464 445.097 c 0
 649.464 442.989 644.959 442.088 639.453 443.094 c 0
 631.922 444.47 628.065 441.895 623.882 432.691 c 0
 620.823 425.965 618.32 419.167 618.32 417.586 c 0
 618.32 411.653 659.543 425.451 663.629 432.752 c 0
 669.782 443.748 664.062 463.998 651.457 475.84 c 0
 645.467 481.468 640.565 490.328 640.565 495.529 c 0
 640.565 517.847 609.527 523.597 591.67 504.588 c 0
 581.707 493.983 581.596 493.146 589.06 484.898 c 0
 600.781 471.947 596.479 460.312 579.354 458.657 c 0
 563.267 457.103 561.052 460.647 572.718 469.281 c 0
 579.753 474.487 578.788 475.733 562.707 482.206 c 0
 531.245 494.87 525.577 498.816 520.195 511.81 c 0
 517.29 518.823 514.229 524.562 513.393 524.562 c 0
 512.557 524.562 501.288 520.39 488.351 515.291 c 0
 470.452 508.235 459.511 506.677 442.584 508.77 c 0
 428.025 510.569 412.651 509.178 398.094 504.742 c 0
 385.858 501.015 370.735 497.942 364.487 497.916 c 0
 348.925 497.851 309.552 477.602 293.211 461.261 c 0
 270.017 438.066 235.704 360.989 235.704 332.081 c 0
 235.704 313.943 210.829 263.467 197.628 254.817 c 0
 182.185 244.698 182.922 234.135 198.654 240.116 c 0
 205.194 242.603 213.074 243.666 216.167 242.479 c 0
 219.259 241.293 227.007 244.427 233.385 249.443 c 0
 239.763 254.46 256.352 261.533 270.249 265.163 c 0
 302.284 273.528 316.427 280.897 338.2 300.568 c 0
 361.062 321.223 372.69 340.654 385.342 379.347 c 2
 395.728 411.112 l 1
 392.505 382.193 l 2
 387.815 340.112 389.215 319.281 397.851 302.581 c 0
 402.059 294.443 403.306 289.142 400.622 290.801 c 0
 397.938 292.459 391.652 301.832 386.654 311.629 c 2
 377.567 329.442 l 1
 364.787 311.8 l 2
 357.758 302.097 347.72 291.154 342.479 287.483 c 0
 333.671 281.314 333.185 278.337 336.045 248.082 c 0
 337.746 230.082 341.736 212.352 344.911 208.682 c 0
 348.086 205.011 351.34 195.001 352.144 186.437 c 0
 353.288 174.226 355.762 170.558 363.606 169.444 c 0
 369.847 168.558 374.63 163.956 376.323 157.209 c 0
 377.963 150.678 382.267 146.396 387.19 146.396 c 0
 399.03 146.396 401.928 138.777 395.756 123.877 c 0
 388.983 107.526 393.776 100.824 417.279 93.7822 c 0
 439.428 87.1465 448.666 71.3643 441.506 52.3965 c 0
 436.065 37.9805 437.806 28.2031 446.4 24.9053 c 0
 449.705 23.6367 451.701 27.083 451.617 33.9121 c 0
 451.527 41.2188 456.391 48.7891 465.941 56.2129 c 2
 480.4 67.4531 l 1
 480.4 53.5361 l 2
 480.4 41.8701 482.102 39.6182 490.918 39.6182 c 0
 500.179 39.6182 501.375 37.6436 500.929 23.0947 c 0
 500.485 8.66504 502.535 5.18848 517.104 -4.34473 c 0
 530.51 -13.1152 533.789 -17.999 533.789 -29.1973 c 0
 533.789 -36.8623 536.191 -45.5361 539.128 -48.4727 c 0
 545.726 -55.0703 548.644 -55.4004 544.755 -49.1094 c 0
603.77 228.44 m 0
 595.463 245.86 578.279 258.139 578.279 246.654 c 0
 578.279 236.153 557.245 237.897 553.822 248.683 c 0
 549.755 261.498 554.601 266.519 571.036 266.519 c 0
 588.759 266.519 607.959 248.252 612.124 227.429 c 0
 615.823 208.932 612.904 209.285 603.77 228.44 c 0
441.443 240.937 m 0
 442.448 243.995 449.122 247.087 456.274 247.808 c 2
 469.278 249.116 l 1
 456.534 242.246 l 2
 441.104 233.928 439.085 233.752 441.443 240.937 c 0
522.918 254.161 m 0
 519.109 259.6 515.992 270.466 515.992 278.309 c 0
 515.992 299.032 532.933 311.009 562.242 311.009 c 0
 581.943 311.009 588.978 308.313 613.919 291.205 c 0
 676.659 248.17 679.97 237.458 618.128 277.585 c 0
 578.866 303.06 562.865 307.06 540.672 296.948 c 0
 524.96 289.789 526.501 286.539 545.605 286.539 c 0
 554.555 286.539 562.591 284.456 563.465 281.91 c 0
 564.338 279.364 559.52 277.362 552.757 277.461 c 0
 543.326 277.6 540.131 275.31 539.041 267.631 c 0
 538.259 262.125 535.542 257.621 533.003 257.621 c 0
 530.465 257.621 529.54 254.617 530.948 250.947 c 0
 534.666 241.26 530.899 242.768 522.918 254.161 c 0
519.122 361.761 m 0
 523.519 367.652 527.805 370.588 528.648 368.285 c 0
 530.494 363.243 521.009 351.05 515.24 351.05 c 0
 512.979 351.05 514.726 355.87 519.122 361.761 c 0
464.827 370.563 m 0
 447.269 378.216 439.342 388.288 441.13 400.675 c 0
 442.769 412.029 454.603 416.659 483.737 417.342 c 0
 502.951 417.793 506.023 421.603 499.945 437.442 c 0
 496.589 446.188 486.786 446.338 463.164 438.004 c 0
 441.516 430.365 439.239 432.474 458.423 442.394 c 0
 474.631 450.775 502.671 449.416 507.163 440.03 c 0
 508.92 436.36 512.486 426.76 515.089 418.696 c 0
 519.393 405.362 519.07 404.274 511.53 406.667 c 0
 504.742 408.821 502.984 406.642 501.83 394.634 c 0
 500.593 381.753 498.855 379.969 487.559 379.969 c 0
 476.583 379.969 469.521 385.756 464.354 398.982 c 0
 464.092 399.651 460.715 398.985 456.849 397.502 c 0
 452.982 396.018 450.804 392.238 452.008 389.102 c 0
 458.056 373.34 507.498 367.108 515.637 381.081 c 0
 518.131 385.363 520.232 386.675 520.307 383.995 c 0
 520.552 375.163 504.399 364.395 491.173 364.571 c 0
 484.024 364.667 472.169 367.363 464.827 370.563 c 0
542.996 432.245 m 0
 534.156 451.652 526.149 462.341 516.488 467.63 c 0
 498.664 477.389 498.815 483.788 516.838 482.37 c 0
 528.69 481.438 531.928 478.659 536.479 465.513 c 0
 539.477 456.855 544.864 445.078 548.452 439.34 c 0
 555.604 427.902 562.129 404.438 558.157 404.438 c 0
 556.785 404.438 549.962 416.951 542.996 432.245 c 0
367.292 427.824 m 0
 371.998 433.972 378.852 443.469 382.521 448.929 c 0
 398.194 472.244 405.867 480.072 413.047 480.072 c 0
 417.246 480.072 428.112 483.86 437.194 488.49 c 0
 456.426 498.296 457.827 495 446.481 466.644 c 0
 442.143 455.8 434.26 446.003 426.746 442.117 c 2
 414.235 435.648 l 1
 416.757 451.187 l 2
 419.661 469.081 412.417 472.31 404.353 456.715 c 0
 398.93 446.228 381.834 430.032 367.292 421.605 c 0
 358.85 416.714 358.85 416.797 367.292 427.824 c 0
810.64 313.503 m 0
 812.012 314.875 808.341 320.79 802.483 326.648 c 0
 796.625 332.506 791.832 341.576 791.832 346.804 c 0
 791.832 352.032 784.893 364.417 776.41 374.326 c 0
 767.929 384.235 755.768 406.007 749.387 422.706 c 0
 735.06 460.199 704.237 494.838 679.162 501.626 c 0
 661.436 506.425 649.464 504.528 649.464 496.922 c 0
 649.464 494.479 654.469 486.53 660.586 479.261 c 0
 672.419 465.197 676.192 432.946 667.071 423.825 c 0
 663.854 420.608 664.535 417.444 669.296 413.493 c 0
 673.069 410.36 676.157 403.794 676.157 398.9 c 0
 676.157 391.729 674.935 391.018 669.858 395.229 c 0
 664.848 399.389 663.007 398.72 660.862 391.962 c 0
 659.379 387.289 653.705 381.115 648.253 378.243 c 0
 640.622 374.222 640.389 373.695 647.239 375.954 c 0
 671.436 383.934 675.156 383.454 673.29 372.599 c 0
 672.305 366.864 673.047 360.152 674.94 357.683 c 0
 681.143 349.591 715.871 328.78 737.385 320.264 c 0
 757.179 312.428 805.139 308.002 810.64 313.503 c 0
669.661 346.067 m 0
 664.391 361.938 660.419 367.649 655.87 365.903 c 0
 650.717 363.927 651.821 359.289 661.582 341.926 c 0
 668.238 330.086 674.443 321.159 675.374 322.089 c 0
 676.304 323.019 673.732 333.81 669.661 346.067 c 0
228.555 362.537 m 0
 230.04 366.407 231.255 372.658 231.255 376.429 c 0
 231.255 382.017 230.022 382.26 224.581 377.744 c 0
 218.916 373.042 217.888 374.136 217.772 384.985 c 0
 217.658 395.817 216.946 396.578 213.103 389.979 c 0
 207.014 379.525 200.111 380.116 200.111 391.092 c 0
 200.111 402.053 196.247 402.426 188.579 392.204 c 0
 183.281 385.143 182.462 385.751 179.771 398.75 c 0
 177.216 411.098 175.646 412.462 168.438 408.604 c 0
 161.521 404.902 160.07 405.695 160.07 413.18 c 0
 160.07 419.905 157.17 422.234 148.791 422.234 c 0
 138.891 422.234 138.095 423.322 142.274 431.133 c 0
 146.312 438.676 145.658 440.03 137.982 440.03 c 0
 127.706 440.03 127.128 441.703 133.373 453.372 c 0
 136.919 459.997 136.034 462.245 129.002 464.477 c 0
 120.767 467.091 120.646 467.979 127.172 477.939 c 0
 133.88 488.177 133.688 488.722 122.385 491.56 c 2
 110.609 494.515 l 1
 120.629 505.18 l 1
 130.648 515.846 l 1
 120.607 522.878 l 2
 111.002 529.606 110.903 530.283 118.337 538.498 c 0
 125.485 546.396 125.533 547.659 118.936 554.257 c 0
 112.337 560.855 112.351 562.329 119.108 572.643 c 0
 123.149 578.81 125.86 589.526 125.133 596.458 c 0
 124.387 603.572 126.863 612.114 130.818 616.069 c 0
 134.672 619.923 137.825 628.618 137.825 635.392 c 0
 137.825 644.21 140.983 649.146 148.948 652.774 c 0
 155.065 655.562 160.07 659.744 160.07 662.069 c 0
 160.07 669.928 173.989 680.278 184.559 680.278 c 0
 191.156 680.278 196.113 683.588 197.888 689.176 c 0
 199.884 695.468 204.619 698.074 214.051 698.074 c 0
 221.388 698.074 231.457 700.25 236.427 702.91 c 0
 248.121 709.169 307.987 711.771 332.979 707.105 c 0
 343.659 705.112 356.673 699.053 361.898 693.64 c 2
 371.399 683.797 l 1
 360.276 687.599 l 2
 354.159 689.69 327.302 690.874 300.593 690.23 c 0
 257.948 689.202 251.277 687.982 245.84 680.22 c 0
 242.029 674.779 234.576 671.38 226.458 671.38 c 0
 216.817 671.38 211.946 668.479 208.356 660.6 c 0
 205.654 654.671 198.912 648.682 193.372 647.291 c 0
 187.145 645.729 182.131 640.078 180.236 632.49 c 0
 178.552 625.739 174.075 616.778 170.289 612.577 c 0
 166.205 608.045 164.451 600.939 165.976 595.109 c 0
 167.433 589.537 165.309 579.801 161.07 572.626 c 0
 154.902 562.185 154.568 558.414 159.159 551.062 c 0
 163.313 544.411 163.479 539.831 159.817 532.987 c 0
 155.979 525.814 156.447 522.126 161.975 516.019 c 0
 166.811 510.675 168.173 503.898 166.296 494.517 c 0
 163.916 482.613 164.908 480.622 173.866 479.332 c 0
 180.561 478.368 185.097 473.947 186.803 466.725 c 0
 188.899 457.845 191.776 455.881 201.072 456.984 c 0
 208.674 457.887 214.262 455.603 217.171 450.403 c 0
 221.233 443.146 222.349 443.055 229.778 449.381 c 0
 234.261 453.198 247.245 461.637 258.632 468.133 c 0
 270.02 474.629 298.852 500.989 322.705 526.712 c 0
 372.689 580.614 404.152 600.195 440.78 600.195 c 0
 468.088 600.195 480.367 595.323 501.752 576.005 c 0
 511.304 567.375 520.163 561.358 521.439 562.635 c 0
 522.715 563.911 523.614 557.368 523.437 548.096 c 0
 522.81 515.317 527.625 507.035 554.12 495.317 c 0
 568.946 488.761 580.155 480.566 582.593 474.502 c 0
 585.315 467.728 586.704 466.837 586.896 471.741 c 0
 587.05 475.724 584.174 481.475 580.504 484.521 c 0
 570.601 492.739 572.191 497.96 589.401 513.724 c 0
 611.929 534.358 609.674 547.154 579.816 568.104 c 0
 562.011 580.597 558.133 580.585 566.904 568.062 c 0
 570.713 562.624 573.83 552.014 573.83 544.482 c 0
 573.83 536.952 576.333 528.144 579.392 524.907 c 0
 583.98 520.052 583.203 519.924 574.942 524.174 c 0
 568.247 527.619 564.932 533.364 564.932 541.525 c 0
 564.932 559.347 553.347 573.502 538.761 573.502 c 0
 531.229 573.502 522.251 577.994 515.656 585.064 c 0
 496.044 606.089 466.171 617.992 433.014 617.992 c 0
 387.205 617.992 373.319 609.099 315.719 542.866 c 0
 261.997 481.094 249.384 471.174 224.562 471.174 c 0
 191.749 471.174 164.688 515.503 170.705 559.399 c 0
 176.314 600.33 206.611 645.412 239.85 662.289 c 0
 266.527 675.836 303.988 681.638 329.479 676.171 c 0
 361.971 669.202 389.863 670.289 406.101 679.155 c 2
 420.339 686.93 l 1
 405.463 688.366 l 2
 397.281 689.155 377.57 696.957 361.659 705.703 c 0
 335.926 719.848 328.233 721.839 292.004 723.731 c 0
 202.457 728.409 133.961 691.025 99.2725 618.543 c 0
 89.8955 598.951 86.8623 584.945 85.2939 553.99 c 0
 81.7529 484.107 101.221 431.419 145.554 390.901 c 0
 176.832 362.314 222.482 346.714 228.555 362.537 c 0
851.895 386.353 m 0
 873.659 401.918 900.119 439.062 910.73 468.949 c 0
 916.502 485.201 918.604 504.38 918.534 540.134 c 0
 918.445 585.448 917.421 591.235 904.7 618.267 c 0
 887.622 654.558 852.144 690.917 818.794 706.306 c 0
 797.596 716.088 787.691 717.748 749.566 717.908 c 2
 705.076 718.095 l 1
 667.779 697.436 l 2
 632.122 677.684 630.936 676.534 640.774 671.269 c 0
 648.218 667.284 660.383 666.767 684.744 669.396 c 0
 752.809 676.744 778.644 670.538 809.834 639.347 c 0
 832.718 616.463 842.553 590.011 842.586 551.257 c 0
 842.615 517.22 838.41 504.04 821.644 485.634 c 0
 808.614 471.328 784.754 472.348 766.771 487.978 c 0
 759.105 494.641 742.239 514.107 729.291 531.235 c 0
 696.392 574.756 672.253 599.499 652.978 609.461 c 0
 630.035 621.317 590.819 620.969 571.019 608.73 c 0
 562.777 603.638 556.034 598.684 556.034 597.723 c 0
 556.034 596.762 562.061 592.858 569.427 589.05 c 0
 578.618 584.296 582.457 583.796 581.662 587.455 c 0
 580.015 595.038 606.026 601.823 623.896 598.471 c 0
 650.493 593.481 678.317 571.432 713.014 527.851 c 0
 731.448 504.693 754.222 481.144 763.621 475.517 c 0
 773.02 469.89 785.162 461.306 790.604 456.44 c 0
 799.52 448.472 800.777 448.322 803.314 454.936 c 0
 804.864 458.973 810.884 462.276 816.693 462.276 c 0
 824.138 462.276 828.048 465.435 829.941 472.979 c 0
 831.418 478.864 836.735 484.755 841.756 486.067 c 0
 849.217 488.019 850.402 490.869 848.241 501.672 c 0
 846.49 510.431 847.754 516.677 851.989 520.192 c 0
 856.619 524.034 857.175 527.751 854.005 533.673 c 0
 851.044 539.206 851.285 545.485 854.752 553.095 c 0
 858.768 561.908 858.581 565.899 853.891 571.552 c 0
 850.599 575.518 848.347 585.306 848.885 593.303 c 0
 849.466 601.923 847.107 610.131 843.094 613.462 c 0
 839.369 616.553 836.322 623.891 836.322 629.77 c 0
 836.322 636.975 832.823 641.788 825.581 644.541 c 0
 819.673 646.787 813.531 652.744 811.934 657.778 c 0
 810.206 663.221 805.209 666.931 799.605 666.931 c 0
 794.422 666.931 785.874 670.978 780.609 675.924 c 0
 772.562 683.484 764.366 685.046 729.158 685.729 c 0
 706.125 686.176 683.276 684.956 678.382 683.019 c 0
 671.418 680.262 672.054 681.875 681.308 690.443 c 0
 693.454 701.688 729.424 710.322 739.131 704.323 c 0
 741.97 702.569 752.861 701.458 763.335 701.854 c 0
 773.809 702.25 783.622 700.561 785.143 698.1 c 0
 786.664 695.639 794.662 693.625 802.918 693.625 c 0
 814.02 693.625 818.662 691.309 820.751 684.728 c 0
 822.505 679.201 827.482 675.829 833.886 675.829 c 0
 840.257 675.829 847.211 671.153 852.083 663.595 c 0
 856.42 656.865 862.5 649.846 865.594 647.996 c 0
 868.688 646.146 872.608 638.138 874.306 630.2 c 0
 876.003 622.262 879.319 613.371 881.676 610.441 c 0
 884.032 607.513 885.404 600.505 884.725 594.87 c 0
 884.045 589.234 885.96 580.119 888.98 574.614 c 0
 893.071 567.159 893.219 562.26 889.559 555.421 c 0
 885.901 548.587 886.018 544.584 890.017 539.766 c 0
 894.285 534.623 893.868 531.614 887.988 525.116 c 0
 881.38 517.814 881.314 516.338 887.374 511.309 c 0
 896.522 503.716 895.912 499.023 885.34 495.668 c 0
 877.056 493.039 876.951 492.209 883.627 482.021 c 0
 890.4 471.684 890.285 471.174 881.168 471.174 c 0
 873.089 471.174 872.317 469.836 876.207 462.568 c 0
 882.61 450.604 881.957 444.479 874.279 444.479 c 0
 870.299 444.479 868.746 441.871 870.306 437.807 c 0
 872.083 433.176 869.997 431.133 863.493 431.133 c 0
 856.904 431.133 854.119 428.326 854.119 421.689 c 0
 854.119 414.295 852.824 413.321 848.148 417.202 c 0
 840.484 423.562 836.359 419.29 836.181 404.81 c 0
 836.043 393.629 835.857 393.557 829.364 402.147 c 0
 822.774 410.866 822.655 410.85 820.043 400.857 c 0
 817.479 391.055 817.111 390.986 808.364 398.699 c 0
 799.568 406.456 799.401 406.394 801.932 396.302 c 0
 803.883 388.521 802.948 386.547 798.182 388.376 c 0
 791.613 390.896 789.887 383.543 794.328 371.969 c 0
 797.976 362.464 829.506 370.342 851.895 386.353 c 0
EndSplineSet
Validated: 33
EndChar

StartChar: O
Encoding: 79 79 51
Width: 1000
VWidth: 0
Flags: H
LayerCount: 2
Fore
SplineSet
509.492 700.379 m 4
 509.469 700.379 l 6
 715.568 700.379 869.805 551.33 869.805 323.27 c 4
 869.805 121.879 723.689 -60.9326 509.521 -60.9326 c 4
 297.422 -60.9326 152.086 121.924 152.086 323.27 c 4
 152.086 549.541 301.539 700.379 509.492 700.379 c 4
642.051 329.745 m 5
 642.051 329.733 l 6
 642.051 475.287 624.66 618.463 509.512 618.463 c 4
 394.369 618.463 380.568 477.059 380.568 329.573 c 4
 380.568 203.912 385.516 24.5254 509.512 24.5254 c 5
 509.512 24.5527 l 5
 635.301 24.5527 642.006 203.84 642.051 329.745 c 5
EndSplineSet
Validated: 5
EndChar

